<svg width="24" height="24" viewBox="0 0 24 24" fill="none" xmlns="http://www.w3.org/2000/svg">
<g clip-path="url(#clip0_1119_6169)">
<circle cx="12" cy="12" r="10.5" stroke="url(#paint0_linear_1119_6169)" stroke-width="3"/>
<path d="M14.8626 17.1608V17.8477C14.8626 18.2892 14.5041 18.6477 14.0626 18.6477H9.94006C9.4986 18.6477 9.14014 18.2892 9.14014 17.8477V17.1608C9.14014 16.7188 9.4986 16.3609 9.94006 16.3609H10.858V12.3063H10.5985C10.1565 12.3063 9.79857 11.9483 9.79857 11.5064V10.8194C9.79857 10.3775 10.1565 10.0195 10.5985 10.0195H12.3448C12.7868 10.0195 13.1447 10.3775 13.1447 10.8194V16.3609H14.0626C14.5041 16.3609 14.8626 16.7188 14.8626 17.1608Z" fill="url(#paint1_linear_1119_6169)"/>
<path d="M11.5959 5.26367C12.4788 5.26367 13.1948 5.9796 13.1948 6.86251C13.1948 7.74592 12.4788 8.46185 11.5959 8.46185C10.7125 8.46185 9.99658 7.74592 9.99658 6.86251C9.99658 5.9796 10.7125 5.26367 11.5959 5.26367Z" fill="url(#paint2_linear_1119_6169)"/>
<path fill-rule="evenodd" clip-rule="evenodd" d="M17.8741 1.53071C16.2744 0.631248 14.4498 0.0892933 12.5109 0.0109783C11.36 -0.0394872 10.2304 0.077597 9.14959 0.343042C7.14883 0.829854 5.35885 1.81364 3.9041 3.14642C2.44938 4.47388 1.31116 6.16505 0.647077 8.10983C0.122399 9.63554 -0.100977 11.2915 0.0426738 12.9994C0.0425437 13.0124 0.0430354 13.0254 0.0441752 13.0385C0.135159 14.0857 0.362563 15.1046 0.71225 16.0727C0.714661 16.0809 0.717351 16.0892 0.720324 16.0973C1.06178 17.0372 1.51587 17.9204 2.06583 18.7314C3.13002 20.3034 4.56717 21.6256 6.28724 22.5546C7.47802 23.2001 8.78896 23.6492 10.1758 23.8608C12.0495 24.152 13.9091 23.9881 15.6286 23.4417C18.4189 22.5551 20.8404 20.6613 22.3558 18.0705C23.1459 16.7245 23.6811 15.2104 23.8952 13.5943C24.1156 11.9696 23.9953 10.3614 23.5834 8.85067C23.1712 7.32824 22.4674 5.92784 21.5369 4.71178C20.5588 3.42998 19.3197 2.33954 17.8741 1.53071ZM18.682 20.9826C16.8157 22.3742 14.503 23.1988 12.0012 23.1988C9.22762 23.1988 6.61592 22.1647 4.61239 20.4089C2.68394 18.7109 1.35487 16.3699 0.93831 13.7592C0.937528 13.7484 0.936297 13.7374 0.934602 13.7264C0.782728 12.7447 0.762341 11.7768 0.859342 10.8393C0.861657 10.8277 0.863481 10.8159 0.864788 10.8039C0.950845 10.0125 1.11615 9.25155 1.35151 8.52738C1.91552 6.80433 2.88914 5.25359 4.16437 4.00147C5.65051 2.54889 7.5256 1.52047 9.57567 1.06312C10.3546 0.891716 11.1659 0.801107 12.0012 0.801107C12.5676 0.801107 13.1244 0.843375 13.6684 0.924923C14.078 0.987364 14.4888 1.07314 14.8996 1.18322C15.3394 1.30104 15.766 1.44363 16.1784 1.60907C17.9984 2.34333 19.5827 3.54248 20.7836 5.05857C22.296 6.96812 23.2001 9.38045 23.2001 12C23.2001 12.4982 23.1674 12.9889 23.104 13.4701C23.0407 13.9459 22.9459 14.423 22.8184 14.899C22.7299 15.2295 22.6273 15.5526 22.5116 15.8679C21.7532 17.9222 20.4087 19.6951 18.682 20.9826Z" fill="#4F565E"/>
<path fill-rule="evenodd" clip-rule="evenodd" d="M20.7697 9.91994C20.7647 9.90613 20.7604 9.8919 20.7568 9.87729C20.7053 9.66393 20.6465 9.45397 20.5808 9.24762C20.3869 8.64798 20.1276 8.06088 19.8016 7.49614C17.7962 4.02272 13.8107 2.38978 10.0859 3.19772C7.57011 3.74462 5.44313 5.34588 4.1928 7.51364C2.9884 9.61816 2.65735 12.1665 3.36217 14.5521C4.01612 16.7619 5.49676 18.6202 7.44422 19.7671C9.61287 21.0345 12.2647 21.3675 14.7263 20.5858C18.3649 19.4283 21.0083 16.017 21.0083 11.9999C21.0083 11.9728 21.011 11.9463 21.0161 11.9207C21.0094 11.2516 20.9279 10.5805 20.7697 9.91994ZM18.1628 4.3695C19.0771 5.10608 19.873 6.01999 20.4943 7.09618C21.6533 9.10349 22.0141 11.3182 21.7077 13.4062C21.5554 14.4619 21.2344 15.4637 20.773 16.3834C20.271 17.3902 19.5962 18.3131 18.7687 19.1005C18.7504 19.1179 18.7309 19.1332 18.7105 19.1465C18.1729 19.6516 17.5784 20.0968 16.9378 20.4716C16.9272 20.4791 16.9162 20.4862 16.9047 20.4929C16.2713 20.8586 15.6136 21.1453 14.9431 21.3563C14.014 21.6491 13.0257 21.807 12.0011 21.807C10.194 21.807 8.49948 21.3157 7.0441 20.4596C5.62124 19.6291 4.38911 18.4293 3.50804 16.9032C3.11013 16.214 2.80566 15.4961 2.59067 14.7643C2.3326 13.8872 2.19409 12.9594 2.19409 11.9999C2.19409 10.2221 2.66961 8.5532 3.50014 7.11381C4.33198 5.66086 5.5462 4.40229 7.09767 3.50655C7.98834 2.99232 8.92699 2.63414 9.88175 2.42346C10.5645 2.27249 11.2737 2.19287 12.0011 2.19287C14.3614 2.19287 16.4941 3.01713 18.1628 4.3695Z" fill="#4F565E"/>
<path d="M11.5956 8.86171C12.6979 8.86171 13.5946 7.96495 13.5946 6.86277C13.5946 5.76048 12.6979 4.86377 11.5956 4.86377C10.4934 4.86377 9.59668 5.76053 9.59668 6.86277C9.59663 7.96495 10.4934 8.86171 11.5956 8.86171ZM11.5956 5.66364C12.2568 5.66364 12.7947 6.20158 12.7947 6.86272C12.7947 7.52385 12.2568 8.06174 11.5956 8.06174C10.9345 8.06174 10.3966 7.52385 10.3966 6.86272C10.3966 6.20158 10.9344 5.66364 11.5956 5.66364Z" fill="#4F565E"/>
<path d="M9.94011 15.9609C9.27853 15.9609 8.74023 16.4992 8.74023 17.1608V17.8478C8.74023 18.5094 9.27853 19.0477 9.94011 19.0477H14.0622C14.7238 19.0477 15.2621 18.5094 15.2621 17.8478V17.1608C15.2621 16.4992 14.7238 15.9609 14.0622 15.9609H13.1446C12.9238 15.9609 12.7447 16.14 12.7447 16.3609C12.7447 16.5818 12.9238 16.7608 13.1446 16.7608H14.0622C14.2828 16.7608 14.4622 16.9403 14.4622 17.1608V17.8478C14.4622 18.0684 14.2828 18.2478 14.0622 18.2478H9.94011C9.71958 18.2478 9.54015 18.0684 9.54015 17.8478V17.1608C9.54015 16.9403 9.71958 16.7608 9.94011 16.7608H10.8577C11.0786 16.7608 11.2577 16.5818 11.2577 16.3609V12.3065C11.2577 12.0856 11.0786 11.9065 10.8577 11.9065H10.5981C10.3776 11.9065 10.1981 11.7271 10.1981 11.5065V10.8195C10.1981 10.599 10.3776 10.4195 10.5981 10.4195H12.3447C12.5652 10.4195 12.7447 10.599 12.7447 10.8195V16.3609C12.7447 16.5818 12.9238 16.7608 13.1446 16.7608C13.3655 16.7608 13.5446 16.5818 13.5446 16.3609V10.8195C13.5446 10.1579 13.0063 9.61963 12.3447 9.61963H10.5981C9.93651 9.61963 9.39822 10.1579 9.39822 10.8195V11.5065C9.39822 12.1207 9.86202 12.6286 10.4578 12.6983V15.9609H9.94011Z" fill="#4F565E"/>
</g>
<defs>
<linearGradient id="paint0_linear_1119_6169" x1="0" y1="12" x2="24" y2="12" gradientUnits="userSpaceOnUse">
<stop stop-color="#00C96D"/>
<stop offset="1" stop-color="#048AD7"/>
</linearGradient>
<linearGradient id="paint1_linear_1119_6169" x1="9.14014" y1="14.3336" x2="14.8626" y2="14.3336" gradientUnits="userSpaceOnUse">
<stop stop-color="#00C96D"/>
<stop offset="1" stop-color="#048AD7"/>
</linearGradient>
<linearGradient id="paint2_linear_1119_6169" x1="9.99658" y1="6.86276" x2="13.1948" y2="6.86276" gradientUnits="userSpaceOnUse">
<stop stop-color="#00C96D"/>
<stop offset="1" stop-color="#048AD7"/>
</linearGradient>
<clipPath id="clip0_1119_6169">
<rect width="24" height="24" fill="white"/>
</clipPath>
</defs>
</svg>
