<svg width="20" height="20" viewBox="0 0 20 20" fill="none" xmlns="http://www.w3.org/2000/svg">
<rect width="20" height="20" rx="2" fill="url(#paint0_linear_1494_13288)"/>
<path d="M12.875 12.5V8C12.875 7.7925 12.7075 7.625 12.5 7.625C12.2925 7.625 12.125 7.7925 12.125 8V12.5C12.125 13.6725 11.1725 14.625 10 14.625C8.8275 14.625 7.875 13.6725 7.875 12.5V6.75C7.875 5.9925 8.4925 5.375 9.25 5.375C10.0075 5.375 10.625 5.9925 10.625 6.75V12.125C10.625 12.47 10.345 12.75 10 12.75C9.655 12.75 9.375 12.47 9.375 12.125V7.25C9.375 7.0425 9.2075 6.875 9 6.875C8.7925 6.875 8.625 7.0425 8.625 7.25V12.125C8.625 12.8825 9.2425 13.5 10 13.5C10.7575 13.5 11.375 12.8825 11.375 12.125V6.75C11.375 5.5775 10.4225 4.625 9.25 4.625C8.0775 4.625 7.125 5.5775 7.125 6.75V12.5C7.125 14.085 8.415 15.375 10 15.375C11.585 15.375 12.875 14.085 12.875 12.5Z" fill="white"/>
<defs>
<linearGradient id="paint0_linear_1494_13288" x1="0" y1="10" x2="20" y2="10" gradientUnits="userSpaceOnUse">
<stop stop-color="#00C96D"/>
<stop offset="1" stop-color="#048AD7"/>
</linearGradient>
</defs>
</svg>
