<svg width="15" height="12" viewBox="0 0 15 12" fill="none" xmlns="http://www.w3.org/2000/svg">
<path d="M1.13636 5.2002H13.8636C14.0324 5.2002 14.1943 5.28214 14.3136 5.428C14.433 5.57386 14.5 5.77169 14.5 5.97797C14.5 6.18425 14.433 6.38208 14.3136 6.52795C14.1943 6.67381 14.0324 6.75575 13.8636 6.75575H1.13636C0.967589 6.75575 0.805728 6.67381 0.686387 6.52795C0.567045 6.38208 0.5 6.18425 0.5 5.97797C0.5 5.77169 0.567045 5.57386 0.686387 5.428C0.805728 5.28214 0.967589 5.2002 1.13636 5.2002Z" fill="white"/>
<path d="M1.69536 5.94444L5.79934 10.4584C5.89225 10.5606 5.94444 10.6993 5.94444 10.8438C5.94444 10.9884 5.89225 11.127 5.79934 11.2292C5.70642 11.3315 5.58041 11.3889 5.44901 11.3889C5.31761 11.3889 5.19159 11.3315 5.09868 11.2292L0.64537 6.32986C0.59929 6.2793 0.56273 6.21922 0.537785 6.15309C0.51284 6.08695 0.5 6.01605 0.5 5.94444C0.5 5.87284 0.51284 5.80194 0.537785 5.7358C0.56273 5.66967 0.59929 5.60959 0.64537 5.55903L5.09868 0.659645C5.19159 0.557426 5.31761 0.5 5.44901 0.5C5.58041 0.5 5.70642 0.557426 5.79934 0.659645C5.89225 0.761864 5.94444 0.900504 5.94444 1.04506C5.94444 1.18962 5.89225 1.32826 5.79934 1.43048L1.69536 5.94444Z" fill="white" stroke="white" stroke-width="0.6"/>
</svg>
