<svg width="24" height="24" viewBox="0 0 24 24" fill="none" xmlns="http://www.w3.org/2000/svg">
<path d="M4.96365 11.54H20.2364C20.2702 11.54 20.3286 11.5557 20.3894 11.63C20.4524 11.7071 20.5 11.8296 20.5 11.9734C20.5 12.1171 20.4524 12.2396 20.3894 12.3167C20.3286 12.391 20.2702 12.4067 20.2364 12.4067H4.96365C4.92981 12.4067 4.87143 12.391 4.81065 12.3167C4.74759 12.2396 4.70001 12.1171 4.70001 11.9734C4.70001 11.8296 4.74759 11.7071 4.81065 11.63C4.87143 11.5557 4.92982 11.54 4.96365 11.54Z" fill="#4F565E" stroke="#4F565E"/>
<path d="M5.63445 11.9332L10.5592 17.35C10.6707 17.4727 10.7333 17.639 10.7333 17.8125C10.7333 17.986 10.6707 18.1523 10.5592 18.275C10.4477 18.3977 10.2965 18.4666 10.1388 18.4666C9.98114 18.4666 9.82992 18.3977 9.71843 18.275L4.37446 12.3957C4.31916 12.3351 4.27529 12.263 4.24535 12.1836C4.21542 12.1042 4.20001 12.0192 4.20001 11.9332C4.20001 11.8473 4.21542 11.7622 4.24535 11.6829C4.27529 11.6035 4.31916 11.5314 4.37446 11.4707L9.71843 5.59148C9.82992 5.46881 9.98114 5.3999 10.1388 5.3999C10.2965 5.3999 10.4477 5.46881 10.5592 5.59148C10.6707 5.71414 10.7333 5.88051 10.7333 6.05398C10.7333 6.22745 10.6707 6.39382 10.5592 6.51648L5.63445 11.9332Z" fill="#4F565E" stroke="#4F565E" stroke-width="0.6"/>
</svg>
