<svg width="20" height="20" viewBox="0 0 20 20" fill="none" xmlns="http://www.w3.org/2000/svg">
<path d="M5.00117 15.6332L4.99885 15.6332C4.9155 15.6336 4.83288 15.6177 4.75571 15.5862C4.67865 15.5547 4.60854 15.5083 4.54941 15.4497C4.54934 15.4496 4.54926 15.4496 4.54919 15.4495L1.21737 12.1177C1.21723 12.1175 1.21708 12.1174 1.21694 12.1173C1.1293 12.0283 1.06992 11.9153 1.04629 11.7927C1.02262 11.6698 1.03587 11.5427 1.08437 11.4274L1.08438 11.4274L1.08501 11.4258C1.13252 11.3102 1.21321 11.2112 1.3169 11.1413C1.42046 11.0715 1.54235 11.0339 1.66723 11.0332H18.3333C18.5013 11.0332 18.6624 11.0999 18.7812 11.2187C18.9 11.3374 18.9667 11.4985 18.9667 11.6665C18.9667 11.8345 18.9 11.9956 18.7812 12.1143C18.6624 12.2331 18.5013 12.2998 18.3333 12.2998H3.67501H3.19068L3.5339 12.6416L5.45056 14.5499L5.45084 14.5502C5.5102 14.609 5.55731 14.6791 5.58947 14.7563C5.62162 14.8334 5.63818 14.9162 5.63818 14.9998C5.63818 15.0834 5.62162 15.1662 5.58947 15.2434C5.55731 15.3206 5.5102 15.3906 5.45084 15.4495L5.59168 15.5915L5.45083 15.4495C5.39165 15.5082 5.32147 15.5546 5.24431 15.5862C5.16714 15.6177 5.08452 15.6336 5.00117 15.6332ZM16.4661 7.3581L14.5498 5.45007C14.5497 5.45002 14.5497 5.44997 14.5496 5.44992C14.4303 5.33052 14.3633 5.16863 14.3633 4.99983C14.3633 4.83095 14.4304 4.669 14.5498 4.54958C14.6692 4.43017 14.8311 4.36309 15 4.36309C15.1689 4.36309 15.3308 4.43017 15.4503 4.54958L18.7826 7.88197C18.7828 7.88215 18.783 7.88232 18.7832 7.8825C18.8708 7.97148 18.9301 8.08437 18.9537 8.20699C18.9774 8.32985 18.9641 8.45697 18.9156 8.5723L18.915 8.57383C18.8675 8.68949 18.7868 8.7885 18.6831 8.85837C18.5796 8.92817 18.4577 8.96579 18.3328 8.9665H1.66668C1.49871 8.9665 1.33762 8.89977 1.21884 8.781C1.10007 8.66222 1.03334 8.50113 1.03334 8.33316C1.03334 8.16519 1.10007 8.0041 1.21884 7.88533C1.33762 7.76656 1.49871 7.69983 1.66668 7.69983H16.325H16.8093L16.4661 7.3581Z" fill="white" stroke="#292F3B" stroke-width="0.4"/>
</svg>
