<svg width="18" height="18" viewBox="0 0 18 18" fill="none" xmlns="http://www.w3.org/2000/svg">
<path d="M16.6433 8.06198L15.3809 3.854C15.093 2.89435 14.2267 2.25 13.2253 2.25H12.375V1.125C12.375 0.503655 11.8713 0 11.25 0H6.75C6.12865 0 5.625 0.503655 5.625 1.125V2.25H4.77466C3.77325 2.25 2.90698 2.89435 2.61913 3.854L1.35674 8.06198C0.559612 8.40839 0 9.20167 0 10.125V14.625C0 15.2463 0.503723 15.75 1.125 15.75V16.8749C1.125 17.4963 1.62865 18 2.25 18H3.37507C3.99634 18 4.50007 17.4963 4.50007 16.875L4.49959 15.75H13.5L13.4999 16.8749C13.4999 17.4963 14.0036 18 14.6249 18H15.75C16.3713 18 16.875 17.4963 16.875 16.875V15.7501C17.4963 15.7501 18 15.2463 18 14.625V10.125C18 9.20167 17.4404 8.40839 16.6433 8.06198ZM4.77462 4.5H13.2253L14.2378 7.875H3.76209L4.77462 4.5ZM4.49996 12.9375C3.87862 12.9375 3.37496 12.4338 3.37496 11.8125C3.37496 11.1912 3.87862 10.6875 4.49996 10.6875C5.12131 10.6875 5.62496 11.1912 5.62496 11.8125C5.62496 12.4338 5.12131 12.9375 4.49996 12.9375ZM13.5 12.9375C12.8786 12.9375 12.375 12.4338 12.375 11.8125C12.375 11.1912 12.8786 10.6875 13.5 10.6875C14.1213 10.6875 14.625 11.1912 14.625 11.8125C14.625 12.4338 14.1213 12.9375 13.5 12.9375Z" fill="#4F565E"/>
</svg>
