<svg width="16" height="16" viewBox="0 0 16 16" fill="none" xmlns="http://www.w3.org/2000/svg">
<g clip-path="url(#clip0_3353_9046)">
<path d="M16 4.57161C16 3.94041 15.4883 3.42875 14.8571 3.42875H12V2.85734C12 1.91202 11.231 1.14307 10.2857 1.14307H6.28573C5.34041 1.14307 4.57145 1.91202 4.57145 2.85734V3.42875H1.14286C0.511659 3.42875 0 3.94041 0 4.57161V9.14303H1.14286V13.7144C1.14286 14.3456 1.65452 14.8573 2.28573 14.8573H13.7143C14.3455 14.8573 14.8571 14.3456 14.8571 13.7144V9.14307H16V4.57161ZM5.71427 2.85734C5.71427 2.54204 5.97043 2.28593 6.28569 2.28593H10.2857C10.601 2.28593 10.8571 2.54208 10.8571 2.85734V3.42875H5.71427V2.85734ZM9.14286 10.2859H6.85714V9.14303H9.14286V10.2859Z" fill="#4F565E"/>
</g>
<defs>
<clipPath id="clip0_3353_9046">
<rect width="16" height="16" fill="white"/>
</clipPath>
</defs>
</svg>
