<svg width="335" height="335" viewBox="0 0 335 335" fill="none" xmlns="http://www.w3.org/2000/svg">
<path d="M79.2626 278.003C80.1336 279.678 81.0649 281.32 82.0699 282.934C110.88 329.057 220.15 359.984 234.883 286.13C239.996 260.636 251.125 236.733 267.345 216.41C280.745 199.7 297.575 185.369 307.016 166.16C316.55 146.764 317.448 123.468 310.178 103.12C297.85 68.6081 264.511 45.5601 229.885 33.5805C177.391 15.4905 115.751 19.1621 70.4856 51.3355C40.1145 72.9229 17.8906 109.411 22.6409 146.375C27.0026 180.23 52.007 207.446 64.6432 239.19C69.7687 252.021 72.9177 265.789 79.2626 278.003Z" fill="#F3F8FA"/>
<path opacity="0.8" d="M79.2626 278.003C80.1336 279.678 81.0649 281.32 82.0699 282.934C110.88 329.057 220.15 359.984 234.883 286.13C239.996 260.636 251.125 236.733 267.345 216.41C280.745 199.7 297.575 185.369 307.016 166.16C316.55 146.764 317.448 123.468 310.178 103.12C297.85 68.6081 264.511 45.5601 229.885 33.5805C177.391 15.4905 115.751 19.1621 70.4856 51.3355C40.1145 72.9229 17.8906 109.411 22.6409 146.375C27.0026 180.23 52.007 207.446 64.6432 239.19C69.7687 252.021 72.9177 265.789 79.2626 278.003Z" fill="#F3F8FA"/>
<g opacity="0.2">
<path d="M60.6818 68.132C60.6818 68.132 58.7321 72.0381 56.0521 69.5993C53.3721 67.1605 46.786 62.3097 42.6387 63.9914C38.4914 65.6731 37.0308 71.3078 38.9805 73.0297C40.9302 74.7516 41.4193 76.6879 38.2502 79.1267C35.0811 81.5655 36.5417 84.7346 39.2284 85.4649C41.9151 86.1952 43.8581 84.9825 43.6169 86.6843C43.3757 88.3861 43.6169 89.3643 39.4696 91.3207C35.3223 93.2771 35.5702 94.9789 40.9302 93.2704C46.2902 91.5619 47.0272 87.6625 49.466 84.9825C51.9048 82.3025 62.3903 87.6625 65.3182 93.2704C68.2461 98.8783 67.9982 104.486 67.9982 108.875C67.9982 113.263 73.6061 113.752 74.8255 117.658C76.0449 121.564 78.2425 125.216 78.7249 124.238C79.2073 123.26 78.4837 122.047 78.4837 120.827C78.4837 119.608 82.1419 123.507 82.631 126.187C83.1201 128.867 87.2607 132.043 89.4583 132.043C91.6559 132.043 94.8183 133.015 96.2856 134.482C97.7529 135.949 101.17 139.36 102.383 139.36C103.595 139.36 103.602 138.623 104.332 139.36C105.063 140.097 105.063 142.281 104.573 144.478C104.084 146.676 102.135 147.406 104.821 151.795C107.508 156.183 111.401 158.374 111.401 162.515C111.401 166.655 107.26 181.777 107.26 186.166C107.26 190.554 111.16 195.68 112.62 195.191C114.081 194.702 112.868 192.263 112.868 190.072C112.868 187.881 115.307 186.166 115.307 184.216C115.307 182.266 117.009 180.069 118.476 178.608C119.943 177.148 122.375 176.169 123.836 173.731C125.297 171.292 127.742 169.101 128.714 167.392C129.763 165.628 130.903 163.919 132.131 162.274C134.321 159.105 134.321 156.666 135.541 154.468C136.76 152.271 137.008 147.882 134.08 146.911C131.152 145.939 127.005 144.472 126.04 143.011C125.075 141.551 119.702 139.105 118.724 138.864C117.746 138.623 116.285 136.666 114.335 136.425C113.044 136.24 111.74 136.157 110.436 136.177C109.217 136.177 106.047 137.155 106.047 137.155H102.872L100.192 135.206C100.192 135.206 101.17 132.037 99.2202 131.547C98.2649 131.279 97.2831 131.115 96.2923 131.058C96.2923 131.058 97.7529 128.13 96.2923 127.889C94.8317 127.648 92.145 129.598 91.4147 129.598C90.6844 129.598 88.2456 125.45 89.465 123.501C90.6844 121.551 91.6559 119.843 94.0947 119.353C96.5335 118.864 98.7311 116.915 100.192 119.353C101.652 121.792 105.069 126.181 105.069 123.501C105.069 120.821 103.361 119.353 103.609 117.652C103.857 115.95 107.019 116.673 107.019 113.256C107.019 109.839 108.238 107.896 109.699 107.166C111.16 106.436 115.314 106.918 115.059 103.508C114.804 100.098 112.868 103.26 111.401 102.041C109.933 100.821 112.868 97.9001 115.789 97.9001C118.71 97.9001 121.149 97.1631 120.426 94.7243C119.702 92.2855 116.526 90.8249 115.066 87.6558C113.605 84.4867 112.138 87.897 110.436 86.1952C108.734 84.4934 105.8 82.2891 105.558 85.4582C105.317 88.6273 107.019 92.5334 106.289 94.4831C105.558 96.4328 102.141 98.3825 101.17 96.1916C100.198 94.0007 101.17 93.0225 98.4899 91.314C95.8099 89.6055 92.882 88.1449 92.6408 84.9758C92.3996 81.8067 94.3493 79.6158 96.7881 77.6594C99.2269 75.703 102.396 74.0012 102.148 70.8321C101.9 67.663 99.9572 66.4436 99.4681 68.8824C98.979 71.3212 96.299 71.3212 95.3208 69.3648C94.3426 67.4084 92.1517 66.4436 92.1517 68.1454C92.1517 69.8472 91.6626 71.5624 89.7129 71.5624C87.7632 71.5624 84.8353 69.8539 83.6159 70.1018C82.3965 70.3497 81.9141 71.5624 80.4468 71.5624C78.9795 71.5624 76.5474 72.0515 76.0583 70.343C75.5692 68.6345 72.4001 68.1454 70.2092 67.663C68.0183 67.1806 64.8492 66.6848 64.1122 66.9327C63.3752 67.1806 61.9012 68.132 60.6818 68.132Z" fill="#048AD7"/>
<path d="M111.89 128.854C111.89 128.854 110.671 128.854 106.771 126.898C102.872 124.941 99.696 125.685 101.646 126.657C103.595 127.628 107.26 129.095 107.26 129.095C107.26 129.095 103.113 128.854 106.771 130.074C110.429 131.293 115.307 130.315 111.89 128.854Z" fill="#048AD7"/>
<path d="M159.929 116.171C159.929 116.171 158.71 120.56 157.979 121.531C157.249 122.503 154.321 123.97 153.584 126.65C152.847 129.33 153.584 133.236 155.051 135.675C156.519 138.114 157.731 138.355 161.148 139.333C164.565 140.311 169.678 139.333 171.634 139.574C173.59 139.816 170.897 143.722 170.897 144.934C170.897 146.147 175.775 148.593 176.022 150.783C176.27 152.974 174.073 157.611 176.022 160.539C177.972 163.467 178.702 165.416 178.702 167.125C178.702 168.833 177.972 171.513 182.85 172.244C187.727 172.974 191.138 170.776 191.868 167.607C192.598 164.438 192.598 161.269 194.796 160.05C196.993 158.83 198.213 155.902 197.724 153.222C197.235 150.542 196.746 146.636 198.695 145.182C200.645 143.728 204.551 141.035 204.792 138.355C205.033 135.675 202.843 138.114 199.673 135.675C196.504 133.236 193.087 125.96 192.357 123.95C191.627 121.94 191.627 120.292 194.307 123.95C196.987 127.608 197.724 134.918 201.864 134.918C206.005 134.918 211.867 129.799 212.109 127.36C212.35 124.921 209.67 126.389 206.749 124.191C203.827 121.994 201.871 116.634 205.529 118.094C209.187 119.555 214.065 124.439 216.015 124.439C217.964 124.439 223.82 122.241 224.055 126.141C224.289 130.04 222.835 136.385 226.252 136.626C229.669 136.868 228.691 132.727 229.663 131.266C230.634 129.806 236.008 125.411 237.227 126.389C238.446 127.367 237.709 131.266 240.885 131.508C244.061 131.749 245.274 132.486 244.295 133.705C243.317 134.925 243.076 139.065 244.295 138.576C245.515 138.087 244.054 133.946 246.245 135.166C248.436 136.385 251.853 133.946 251.853 132.727C251.853 131.508 247.712 130.047 248.932 127.849C250.151 125.652 254.051 125.169 256.731 124.921C259.411 124.674 261.849 120.533 260.63 118.094C259.411 115.655 258.439 113.954 259.9 113.464C261.36 112.975 258.928 111.515 258.928 110.784C258.928 110.054 261.119 108.104 262.586 109.572C264.054 111.039 263.317 112.982 264.536 114.443C265.756 115.903 267.216 115.662 267.216 113.712C267.121 111.988 266.877 110.275 266.486 108.594C266.486 108.594 268.677 106.644 269.896 106.885C271.116 107.126 274.533 102.738 275.504 99.5686C276.476 96.3995 275.752 94.4498 274.291 94.4498C272.831 94.4498 270.385 91.0395 273.072 89.0898C275.759 87.1401 279.899 85.6795 281.849 86.4098C283.799 87.1401 285.259 86.1686 286.479 84.2189C287.698 82.2692 290.626 82.2625 292.087 82.2625C293.547 82.2625 295.014 78.6043 295.256 80.5607C295.497 82.5171 290.137 86.651 289.165 89.3377C288.194 92.0244 287.209 96.165 289.407 96.4062C291.604 96.6474 292.576 92.5068 293.065 90.5571C293.554 88.6074 293.795 85.1971 295.256 84.9492C296.716 84.7013 297.453 85.6795 299.651 83.971C301.848 82.2625 304.77 82.0213 305.259 79.5825C305.748 77.1437 306.719 71.777 304.039 69.097C301.359 66.417 299.651 68.1188 296.723 69.097C293.795 70.0752 290.385 64.4673 290.385 64.4673C288.529 64.1556 286.652 63.992 284.77 63.9782C281.849 63.9782 280.63 60.5612 278.68 60.32C276.73 60.0788 276.971 63.2479 275.022 63.9782C273.072 64.7085 272.583 64.2194 271.116 64.2194C269.648 64.2194 268.194 64.7085 267.705 63.2479C267.216 61.7873 265.997 59.3418 264.288 59.1006C262.58 58.8594 260.63 59.8309 259.659 59.8309C258.687 59.8309 255.27 58.6115 254.299 58.6115C253.327 58.6115 249.669 59.3418 249.669 59.3418C249.669 59.3418 255.029 51.7842 254.057 49.8345C253.086 47.8848 249.18 47.3957 246.982 48.126C244.785 48.8563 242.594 48.6151 241.133 49.5933C239.672 50.5715 235.525 51.2951 234.306 53.2448C233.086 55.1945 233.328 55.9248 231.626 57.1509C229.924 58.377 229.917 60.32 230.158 62.2697C230.4 64.2194 227.968 60.0721 226.259 61.2915C224.551 62.5109 223.579 63.2479 224.061 64.9497C224.544 66.6515 226.5 68.6079 226.011 70.3097C225.522 72.0115 221.871 73.4788 221.871 71.04C221.871 68.6012 223.82 59.0939 221.14 59.3351C218.46 59.5763 217.723 62.9933 218.46 65.4321C219.197 67.8709 219.68 68.8491 218.219 68.8491C216.758 68.8491 214.802 65.68 213.341 67.3818C211.881 69.0836 207.734 69.3315 205.784 69.5794C203.834 69.8273 200.906 72.9897 199.446 74.2091C197.985 75.4285 197.489 77.3782 194.809 77.6261C192.129 77.874 190.421 72.5073 191.64 72.5073C192.86 72.5073 197.248 74.9461 197.248 72.0182C197.248 69.0903 190.421 66.1624 187.004 65.68C183.587 65.1976 178.227 66.6515 177.255 69.8206C176.284 72.9897 176.766 77.6261 173.597 80.7952C170.428 83.9643 168.472 87.6225 170.917 87.6225C173.363 87.6225 174.823 83.9643 175.064 86.8922C175.306 89.8201 178.233 89.5722 178.964 88.1116C179.694 86.651 179.701 83.7231 179.701 81.0364C179.701 78.3497 184.089 73.4788 184.82 75.6764C185.55 77.874 182.381 81.2843 182.381 83.4752C182.381 85.6661 186.039 83.9643 187.989 83.9643C189.938 83.9643 191.406 85.4249 188.23 85.914C185.054 86.4031 184.82 86.4031 184.089 88.594C183.359 90.7849 184.33 92.2522 181.409 92.9825C178.488 93.7128 171.413 92.4934 169.952 95.1734C168.492 97.8534 167.755 99.3207 166.294 99.8098C164.833 100.299 161.906 100.051 162.395 102.249C162.884 104.446 164.344 103.22 163.614 105.418C162.884 107.615 160.438 104.198 159.467 105.907C158.495 107.615 160.927 115.414 163.125 113.217C164.607 111.58 165.764 109.677 166.535 107.609C166.535 107.609 168.733 107.367 169.215 106.389C169.698 105.411 172.873 103.22 173.845 106.389C174.816 109.558 176.284 108.828 176.284 110.295C176.284 111.763 173.845 113.464 176.043 112.486C178.24 111.508 179.453 111.756 178.723 108.828C177.992 105.9 175.312 102.49 176.773 103.22C178.233 103.95 179.942 106.389 180.672 108.098C181.403 109.806 185.061 114.684 185.55 112.734C186.039 110.784 185.061 107.374 185.791 107.374C186.521 107.374 187.989 105.424 188.471 103.475C188.953 101.525 195.05 103.716 196.27 105.424C197.489 107.133 195.05 108.835 192.37 108.835C189.69 108.835 186.273 110.784 188.471 112.493C190.669 114.201 194.079 110.543 194.568 113.223C195.057 115.903 193.831 118.349 191.888 118.349C189.945 118.349 187.5 117.371 185.791 117.371C184.083 117.371 183.841 119.809 180.672 119.079C177.503 118.349 176.773 115.421 174.334 113.719C171.895 112.017 169.698 113.23 167.748 113.967C165.798 114.704 161.148 114.222 159.929 116.171Z" fill="#048AD7"/>
<path d="M219.666 47.168C219.666 47.168 218.42 50.0892 216.497 51.59C214.574 53.0908 209.428 57.687 209.428 60.367C209.428 63.047 211.619 65.4858 208.209 64.5143C204.799 63.5428 208.939 53.7943 211.378 51.3421C213.817 48.8899 213.817 50.1227 215.767 48.9033C217.716 47.6839 219.425 45.2116 219.666 47.168Z" fill="#048AD7"/>
<path d="M314.583 197.744C314.583 197.744 313.337 200.665 311.414 202.166C309.491 203.666 304.345 208.263 304.345 210.943C304.345 213.623 306.536 216.061 303.126 215.09C299.716 214.118 303.856 204.37 306.295 201.918C308.734 199.466 308.734 200.698 310.684 199.479C312.633 198.26 314.342 195.787 314.583 197.744Z" fill="#048AD7"/>
<path d="M286.583 180.744C286.583 180.744 285.337 183.665 283.414 185.166C281.491 186.666 276.345 191.263 276.345 193.943C276.345 196.623 278.536 199.061 275.126 198.09C271.716 197.118 275.856 187.37 278.295 184.918C280.734 182.466 280.734 183.698 282.684 182.479C284.633 181.26 286.342 178.787 286.583 180.744Z" fill="#048AD7"/>
<path d="M256.489 140.559C256.489 140.559 253.562 140.559 252.583 142.998C251.605 145.437 255.511 147.628 256.731 145.919C257.95 144.211 257.461 142.02 257.95 140.801C258.439 139.581 257.95 139.092 256.489 140.559Z" fill="#048AD7"/>
<path d="M247.953 145.189C247.953 145.189 246.245 136.164 245.515 138.851C245.066 140.361 245.066 141.97 245.515 143.48C245.515 143.48 238.928 138.12 239.665 141.289C240.402 144.459 245.515 146.408 247.953 148.358C250.392 150.308 250.633 150.066 254.05 151.286C257.467 152.505 259.658 150.556 256.978 150.066C254.298 149.577 249.903 147.139 248.938 146.649C248.658 146.517 248.418 146.312 248.245 146.055C248.072 145.798 247.971 145.498 247.953 145.189Z" fill="#048AD7"/>
<path d="M204.303 155.185C204.303 155.185 203.083 154.944 201.382 156.653C199.68 158.361 201.134 159.333 200.645 161.523C200.156 163.714 200.645 166.16 202.601 164.699C204.557 163.239 206.5 158.113 206.5 156.163C206.5 154.214 206.011 152.505 204.303 155.185Z" fill="#048AD7"/>
<path d="M185.04 35.4629C185.04 35.4629 185.288 36.4344 182.119 35.7041C178.95 34.9738 177.972 36.9235 177.242 37.1647C176.511 37.4059 172.853 34.9738 173.094 37.9017C173.336 40.8296 176.505 44.729 177.724 42.5314C178.944 40.3338 177.972 42.5314 176.505 44.729C175.037 46.9266 178.213 49.8478 179.68 47.8981C181.148 45.9484 181.141 39.3623 181.871 41.5599C182.602 43.7575 183.821 47.6502 185.288 45.9484C186.756 44.2466 182.85 39.6035 182.85 38.1429C182.85 36.6823 183.58 39.1211 185.53 37.6538C187.479 36.1865 187.238 35.215 185.04 35.4629Z" fill="#048AD7"/>
<path d="M279.957 186.039C279.957 186.039 280.205 187.01 277.036 186.28C273.867 185.549 272.889 187.499 272.159 187.74C271.428 187.982 267.77 185.549 268.011 188.477C268.253 191.405 271.422 195.305 272.641 193.107C273.861 190.909 272.889 193.107 271.422 195.305C269.954 197.502 273.13 200.423 274.597 198.474C276.065 196.524 276.058 189.938 276.788 192.136C277.519 194.333 278.738 198.226 280.205 196.524C281.673 194.822 277.767 190.179 277.767 188.719C277.767 187.258 278.497 189.697 280.447 188.229C282.396 186.762 282.155 185.791 279.957 186.039Z" fill="#048AD7"/>
<path d="M128.714 25.4599C127.521 25.6944 122.617 22.0429 119.937 24.4817C117.257 26.9205 117.009 28.3811 115.548 31.7981C114.087 35.2151 115.548 37.406 115.059 38.1363C114.57 38.8666 115.307 37.6472 112.379 39.5969C109.451 41.5466 108.962 40.8163 110.67 43.503C112.379 46.1897 109.94 46.183 112.62 48.6218C115.3 51.0606 116.278 46.6721 119.206 49.6C122.134 52.5279 120.667 56.1794 122.617 63.4958C124.566 70.8122 125.544 82.5171 127.005 84.4668C128.466 86.4165 130.911 86.9056 132.131 83.7365C133.35 80.5674 135.541 74.9595 139.199 73.0165C142.857 71.0735 147.976 68.628 147.976 65.948C147.976 63.268 146.06 62.0419 146.73 60.0855C147.4 58.1291 149.169 59.6031 149.169 56.434V49.8479C149.169 47.1679 148.686 40.823 149.169 40.0927C149.651 39.3624 151.42 36.1799 151.42 35.463C151.42 34.7461 153.128 32.5351 153.611 31.8048C154.157 30.8293 154.49 29.7493 154.589 28.6357C154.589 27.8987 155.808 26.1969 153.611 27.1684C151.413 28.1399 151.42 30.3375 149.711 31.5569C148.003 32.7763 145.812 33.5133 145.812 31.0745C145.812 28.6357 148.251 25.7145 145.812 25.4666C144.077 25.3775 142.341 25.6255 140.7 26.1969C140.7 26.1969 143.132 24.9775 143.869 24.4884C144.606 23.9993 147.038 23.7581 147.768 23.0278C148.499 22.2975 148.74 20.589 148.74 20.589C148.158 19.9055 147.397 19.3974 146.542 19.1217C145.082 18.6326 145.082 16.9308 143.614 16.4417C142.147 15.9526 137.765 15.7114 137.765 15.7114C137.765 15.7114 133.129 17.172 132.157 17.6611C131.233 18.1797 130.338 18.7501 129.477 19.3696C129.477 19.3696 128.747 21.8084 129.477 22.7799C130.208 23.7514 131.152 24.9775 128.714 25.4599Z" fill="#048AD7"/>
<path d="M48.2127 147.748C49.4053 147.983 54.3097 144.331 56.9897 146.77C59.6697 149.209 59.9176 150.67 61.3782 154.087C62.8388 157.504 61.3782 159.695 61.8673 160.425C62.3564 161.155 61.6194 159.936 64.5473 161.885C67.4752 163.835 67.9643 163.105 66.2558 165.792C64.5473 168.478 66.9861 168.472 64.3061 170.91C61.6261 173.349 60.6479 168.961 57.72 171.889C54.7921 174.816 56.2594 178.468 54.3097 185.784C52.36 193.101 51.3818 204.806 49.9212 206.755C48.4606 208.705 46.0151 209.194 44.7957 206.025C43.5763 202.856 41.3854 197.248 37.7272 195.305C34.069 193.362 28.9502 190.917 28.9502 188.237C28.9502 185.557 30.8664 184.33 30.1964 182.374C29.5264 180.418 27.7576 181.892 27.7576 178.723V172.136C27.7576 169.456 28.24 163.112 27.7576 162.381C27.2752 161.651 25.5064 158.468 25.5064 157.752C25.5064 157.035 23.7979 154.824 23.3155 154.093C22.7696 153.118 22.4363 152.038 22.3373 150.924C22.3373 150.187 21.1179 148.485 23.3155 149.457C25.5131 150.428 25.5064 152.626 27.2149 153.845C28.9234 155.065 31.1143 155.802 31.1143 153.363C31.1143 150.924 28.6755 148.003 31.1143 147.755C32.8495 147.666 34.5856 147.914 36.2264 148.485C36.2264 148.485 33.7943 147.266 33.0573 146.777C32.3203 146.288 29.8882 146.047 29.1579 145.316C28.4276 144.586 28.1864 142.878 28.1864 142.878C28.7686 142.194 29.5295 141.686 30.384 141.41C31.8446 140.921 31.8446 139.219 33.3119 138.73C34.7792 138.241 39.161 138 39.161 138C39.161 138 43.7974 139.461 44.7689 139.95C45.6937 140.468 46.5885 141.039 47.4489 141.658C47.4489 141.658 48.1792 144.097 47.4489 145.068C46.7186 146.04 45.7739 147.266 48.2127 147.748Z" fill="#048AD7"/>
<path d="M113.35 27.4164C113.35 27.4164 112.131 30.0964 111.401 31.8049C110.564 33.663 109.588 35.4548 108.48 37.1649C107.26 39.1213 106.523 40.0928 106.523 40.8231C106.523 41.5534 107.743 43.0207 105.793 44.7292C104.352 45.9248 102.805 46.9856 101.17 47.8983C101.17 47.8983 100.44 50.0892 98.4899 49.3589C96.5402 48.6286 97.7596 44.9704 98.4899 43.751C99.2202 42.5316 98.4899 39.1213 97.0293 39.8516C95.5687 40.5819 94.5905 42.0425 93.1299 40.0928C91.6693 38.1431 91.1802 34.2437 91.1802 32.294C91.1802 30.3443 91.1802 27.6576 92.6408 28.6358C94.1014 29.614 98.7378 32.5352 99.4681 32.0461C100.198 31.557 98.4899 29.6073 97.505 28.14C96.5201 26.6727 94.3359 24.9709 97.0159 23.5036C99.6959 22.0363 102.624 21.8018 104.573 20.5824C106.523 19.363 107.743 18.3848 110.181 19.1151C112.62 19.8454 114.818 19.1151 115.541 21.0648C115.999 22.4008 116.246 23.8001 116.272 25.2121L113.35 27.4164Z" fill="#048AD7"/>
<path d="M99.4549 51.59C99.4549 51.59 99.2137 51.59 96.527 50.1227C93.8403 48.6554 92.3864 43.2954 91.6494 46.4645C90.9124 49.6336 94.5773 53.2918 96.2858 54.27C97.9943 55.2482 105.063 55.2482 104.085 52.5615C103.106 49.8748 99.4549 51.59 99.4549 51.59Z" fill="#048AD7"/>
<path d="M109.21 62.7723C107.991 62.2832 104.574 60.8226 102.865 59.3553C101.157 57.888 98.2354 55.4559 97.016 57.4056C95.7966 59.3553 96.5269 65.2111 98.4766 66.4305C100.426 67.6499 103.354 64.9632 105.063 67.402C106.771 69.8408 108.962 72.2796 108.48 73.9881C107.997 75.6966 107.012 77.1572 108.962 79.596C110.912 82.0348 113.598 82.276 113.598 79.1069C113.598 75.9378 111.16 73.9881 113.109 73.7469C115.059 73.5057 117.009 75.9378 116.037 72.5275C115.066 69.1172 113.598 67.8911 112.868 66.6717C112.138 65.4523 109.21 62.7723 109.21 62.7723Z" fill="#048AD7"/>
<path d="M86.7715 66.9196C86.7715 66.9196 84.3327 66.1826 84.3327 63.0135C84.3327 59.8444 81.9006 55.945 81.1636 58.1359C80.4266 60.3268 78.7248 61.0638 76.7751 59.3553C74.8254 57.6468 72.8757 53.9953 70.926 55.6971C68.9763 57.3989 63.1205 61.0571 67.9981 62.7723C72.8757 64.4875 74.5842 61.0638 75.0733 61.7941C75.5624 62.5244 74.5842 62.2832 75.0733 65.2111C75.3104 66.4549 75.9771 67.5758 76.9569 68.378C77.9366 69.1802 79.1671 69.6125 80.4333 69.5996C82.6309 69.5996 83.1133 67.1608 84.0915 68.1323C85.0697 69.1038 87.7698 70.35 86.7715 66.9196Z" fill="#048AD7"/>
</g>
<path d="M220.601 88.6841C219.316 88.6841 218.083 89.1942 217.174 90.1025C216.264 91.0107 215.752 92.2428 215.75 93.5282C215.75 96.2082 220.601 101.025 220.601 101.025C220.601 101.025 225.445 96.2082 225.445 93.5282C225.445 92.2435 224.935 91.0113 224.027 90.1029C223.118 89.1944 221.886 88.6841 220.601 88.6841ZM220.601 95.3171C220.247 95.3184 219.901 95.2146 219.606 95.0189C219.311 94.8231 219.08 94.5442 218.944 94.2174C218.807 93.8907 218.771 93.5308 218.839 93.1833C218.908 92.8359 219.077 92.5165 219.327 92.2656C219.577 92.0148 219.896 91.8437 220.243 91.7742C220.59 91.7046 220.95 91.7396 221.278 91.8748C221.605 92.01 221.885 92.2393 222.082 92.5336C222.278 92.828 222.383 93.1741 222.383 93.5282C222.384 93.7628 222.339 93.9953 222.25 94.2123C222.161 94.4293 222.029 94.6265 221.864 94.7927C221.698 94.9589 221.502 95.0908 221.285 95.1808C221.068 95.2708 220.836 95.3171 220.601 95.3171Z" fill="#048AD7"/>
<path d="M96.9193 93.8901C95.6339 93.8919 94.4018 94.4038 93.4936 95.3133C92.5853 96.2228 92.0752 97.4556 92.0752 98.7409C92.0752 101.421 96.9193 106.238 96.9193 106.238C96.9193 106.238 101.77 101.414 101.77 98.7409C101.77 97.4544 101.259 96.2206 100.349 95.3109C99.4396 94.4012 98.2058 93.8901 96.9193 93.8901ZM96.9193 100.523C96.5652 100.523 96.2191 100.418 95.9247 100.221C95.6304 100.024 95.4011 99.7445 95.2659 99.4173C95.1307 99.09 95.0957 98.73 95.1653 98.3828C95.2348 98.0356 95.4059 97.7168 95.6567 97.4669C95.9076 97.217 96.227 97.0472 96.5744 96.9789C96.9219 96.9106 97.2818 96.947 97.6085 97.0834C97.9353 97.2199 98.2142 97.4502 98.41 97.7453C98.6057 98.0403 98.7095 98.3868 98.7082 98.7409C98.7118 98.9778 98.6681 99.213 98.5797 99.4327C98.4913 99.6525 98.36 99.8525 98.1934 100.021C98.0269 100.189 97.8284 100.323 97.6096 100.414C97.3909 100.505 97.1562 100.551 96.9193 100.55V100.523Z" fill="#00C96D"/>
<path d="M101.154 104.865C101.154 104.865 101.529 104.59 102.253 104.101" stroke="#263238" stroke-miterlimit="10"/>
<path d="M104.47 102.654C117.12 94.8281 163.738 70.3999 215.275 99.2099" stroke="#263238" stroke-miterlimit="10" stroke-dasharray="3.99 3.99"/>
<path d="M216.447 99.8799L217.606 100.55" stroke="#263238" stroke-miterlimit="10"/>
<path d="M15 306H319.576" stroke="#263238" stroke-miterlimit="10"/>
<path d="M196.64 305.314L195.165 274.354H136.186L134.831 305.314H196.64Z" fill="#292F3B" stroke="#292F3B" stroke-linecap="round" stroke-linejoin="round"/>
<path d="M148.747 180.449C148.747 180.449 126.827 189.213 125.878 190.551C124.929 191.889 121.304 225.804 121.11 228.285C120.915 230.766 119.017 242.007 119.017 242.007L136.358 240.291C136.358 240.291 135.597 271.165 135.403 271.736C135.208 272.308 133.499 275.355 134.831 275.927C136.163 276.499 163.989 281.833 168.946 281.833C173.903 281.833 193.147 277.831 193.913 277.454C194.522 277.103 195.032 276.605 195.398 276.006C195.763 275.406 195.972 274.725 196.006 274.023C196.029 272.622 195.966 271.22 195.817 269.827C195.629 267.734 196.006 239.337 196.006 239.337L213.352 238.765C213.352 238.765 207.44 202.174 207.44 200.076C207.44 197.978 207.635 192.266 206.491 190.74C205.348 189.213 181.335 180.066 181.335 180.066C181.335 180.066 158.083 177.401 148.747 180.449Z" fill="#048AD7" stroke="#292F3B" stroke-linecap="round" stroke-linejoin="round"/>
<path d="M136.186 234.054L135.002 201.791" stroke="#292F3B" stroke-linecap="round" stroke-linejoin="round"/>
<path d="M195.165 234.053L196.549 196.342" stroke="#292F3B" stroke-linecap="round" stroke-linejoin="round"/>
<path d="M182.284 188.069C182.479 185.21 183.239 180.448 183.239 180.448L181.907 177.589C181.907 177.589 179.62 173.97 179.237 173.016C178.854 172.061 175.618 171.872 175.618 171.872L165.138 172.444H164.492H163.617V172.472L154.47 172.632C154.47 172.632 151.228 172.827 150.845 173.776C150.462 174.725 149.324 177.589 149.324 177.589L146.654 181.591C146.654 181.591 147.986 187.497 148.181 190.356C148.375 193.215 147.226 196.645 149.13 196.456C151.034 196.268 158.278 189.596 158.278 189.596L166.225 193.964L174.143 189.596C174.143 189.596 181.381 196.268 183.291 196.456C185.2 196.645 182.096 190.928 182.284 188.069Z" fill="#048AD7" stroke="#292F3B" stroke-linecap="round" stroke-linejoin="round"/>
<path d="M152.76 167.487L153.195 175.154C153.195 175.154 155.482 182.678 158.403 186.589C161.325 190.499 166.219 193.97 166.219 193.97C166.219 193.97 173.159 185.577 174.171 183.839C175.183 182.101 176.921 175.594 176.921 175.594L176.636 167.059L152.76 167.487Z" fill="white" stroke="#292F3B" stroke-linecap="round" stroke-linejoin="round"/>
<path d="M149.433 155.195C149.433 155.195 151.588 167.007 152.257 168.482C152.926 169.957 159.118 177.721 161.565 178.682C164.012 179.642 166.167 179.437 168.523 178.51C170.878 177.584 175.303 171.53 176.847 168.985C178.391 166.441 179.288 154.452 179.288 154.452L179.014 142.572C179.014 142.572 177.642 140.639 173.085 138.724C168.528 136.809 157.311 138.415 154.218 139.599C151.125 140.782 148.203 145.447 148.695 147.786C149.078 150.24 149.324 152.714 149.433 155.195Z" fill="white" stroke="#292F3B" stroke-linecap="round" stroke-linejoin="round"/>
<path d="M148.467 148.729C148.467 148.729 146.832 147.425 146.283 150.444C145.734 153.463 147.626 157.007 148.164 158.042C148.701 159.077 150.399 160.158 150.399 160.158L148.467 148.729Z" fill="white" stroke="#292F3B" stroke-linecap="round" stroke-linejoin="round"/>
<path d="M179.568 150.827C179.568 150.827 180.803 148.849 181.741 150.764C182.679 152.679 181.352 157.264 180.432 158.534C179.511 159.803 178.591 161.215 178.591 161.215L179.62 151.456" fill="white"/>
<path d="M179.568 150.827C179.568 150.827 180.803 148.849 181.741 150.764C182.679 152.679 181.352 157.264 180.432 158.534C179.511 159.803 178.591 161.215 178.591 161.215L179.62 151.456" stroke="#292F3B" stroke-linecap="round" stroke-linejoin="round"/>
<path d="M153.281 127.192C153.281 127.192 145.499 133.544 146.185 138.889C146.631 142.235 147.397 145.53 148.472 148.729L149.53 155.864C149.53 155.864 150.102 157.882 150.41 156.121C150.606 154.728 150.732 153.325 150.788 151.919C150.788 151.919 151.874 152.628 152.635 149.998C153.395 147.368 152.846 144.464 153.315 143.818C153.784 143.172 159.855 140.959 159.855 140.959C159.855 140.959 153.241 145.802 156.099 146.356C158.958 146.911 164.292 146.671 166.35 144.973C168.408 143.275 170.713 140.936 170.713 140.936C170.713 140.936 166.739 146.322 168.934 146.854C171.13 147.385 176.367 144.029 176.367 144.029C176.367 144.029 176.138 150.01 176.556 150.69C177.048 151.307 177.626 151.852 178.271 152.308L178.031 158.26C178.031 158.26 178.888 158.957 179.174 156.973C179.46 154.989 179.609 151.45 179.609 151.45C179.609 151.45 182.221 146.876 182.993 144.018C183.765 141.159 184.137 137.632 182.462 134.687C181.484 132.94 180.191 131.389 178.648 130.113C178.648 130.113 169.986 124.682 164.927 124.047C159.867 123.413 153.281 127.192 153.281 127.192Z" fill="#292F3B" stroke="#292F3B" stroke-linecap="round" stroke-linejoin="round"/>
<path d="M158.163 157.774C158.135 158.534 157.723 159.134 157.248 159.111C156.774 159.089 156.419 158.465 156.419 157.688C156.419 156.91 156.86 156.333 157.34 156.35C157.82 156.367 158.192 157.013 158.163 157.774Z" fill="#292F3B"/>
<path d="M171.753 158.294C171.753 159.054 171.313 159.655 170.838 159.632C170.364 159.609 169.992 158.986 170.021 158.225C170.049 157.465 170.461 156.87 170.941 156.888C171.421 156.905 171.787 157.534 171.753 158.294Z" fill="#292F3B"/>
<path d="M155.31 160.489L158.495 160.466" stroke="#292F3B" stroke-linecap="round" stroke-linejoin="round"/>
<path d="M169.913 161.044L173.097 161.021" stroke="#292F3B" stroke-linecap="round" stroke-linejoin="round"/>
<path d="M161.359 165.206C161.359 165.206 162.731 167.144 164.315 167.35C165.898 167.556 167.745 165.303 167.745 165.303" stroke="#292F3B" stroke-linecap="round" stroke-linejoin="round"/>
<path d="M160.684 171.41C161.917 170.748 163.304 170.427 164.702 170.48C166.1 170.534 167.458 170.959 168.637 171.713" stroke="#292F3B" stroke-linecap="round" stroke-linejoin="round"/>
<path d="M153.675 154.058L159.97 152.268" stroke="#292F3B" stroke-width="2" stroke-linecap="round" stroke-linejoin="round"/>
<path d="M174.926 154.869L168.786 152.605" stroke="#292F3B" stroke-width="2" stroke-linecap="round" stroke-linejoin="round"/>
<path d="M133.882 232.093C133.882 232.093 129.114 229.428 125.683 230.572C122.253 231.715 117.49 238.193 117.107 239.148C116.724 240.103 117.49 249.056 117.49 249.056C117.49 249.056 124.162 251.914 126.827 251.914C129.491 251.914 135.403 246.197 135.403 246.197L133.882 232.093Z" fill="#048AD7" stroke="#292F3B" stroke-linecap="round" stroke-linejoin="round"/>
<path d="M160.747 227.65L158.375 209.355C158.347 209.134 158.365 208.91 158.428 208.697C158.492 208.484 158.599 208.287 158.744 208.118C158.888 207.949 159.066 207.812 159.266 207.716C159.466 207.62 159.685 207.566 159.907 207.559L173.411 207.142C173.628 207.135 173.844 207.172 174.047 207.252C174.249 207.331 174.433 207.451 174.587 207.604C174.741 207.758 174.862 207.94 174.943 208.142C175.024 208.344 175.063 208.56 175.058 208.777L174.583 226.638L160.747 227.65Z" fill="#292F3B" stroke="#292F3B" stroke-linecap="round" stroke-linejoin="round"/>
<path d="M158.083 224.472C158.083 224.472 147.409 228.662 142.835 229.617C138.261 230.572 130.64 230.949 127.97 233.048C125.3 235.146 119.589 242.956 120.921 245.814C122.253 248.673 128.736 250.388 131.4 249.816C134.065 249.245 152.937 238.193 155.413 236.861C157.889 235.529 161.896 233.431 161.896 233.431L158.083 224.472Z" fill="white" stroke="#292F3B" stroke-linecap="round" stroke-linejoin="round"/>
<path d="M195.685 228.69C195.685 228.69 203.466 227.65 204.678 227.65C205.89 227.65 213.151 231.458 214.884 233.184C216.616 234.911 218 239.931 218 242.183C218 244.436 216.788 249.101 215.227 249.964C213.666 250.828 209.509 252.56 207.617 251.348C205.725 250.136 201.585 246.677 201.585 246.677L195.685 228.69Z" fill="#048AD7" stroke="#292F3B" stroke-linecap="round" stroke-linejoin="round"/>
<path d="M214.535 240.451C214.535 240.451 211.768 234.225 206.754 231.629C201.74 229.034 192.398 227.627 188.59 225.575C184.783 223.522 180.466 219.349 180.466 219.349L178.213 234.745C178.213 234.745 186.515 239.068 189.974 241.663C193.433 244.259 201.911 249.793 205.719 250.136C209.527 250.479 214.867 249.273 215.576 245.465C216.285 241.657 214.535 240.451 214.535 240.451Z" fill="white" stroke="#292F3B" stroke-linecap="round" stroke-linejoin="round"/>
<path d="M172.336 220.04C172.336 220.04 162.617 220.04 159.535 220.732C156.453 221.424 155.213 223.676 155.905 224.883C156.341 225.691 156.633 226.569 156.768 227.478C156.768 227.478 156.419 229.554 156.939 229.902C157.503 230.373 158.023 230.894 158.494 231.457C158.494 231.457 157.631 233.173 159.015 234.396C159.838 235.114 160.773 235.693 161.782 236.111C161.782 236.111 161.782 237.495 163.857 237.666C165.933 237.838 170.775 234.556 170.775 234.556L172.336 220.04Z" fill="white" stroke="#292F3B" stroke-linecap="round" stroke-linejoin="round"/>
<path d="M175.103 214.163L174.754 218.485C174.754 218.485 169.569 220.732 169.037 220.732C168.505 220.732 162.291 218.314 161.25 219.177C160.21 220.04 166.27 223.179 167.305 223.328C168.34 223.477 169.209 223.677 169.209 223.677C169.209 223.677 164.886 223.848 164.195 223.848C163.503 223.848 159.352 222.465 159.003 223.156C158.655 223.848 158.312 224.872 159.524 225.403C160.786 226.064 162 226.814 163.154 227.65H160.736C160.736 227.65 158.312 227.479 158.66 228.862C159.009 230.246 162.462 230.766 162.462 230.766C163.573 231.967 164.788 233.067 166.093 234.053C167.808 235.266 170.249 236.821 172.325 236.649C174.4 236.478 177.51 234.934 178.202 234.745C178.894 234.557 179.917 233.184 179.917 230.938C179.917 228.691 180.78 226.095 180.952 223.677C181.123 221.258 181.301 220.212 180.609 218.314C179.917 216.416 175.103 214.163 175.103 214.163Z" fill="white" stroke="#292F3B" stroke-linecap="round" stroke-linejoin="round"/>
<path d="M163.166 227.65C163.166 227.65 169.049 228.862 169.74 228.862C170.432 228.862 174.234 227.999 174.234 227.999" stroke="#292F3B" stroke-linecap="round" stroke-linejoin="round"/>
<path d="M169.22 223.676C169.22 223.676 172.159 224.019 172.851 223.848C173.542 223.676 175.446 223.328 175.446 223.328" stroke="#292F3B" stroke-linecap="round" stroke-linejoin="round"/>
<path d="M162.474 230.766C162.474 230.766 166.796 232.481 168.191 232.841C169.586 233.202 174.068 232.15 174.068 232.15" stroke="#292F3B" stroke-linecap="round" stroke-linejoin="round"/>
</svg>
