<svg width="16" height="16" viewBox="0 0 16 16" fill="none" xmlns="http://www.w3.org/2000/svg">
<path d="M8 0C3.58887 0 0 3.58887 0 8C0 12.4111 3.58887 16 8 16C12.4111 16 16 12.4111 16 8C16 3.58887 12.4111 0 8 0ZM8 2C11.1251 2 13.6966 4.40204 13.9725 7.45648L10.8839 7.21899C10.5377 5.94476 9.38245 5 8 5C6.53717 5 5.31964 6.05359 5.05652 7.44092L2.00452 7.91065C2.05298 4.64356 4.72156 2 8 2ZM7 13.9097C4.79681 13.5378 2.99982 11.9656 2.30872 9.8873L5.37159 9.41593C5.72236 10.064 6.29774 10.5653 7.00001 10.8157L7 13.9097ZM8 9.00003C7.44769 9.00003 7 8.55228 7 8.00003C7 7.44772 7.44769 7.00003 8 7.00003C8.55231 7.00003 9 7.44772 9 8.00003C9 8.55228 8.55231 9.00003 8 9.00003ZM9 13.9097V10.8158C9.77545 10.5393 10.4056 9.96091 10.7383 9.21378L13.8154 9.45035C13.2433 11.742 11.3549 13.5121 9 13.9097Z" fill="#4F565E"/>
</svg>
