<svg width="48" height="49" viewBox="0 0 48 49" fill="none" xmlns="http://www.w3.org/2000/svg">
<path d="M33.0909 10C39.1182 10 44 14.8666 44 20.875C44 26.8834 39.1182 31.75 33.0909 31.75H31.2727L24 39V31.75H14.9091C8.88182 31.75 4 26.8834 4 20.875C4 14.8666 8.88182 10 14.9091 10H33.0909ZM36.7273 20.875C36.7273 19.8781 35.9091 19.0625 34.9091 19.0625C33.9091 19.0625 33.0909 19.8781 33.0909 20.875C33.0909 21.8719 33.9091 22.6875 34.9091 22.6875C35.9091 22.6875 36.7273 21.8719 36.7273 20.875ZM25.8182 20.875C25.8182 19.8781 25 19.0625 24 19.0625C23 19.0625 22.1818 19.8781 22.1818 20.875C22.1818 21.8719 23 22.6875 24 22.6875C25 22.6875 25.8182 21.8719 25.8182 20.875ZM14.9091 20.875C14.9091 19.8781 14.0909 19.0625 13.0909 19.0625C12.0909 19.0625 11.2727 19.8781 11.2727 20.875C11.2727 21.8719 12.0909 22.6875 13.0909 22.6875C14.0909 22.6875 14.9091 21.8719 14.9091 20.875Z" fill="url(#paint0_linear_1026_4423)"/>
<path d="M33.1304 8.97852H14.8696C8.32487 8.97852 3 14.3034 3 20.8481C3 27.3928 8.32487 32.7177 14.8696 32.7177H23.087V39.109C23.087 39.4778 23.3088 39.8111 23.6503 39.9526C23.7635 39.9992 23.8822 40.022 24 40.022C24.2374 40.022 24.4711 39.9289 24.6455 39.7545L31.6824 32.7177H33.1304C39.6751 32.7177 45 27.3928 45 20.8481C45 14.3034 39.6751 8.97852 33.1304 8.97852ZM33.1304 30.8916H31.3044C31.0615 30.8916 30.8296 30.9874 30.6588 31.1591L24.913 36.9049V31.8046C24.913 31.3006 24.5049 30.8916 24 30.8916H14.8696C9.33196 30.8916 4.82609 26.3857 4.82609 20.8481C4.82609 15.3105 9.33196 10.8046 14.8696 10.8046H33.1304C38.6681 10.8046 43.1739 15.3105 43.1739 20.8481C43.1739 26.3857 38.6681 30.8916 33.1304 30.8916Z" fill="#4F565E"/>
<path d="M13.0435 18.1094C11.5333 18.1094 10.3043 19.3383 10.3043 20.8485C10.3043 22.3587 11.5333 23.5876 13.0435 23.5876C14.5536 23.5876 15.7826 22.3587 15.7826 20.8485C15.7826 19.3383 14.5536 18.1094 13.0435 18.1094ZM13.0435 21.7615C12.5395 21.7615 12.1304 21.3516 12.1304 20.8485C12.1304 20.3454 12.5395 19.9355 13.0435 19.9355C13.5475 19.9355 13.9565 20.3454 13.9565 20.8485C13.9565 21.3516 13.5475 21.7615 13.0435 21.7615Z" fill="#4F565E"/>
<path d="M34.9565 18.1094C33.4464 18.1094 32.2174 19.3383 32.2174 20.8485C32.2174 22.3587 33.4464 23.5876 34.9565 23.5876C36.4667 23.5876 37.6957 22.3587 37.6957 20.8485C37.6957 19.3383 36.4667 18.1094 34.9565 18.1094ZM34.9565 21.7615C34.4525 21.7615 34.0435 21.3516 34.0435 20.8485C34.0435 20.3454 34.4525 19.9355 34.9565 19.9355C35.4605 19.9355 35.8696 20.3454 35.8696 20.8485C35.8696 21.3516 35.4605 21.7615 34.9565 21.7615Z" fill="#4F565E"/>
<path d="M24 18.1094C22.4898 18.1094 21.2609 19.3383 21.2609 20.8485C21.2609 22.3587 22.4898 23.5876 24 23.5876C25.5102 23.5876 26.7391 22.3587 26.7391 20.8485C26.7391 19.3383 25.5102 18.1094 24 18.1094ZM24 21.7615C23.496 21.7615 23.087 21.3516 23.087 20.8485C23.087 20.3454 23.496 19.9355 24 19.9355C24.504 19.9355 24.913 20.3454 24.913 20.8485C24.913 21.3516 24.504 21.7615 24 21.7615Z" fill="#4F565E"/>
<defs>
<linearGradient id="paint0_linear_1026_4423" x1="4" y1="24.5" x2="44" y2="24.5" gradientUnits="userSpaceOnUse">
<stop stop-color="#00C96D"/>
<stop offset="1" stop-color="#048AD7"/>
</linearGradient>
</defs>
</svg>
