<svg width="20" height="20" viewBox="0 0 20 20" fill="none" xmlns="http://www.w3.org/2000/svg">
<g clip-path="url(#clip0_1794_17389)">
<path d="M17 1H3C1.9 1 1 1.9 1 3V17C1 18.1 1.9 19 3 19H17C18.1 19 19 18.1 19 17V3C19 1.9 18.1 1 17 1ZM8.71 14.29C8.32 14.68 7.69 14.68 7.3 14.29L3.71 10.7C3.32 10.31 3.32 9.68 3.71 9.29C4.1 8.9 4.73 8.9 5.12 9.29L8 12.17L14.88 5.29C15.27 4.9 15.9 4.9 16.29 5.29C16.68 5.68 16.68 6.31 16.29 6.7L8.71 14.29Z" fill="url(#paint0_linear_1794_17389)"/>
</g>
<defs>
<linearGradient id="paint0_linear_1794_17389" x1="1" y1="10" x2="19" y2="10" gradientUnits="userSpaceOnUse">
<stop stop-color="#00C96D"/>
<stop offset="1" stop-color="#048AD7"/>
</linearGradient>
<clipPath id="clip0_1794_17389">
<rect width="20" height="20" fill="white"/>
</clipPath>
</defs>
</svg>
