<svg width="20" height="20" viewBox="0 0 20 20" fill="none" xmlns="http://www.w3.org/2000/svg">
<path d="M10 0C4.48609 0 0 4.48609 0 10C0 15.5139 4.48609 20 10 20C15.5139 20 20 15.5139 20 10C20 4.48609 15.5139 0 10 0ZM14.0446 14.0446C13.9632 14.126 13.8566 14.1667 13.75 14.1667C13.6434 14.1667 13.5368 14.126 13.4554 14.0446L10.203 10.7923C10.1364 10.8095 10.072 10.8334 10 10.8334C9.54062 10.8334 9.16668 10.4594 9.16668 10C9.16668 9.69566 9.33891 9.44031 9.58336 9.29484V2.91668C9.58332 2.68637 9.76969 2.5 10 2.5C10.2303 2.5 10.4167 2.68637 10.4167 2.91668V9.2948C10.6611 9.44027 10.8334 9.69566 10.8334 10C10.8334 10.072 10.8095 10.1364 10.7923 10.203L14.0446 13.4554C14.2073 13.6182 14.2073 13.8818 14.0446 14.0446Z" fill="#4F565E"/>
</svg>
