<svg width="48" height="32" viewBox="0 0 48 32" fill="none" xmlns="http://www.w3.org/2000/svg">
<rect width="48" height="32" rx="4" fill="#F3F7FA"/>
<path d="M0 24H48V30C48 31.1046 47.1046 32 46 32H2C0.895431 32 0 31.1046 0 30V24Z" fill="#E3E9ED"/>
<path d="M9.99951 8.30566C9.99951 8.30566 8.32426 8.38892 7.95198 8.43055C7.57971 8.47218 7.39357 8.51381 7.37288 8.6387C7.3522 8.76359 7.91062 9.17989 8.36562 9.26315L9.99951 8.30566Z" fill="#4F565E"/>
<path d="M35.3549 21.4818C35.3549 21.4818 10.0814 21.4818 9.46092 21.4818C8.86114 21.4818 4.45585 20.5659 4.33176 20.4619C4.20767 20.3578 3.89744 19.9415 3.89744 19.2546C3.89744 18.5677 3.89744 17.9016 3.89744 17.631C3.89744 17.3605 4.37312 16.7776 4.37312 16.1948C4.37312 15.612 4.37312 13.8011 4.37312 13.593C4.37312 13.3848 5.20041 12.0735 5.61405 11.5323C6.02769 10.9911 8.94387 8.43086 10.0607 8.24353C11.1775 8.05619 21.4979 7.84804 23.6075 8.16027C25.717 8.47249 27.413 9.36753 28.9848 10.3042C30.5566 11.2409 32.9971 12.6771 33.3074 12.7604C33.6176 12.8436 37.3611 13.3224 39.4293 13.7387C41.4975 14.155 42.8832 14.6753 43.1314 14.9459C43.3795 15.2165 43.4416 15.4247 43.5243 15.945C43.607 16.4862 43.6691 16.8401 43.7518 17.0274C43.8345 17.2356 44 17.3396 44 17.7143C44 18.089 44 19.5044 44 19.7542C44 20.0039 42.6557 21.1696 42.1386 21.2528C41.6422 21.3569 37.3404 21.4818 35.3549 21.4818Z" fill="#CBD2D7"/>
<path d="M43.938 17.382C43.9793 17.4653 44 17.5694 44 17.7359C44 18.1106 44 19.526 44 19.7758C44 20.0255 42.6557 21.1912 42.1386 21.2744C41.6216 21.3577 37.3197 21.4826 35.3549 21.4826C35.3549 21.4826 10.0814 21.4826 9.46092 21.4826C8.86114 21.4826 4.45585 20.5667 4.33176 20.4627C4.20767 20.3586 3.89744 19.9423 3.89744 19.2554C3.89744 18.5685 3.89744 17.9024 3.89744 17.6318C3.89744 17.3612 4.37312 16.7784 4.37312 16.1956C4.37312 15.9458 4.37312 15.5087 4.37312 15.0508L43.938 17.382Z" fill="#CBD2D7"/>
<path d="M12.7292 11.6571L12.8119 11.7196C12.3155 12.3232 11.8812 13.0101 11.9639 13.9052C12.0466 14.592 12.8739 15.3206 13.846 16.1323C14.1562 16.3821 14.4664 16.6527 14.7767 16.9441C15.6246 17.7143 16.1417 18.8175 16.3072 20.1912V20.2121C16.3485 20.5243 16.514 20.6908 16.7828 20.6908H22.1809C22.2222 20.5035 22.4497 19.6292 22.4497 18.4428C22.4497 17.1315 22.2015 14.488 21.9327 13.5513C21.912 13.3848 21.8913 13.1974 21.8706 12.9685C21.8086 12.3857 21.7465 11.6571 21.6638 11.1368C21.5397 10.3874 21.3743 9.01365 21.3329 8.78468C20.9813 8.76387 20.5883 8.72224 20.2161 8.72224V8.61816C21.4363 8.68061 22.6772 8.82631 22.6979 8.82631L22.6772 8.93039C22.6772 8.93039 22.1395 8.86794 21.4363 8.8055C21.4777 9.09691 21.6431 10.4082 21.7672 11.1368C21.8499 11.6571 21.9327 12.3857 21.9947 12.9685C22.0154 13.1974 22.0361 13.3848 22.0568 13.5305C22.3256 14.4463 22.5738 17.1106 22.5738 18.4428C22.5738 19.5876 22.367 20.441 22.305 20.6908H31.8808C32.2737 20.6908 32.3978 20.5035 32.4805 20.1912C32.5633 19.879 32.8321 17.6102 32.8321 16.4862V16.3197C32.8321 15.2789 32.8321 14.7586 32.3771 13.8843C31.9014 12.9685 30.888 12.3857 30.888 12.3857L30.9294 12.3024C30.9707 12.3232 31.9635 12.906 32.4599 13.8427C32.9355 14.7377 32.9355 15.2789 32.9355 16.3197V16.4862C32.9355 17.6518 32.6667 19.8998 32.584 20.2121C32.5219 20.5035 32.3771 20.7949 31.8808 20.7949H16.8035C16.576 20.7949 16.2865 20.6908 16.2244 20.2329V20.2121C16.059 18.8591 15.5419 17.7975 14.7146 17.0274C14.4044 16.7568 14.0942 16.4862 13.7839 16.2156C12.7912 15.383 11.9432 14.6545 11.8605 13.9052C11.7571 12.9893 12.2535 12.24 12.7292 11.6571Z" fill="#B9BFC3"/>
<path d="M33.9698 21.4825C33.9078 21.2327 33.8871 20.9621 33.8871 20.6915C33.8871 18.5268 35.6244 16.7783 37.7753 16.7783C39.9263 16.7783 41.6636 18.5268 41.6636 20.6915C41.6636 20.8997 41.6429 21.1286 41.6015 21.316C40.2779 21.3992 36.9894 21.4825 35.3349 21.4825C35.3555 21.4825 34.8385 21.4825 33.9698 21.4825Z" fill="#CCCDCE"/>
<path d="M7.47583 21.1498C7.45515 20.9832 7.43447 20.8375 7.43447 20.671C7.43447 18.5063 9.17177 16.7578 11.3227 16.7578C13.4736 16.7578 15.2109 18.5063 15.2109 20.671C15.2109 20.9416 15.1903 21.2122 15.1282 21.462C11.9432 21.462 9.60609 21.462 9.44063 21.462C9.23381 21.4828 8.40653 21.3371 7.47583 21.1498Z" fill="#CCCDCE"/>
<path d="M37.7749 24.0006C35.9473 24.0006 34.4657 22.5095 34.4657 20.6702C34.4657 18.8309 35.9473 17.3398 37.7749 17.3398C39.6024 17.3398 41.084 18.8309 41.084 20.6702C41.084 22.5095 39.6024 24.0006 37.7749 24.0006Z" fill="url(#paint0_linear_2390_20083)"/>
<path d="M35.5206 20.6712C35.5206 21.9201 36.534 22.94 37.7749 22.94C39.0159 22.94 40.0293 21.9201 40.0293 20.6712C40.0293 19.4223 39.0159 18.4023 37.7749 18.4023C36.534 18.4023 35.5206 19.4223 35.5206 20.6712Z" fill="#F3F7FA"/>
<path d="M11.3432 24.0006C9.51562 24.0006 8.03408 22.5095 8.03408 20.6702C8.03408 18.8309 9.51562 17.3398 11.3432 17.3398C13.1708 17.3398 14.6523 18.8309 14.6523 20.6702C14.6523 22.5095 13.1708 24.0006 11.3432 24.0006Z" fill="url(#paint1_linear_2390_20083)"/>
<path d="M9.08896 20.6712C9.08896 21.9201 10.1024 22.94 11.3433 22.94C12.5842 22.94 13.5977 21.9201 13.5977 20.6712C13.5977 19.4223 12.5842 18.4023 11.3433 18.4023C10.1024 18.4023 9.08896 19.4223 9.08896 20.6712Z" fill="#F3F7FA"/>
<path d="M22.7194 13.3231C22.5953 13.3231 22.4712 13.219 22.4091 12.99C22.3264 12.7611 21.9541 9.74292 21.8921 9.32662C21.83 8.88951 21.83 8.7438 22.0782 8.76462C23.0089 8.82706 23.9603 8.93114 24.7876 9.05602C25.346 9.13928 26.5869 9.55558 27.621 10.1176C28.6344 10.6796 31.4679 12.6154 31.6333 12.8027C32.0056 13.2398 31.7781 13.5937 31.0749 13.5937C30.744 13.552 26.8558 13.448 22.7194 13.3231Z" fill="#4F565E"/>
<path d="M12.233 12.4477C12.626 11.4486 14.7562 8.84675 16.1212 8.6386C16.7624 8.53453 18.6651 8.53453 20.754 8.6386C20.8781 8.6386 21.0643 8.65942 21.0849 8.93001C21.1056 9.22142 21.3538 12.1355 21.3745 12.6351C21.3952 13.1346 21.0849 13.2387 21.0849 13.2387C16.7003 13.1138 12.5019 12.9681 12.4192 12.9681C12.233 12.9681 12.1503 12.6975 12.233 12.4477Z" fill="#4F565E"/>
<path d="M34.5696 14.0093C34.2594 13.9885 33.8871 13.8844 33.763 13.697C33.7009 13.593 33.4321 13.0726 33.2459 12.7188C33.2666 12.7188 33.2873 12.7396 33.308 12.7396C33.3287 12.7396 33.3494 12.7396 33.3907 12.7604C33.5769 13.0934 33.8044 13.5513 33.8664 13.6346C33.9491 13.7595 34.2387 13.8636 34.5903 13.9052C34.7557 13.926 36.886 14.3423 38.9128 14.7378C40.6708 15.0916 42.4908 15.4455 42.5942 15.4663C42.7597 15.4871 43.194 15.4663 43.4422 15.4663C43.4422 15.5079 43.4629 15.5288 43.4629 15.5704C43.3388 15.5704 43.1527 15.5704 42.9665 15.5704C42.8217 15.5704 42.677 15.5704 42.5942 15.5704C42.4702 15.5704 40.8156 15.2374 38.8922 14.8419C36.948 14.4672 34.7351 14.0301 34.5696 14.0093Z" fill="#B9BFC3"/>
<path d="M42.5731 15.0706C42.7592 15.1539 43.3176 15.8616 43.3797 16.2987C43.4417 16.7567 43.3797 16.9024 43.1522 16.8607C42.904 16.8191 41.9113 16.5277 41.5803 16.3404C41.2494 16.153 40.2567 15.2164 40.174 15.0498C40.1119 14.8833 40.3808 14.7168 40.6083 14.696C40.8151 14.6752 41.8492 14.7376 42.5731 15.0706Z" fill="#F69A66"/>
<path d="M7.22738 12.4488C6.75169 12.4696 5.67622 12.4488 4.99371 12.4488C5.22122 12.0949 5.44872 11.741 5.61418 11.5121C5.88304 11.1582 7.12397 10.0134 8.30285 9.18081C9.6265 9.13918 13.039 9.01429 13.1631 9.07674C13.3079 9.13918 13.2459 9.32651 12.9563 9.51385C12.6668 9.722 9.48173 11.9076 8.90263 12.1573C8.32353 12.4279 7.95125 12.4279 7.22738 12.4488Z" fill="#4F565E"/>
<path d="M6.37933 15.6542C6.08978 15.6542 4.91089 15.6542 4.37316 15.6542C4.37316 14.9673 4.37316 13.989 4.37316 13.6768C4.57998 13.6768 4.89021 13.6768 5.05567 13.6768C5.24181 13.6768 5.82091 14.3845 6.15182 14.7383C6.48273 15.113 6.73092 15.6542 6.37933 15.6542Z" fill="#F79A66"/>
<defs>
<linearGradient id="paint0_linear_2390_20083" x1="34.4657" y1="17.3398" x2="40.9628" y2="24.1168" gradientUnits="userSpaceOnUse">
<stop stop-color="#4F565E"/>
<stop offset="1" stop-color="#292F3B"/>
</linearGradient>
<linearGradient id="paint1_linear_2390_20083" x1="8.03408" y1="17.3398" x2="14.5311" y2="24.1168" gradientUnits="userSpaceOnUse">
<stop stop-color="#4F565E"/>
<stop offset="1" stop-color="#292F3B"/>
</linearGradient>
</defs>
</svg>
