<svg width="20" height="20" viewBox="0 0 20 20" fill="none" xmlns="http://www.w3.org/2000/svg">
<rect width="20" height="20" rx="2" fill="url(#paint0_linear_1073_6440)"/>
<path d="M4.25045 6.23022C5.8974 7.62501 8.78729 10.0789 9.63667 10.844C9.75069 10.9473 9.87299 10.9998 9.99995 10.9998C10.1267 10.9998 10.2487 10.9477 10.3625 10.845C11.2126 10.0791 14.1025 7.62501 15.7495 6.23022C15.852 6.14355 15.8676 5.9912 15.7846 5.88524C15.5927 5.64039 15.3066 5.5 14.9999 5.5H4.99996C4.69332 5.5 4.40717 5.64039 4.21529 5.88527C4.13228 5.9912 4.14791 6.14355 4.25045 6.23022Z" fill="white"/>
<path d="M15.855 6.9862C15.7664 6.94495 15.6621 6.95934 15.5884 7.02234C13.762 8.57067 11.4309 10.5553 10.6975 11.2162C10.2859 11.5878 9.71458 11.5878 9.30198 11.2157C8.52025 10.5113 5.90256 8.28599 4.41161 7.02232C4.33738 6.95932 4.2329 6.94542 4.14501 6.98617C4.05665 7.02721 4 7.1156 4 7.213V13.5001C4 14.0516 4.44848 14.5001 5.00001 14.5001H15C15.5515 14.5001 16 14.0516 16 13.5001V7.213C16 7.1156 15.9434 7.02698 15.855 6.9862Z" fill="white"/>
<defs>
<linearGradient id="paint0_linear_1073_6440" x1="0" y1="10" x2="20" y2="10" gradientUnits="userSpaceOnUse">
<stop stop-color="#00C96D"/>
<stop offset="1" stop-color="#048AD7"/>
</linearGradient>
</defs>
</svg>
