<svg width="48" height="49" viewBox="0 0 48 49" fill="none" xmlns="http://www.w3.org/2000/svg">
<path d="M43 41.8226V42.6613C43 43.1226 42.6114 43.5 42.1364 43.5H5.86364C5.38864 43.5 5 43.1226 5 42.6613V41.8226L21.0291 30.5L24 32.5968L26.9709 30.5L43 41.8226Z" fill="url(#paint0_linear_1026_4413)"/>
<path d="M43.5974 16.8096L24.467 4.63565C24.1817 4.45478 23.8183 4.45478 23.533 4.63565L4.40261 16.8096C4.37565 16.827 4.36087 16.8539 4.33565 16.8739C4.28957 16.9113 4.24783 16.9496 4.20957 16.9948C4.17304 17.0383 4.14348 17.0826 4.11739 17.1313C4.0913 17.1791 4.06957 17.227 4.05304 17.2791C4.03478 17.3365 4.02435 17.393 4.01739 17.4539C4.01478 17.4852 4 17.5122 4 17.5435V41.8913V42.7609C4 43.72 4.78 44.5 5.73913 44.5H42.2609C43.22 44.5 44 43.72 44 42.7609V41.8913V18.413V17.5435C44 17.2461 43.8478 16.9696 43.5974 16.8096ZM42.2609 40.1835L28.4696 30.1522L42.2609 20.1209V40.1835ZM24 6.40087L42.2243 17.9974L26.4809 29.4487C26.4809 29.4487 26.4809 29.4487 26.48 29.4487L24 31.2513L21.52 29.4487C21.52 29.4487 21.52 29.4487 21.5191 29.4487L5.77652 17.9974L24 6.40087ZM5.73913 20.1209L19.5304 30.1522L5.73913 40.1835V20.1209ZM42.2609 42.7609H5.73913V42.3339L21.0096 31.227L23.4896 33.0296C23.7948 33.2513 24.207 33.2513 24.5122 33.0296L26.9922 31.227L42.2609 42.3339V42.7609Z" fill="#4F565E"/>
<defs>
<linearGradient id="paint0_linear_1026_4413" x1="5" y1="37" x2="43" y2="37" gradientUnits="userSpaceOnUse">
<stop stop-color="#00C96D"/>
<stop offset="1" stop-color="#048AD7"/>
</linearGradient>
</defs>
</svg>
