<svg width="28" height="28" viewBox="0 0 28 28" fill="none" xmlns="http://www.w3.org/2000/svg">
<path d="M14 0.666504C6.64796 0.666504 0.666626 6.64784 0.666626 13.9998C0.666626 21.3518 6.64796 27.3332 14 27.3332C21.352 27.3332 27.3333 21.3518 27.3333 13.9998C27.3333 6.64784 21.352 0.666504 14 0.666504ZM14.9466 20.2798C14.44 20.7732 13.56 20.7732 13.0533 20.2798C12.812 20.0265 12.6666 19.6798 12.6666 19.3332C12.6666 18.9865 12.812 18.6398 13.0533 18.3865C13.3066 18.1465 13.6533 17.9998 14 17.9998C14.3466 17.9998 14.6933 18.1465 14.9466 18.3865C15.1866 18.6398 15.3333 18.9865 15.3333 19.3332C15.3333 19.6798 15.1866 20.0265 14.9466 20.2798ZM15.3333 15.3332C15.3333 16.0692 14.7373 16.6665 14 16.6665C13.2626 16.6665 12.6666 16.0692 12.6666 15.3332V8.6665C12.6666 7.9305 13.2626 7.33317 14 7.33317C14.7373 7.33317 15.3333 7.9305 15.3333 8.6665V15.3332Z" fill="#048AD7"/>
</svg>
