<svg width="48" height="49" viewBox="0 0 48 49" fill="none" xmlns="http://www.w3.org/2000/svg">
<path d="M34 17.9412V26.4706C34 27.4088 33.2324 28.1765 32.2941 28.1765H13.5294L5 35V26.4706V7.70588C5 6.76765 5.76765 6 6.70588 6H32.2941C33.2324 6 34 6.76765 34 7.70588V12.8235V17.9412ZM27.1765 17.0882C27.1765 16.6191 26.7926 16.2353 26.3235 16.2353C25.8544 16.2353 25.4706 16.6191 25.4706 17.0882C25.4706 17.5574 25.8544 17.9412 26.3235 17.9412C26.7926 17.9412 27.1765 17.5574 27.1765 17.0882ZM20.3529 17.0882C20.3529 16.6191 19.9691 16.2353 19.5 16.2353C19.0309 16.2353 18.6471 16.6191 18.6471 17.0882C18.6471 17.5574 19.0309 17.9412 19.5 17.9412C19.9691 17.9412 20.3529 17.5574 20.3529 17.0882ZM13.5294 17.0882C13.5294 16.6191 13.1456 16.2353 12.6765 16.2353C12.2074 16.2353 11.8235 16.6191 11.8235 17.0882C11.8235 17.5574 12.2074 17.9412 12.6765 17.9412C13.1456 17.9412 13.5294 17.5574 13.5294 17.0882Z" fill="url(#paint0_linear_1026_4416)"/>
<path d="M41.4565 11.7826H35.5217V7.54348C35.5217 6.14117 34.3806 5 32.9783 5H7.54348C6.14117 5 5 6.14117 5 7.54348V34.6739C5 34.9995 5.18652 35.2971 5.48072 35.4378C5.59772 35.4938 5.7232 35.5217 5.84783 35.5217C6.03689 35.5217 6.22426 35.4581 6.37772 35.3361L13.4783 29.6548V34.6739C13.4783 36.0762 14.6194 37.2174 16.0217 37.2174H34.3763L42.6223 43.8143C42.7757 43.9364 42.9631 44 43.1522 44C43.2768 44 43.4023 43.972 43.5193 43.9161C43.8135 43.7753 44 43.4777 44 43.1522V14.3261C44 12.9238 42.8588 11.7826 41.4565 11.7826ZM41.4565 13.4783C41.9237 13.4783 42.3043 13.8589 42.3043 14.3261V16.8696H35.5217V13.4783H41.4565ZM6.69565 7.54348C6.69565 7.07633 7.07633 6.69565 7.54348 6.69565H32.9783C33.4454 6.69565 33.8261 7.07633 33.8261 7.54348V26.1957C33.8261 26.6628 33.4454 27.0435 32.9783 27.0435H14.3261C14.2201 27.0435 14.1175 27.0672 14.02 27.1054C13.9853 27.1189 13.9564 27.141 13.9242 27.1588C13.881 27.1825 13.8352 27.1986 13.7962 27.23L6.69565 32.9096V7.54348ZM35.2038 35.7074C35.0529 35.587 34.8664 35.5217 34.6739 35.5217H16.0217C15.5546 35.5217 15.1739 35.1411 15.1739 34.6739V28.7391H32.9783C34.3806 28.7391 35.5217 27.598 35.5217 26.1957V18.5652H42.3043V41.3878L35.2038 35.7074Z" fill="#4F565E"/>
<path d="M15 17C15 15.897 14.103 15 13 15C11.897 15 11 15.897 11 17C11 18.103 11.897 19 13 19C14.103 19 15 18.103 15 17ZM13.001 17.003C13 17.002 13 17.001 13 17H14L13.001 17.003Z" fill="#4F565E"/>
<path d="M20 19C21.103 19 22 18.103 22 17C22 15.897 21.103 15 20 15C18.897 15 18 15.897 18 17C18 18.103 18.897 19 20 19ZM21 17L20.001 17.003C20 17.002 20 17.001 20 17H21Z" fill="#4F565E"/>
<path d="M27 19C28.103 19 29 18.103 29 17C29 15.897 28.103 15 27 15C25.897 15 25 15.897 25 17C25 18.103 25.897 19 27 19ZM28 17L27.001 17.003C27 17.002 27 17.001 27 17H28Z" fill="#4F565E"/>
<defs>
<linearGradient id="paint0_linear_1026_4416" x1="5" y1="20.5" x2="34" y2="20.5" gradientUnits="userSpaceOnUse">
<stop stop-color="#00C96D"/>
<stop offset="1" stop-color="#048AD7"/>
</linearGradient>
</defs>
</svg>
