<svg width="17" height="19" viewBox="0 0 17 19" fill="none" xmlns="http://www.w3.org/2000/svg">
<path d="M11 9V16.88C11.04 17.18 10.94 17.5 10.71 17.71C10.6175 17.8027 10.5076 17.8762 10.3866 17.9264C10.2656 17.9766 10.136 18.0024 10.005 18.0024C9.87403 18.0024 9.74434 17.9766 9.62337 17.9264C9.5024 17.8762 9.39251 17.8027 9.29999 17.71L7.28999 15.7C7.18093 15.5934 7.098 15.463 7.04769 15.319C6.99738 15.175 6.98106 15.0213 6.99999 14.87V9H6.96999L1.20999 1.62C1.0476 1.41153 0.974328 1.14726 1.00618 0.88493C1.03804 0.622602 1.17243 0.383546 1.37999 0.22C1.56999 0.08 1.77999 0 1.99999 0H16C16.22 0 16.43 0.08 16.62 0.22C16.8276 0.383546 16.962 0.622602 16.9938 0.88493C17.0257 1.14726 16.9524 1.41153 16.79 1.62L11.03 9H11Z" fill="url(#paint0_linear_3467_9483)"/>
<defs>
<linearGradient id="paint0_linear_3467_9483" x1="0.998886" y1="9.00122" x2="17.0011" y2="9.00122" gradientUnits="userSpaceOnUse">
<stop stop-color="#00C96D"/>
<stop offset="1" stop-color="#048AD7"/>
</linearGradient>
</defs>
</svg>
