<svg width="24" height="24" viewBox="0 0 24 24" fill="none" xmlns="http://www.w3.org/2000/svg">
<path d="M12 0C5.38324 0 0 5.38273 0 12C0 18.6173 5.38324 24 12 24C18.6168 24 24 18.6173 24 12C24 5.38273 18.6168 0 12 0ZM12 22.9565C5.95822 22.9565 1.04348 18.0413 1.04348 12C1.04348 5.95873 5.95822 1.04348 12 1.04348C18.0418 1.04348 22.9565 5.95873 22.9565 12C22.9565 18.0413 18.0418 22.9565 12 22.9565Z" fill="#4F565E"/>
<path d="M19.3043 11.4782H17.7126C17.4632 8.72962 15.2703 6.53618 12.5217 6.28728V4.69557C12.5217 4.40693 12.2878 4.17383 12 4.17383C11.7121 4.17383 11.4782 4.40693 11.4782 4.69557V6.28728C8.72968 6.53668 6.53624 8.72962 6.28734 11.4782H4.69563C4.40775 11.4782 4.17389 11.7113 4.17389 11.9999C4.17389 12.2886 4.40775 12.5217 4.69563 12.5217H6.28734C6.53675 15.2702 8.72968 17.4637 11.4782 17.7126V19.3043C11.4782 19.5929 11.7121 19.826 12 19.826C12.2878 19.826 12.5217 19.5929 12.5217 19.3043V17.7126C15.2703 17.4631 17.4637 15.2702 17.7126 12.5217H19.3043C19.5922 12.5217 19.8261 12.2886 19.8261 11.9999C19.8261 11.7113 19.5922 11.4782 19.3043 11.4782ZM12.5217 16.6647V15.1304C12.5217 14.8417 12.2878 14.6086 12 14.6086C11.7121 14.6086 11.4782 14.8417 11.4782 15.1304V16.6647C9.30568 16.4232 7.57666 14.6947 7.33515 12.5217H8.86954C9.15741 12.5217 9.39128 12.2886 9.39128 11.9999C9.39128 11.7113 9.15741 11.4782 8.86954 11.4782H7.33515C7.57666 9.30511 9.30568 7.5766 11.4782 7.33509V8.86948C11.4782 9.15812 11.7121 9.39122 12 9.39122C12.2878 9.39122 12.5217 9.15812 12.5217 8.86948V7.33509C14.6943 7.5766 16.4233 9.30511 16.6648 11.4782H15.1304C14.8425 11.4782 14.6087 11.7113 14.6087 11.9999C14.6087 12.2886 14.8425 12.5217 15.1304 12.5217H16.6648C16.4233 14.6947 14.6943 16.4232 12.5217 16.6647Z" fill="#4F565E"/>
</svg>
