<svg width="48" height="48" viewBox="0 0 48 48" fill="none" xmlns="http://www.w3.org/2000/svg">
<path d="M36.968 10.4874C38.942 10.7744 39.73 13.2014 38.302 14.5933L32.9021 19.8572L34.1761 27.2891C34.5141 29.2561 32.4501 30.7551 30.6841 29.8271L24.0092 26.3181L17.3344 29.8271C15.5684 30.7551 13.5044 29.2561 13.8424 27.2891L15.1164 19.8572L9.71648 14.5933C8.2885 13.2014 9.07649 10.7744 11.0505 10.4874L18.5133 9.40342L21.8513 2.64153C22.7333 0.852562 25.2852 0.852562 26.1682 2.64153L29.5051 9.40342L36.968 10.4874Z" fill="url(#paint0_linear_1264_7615)"/>
<path d="M34.965 27.1539L33.4234 19.9371C33.3488 19.5016 32.9356 19.2091 32.4998 19.2838C32.0644 19.3585 31.7719 19.772 31.8466 20.2075L33.3881 27.4243C33.6124 28.7316 32.2438 29.7424 31.0565 29.1183L24.3818 25.6093C24.1488 25.4867 23.8703 25.4867 23.6373 25.6093L16.9626 29.1183C15.7852 29.7371 14.4046 28.7433 14.6309 27.4243L15.9057 19.9919C15.9502 19.7324 15.8642 19.4676 15.6756 19.2838L10.2756 14.0202C9.32072 13.0895 9.84431 11.4711 11.1663 11.279L18.6288 10.1946C18.8893 10.1568 19.1146 9.99315 19.2311 9.75706L22.5684 2.99487C23.1586 1.79909 24.8594 1.79689 25.4505 2.99487L28.7879 9.75706C28.9044 9.99315 29.1297 10.1568 29.3902 10.1946L36.8527 11.279C38.1722 11.4707 38.6998 13.0877 37.7433 14.0202L32.3434 19.2838C32.027 19.5922 32.0205 20.0987 32.3289 20.4151C32.6372 20.7316 33.1438 20.738 33.4602 20.4296L38.8601 15.166C40.7631 13.311 39.7114 10.0778 37.0828 9.69576L30.0365 8.67188L26.8852 2.28688C25.7091 -0.0961775 22.3091 -0.0950776 21.1335 2.28688L17.9824 8.67188L10.9361 9.69576C8.30633 10.0779 7.25665 13.3119 9.15872 15.166L14.2575 20.136L13.0539 27.1539C12.6046 29.773 15.356 31.7707 17.707 30.5346L24.0094 27.2213L30.3118 30.5346C32.6639 31.7711 35.4142 29.7721 34.965 27.1539Z" fill="#4F565E"/>
<path d="M45.5302 36.3895C46.5954 36.5443 47.0206 37.854 46.25 38.6051L43.3361 41.4456L44.0236 45.456C44.2059 46.5175 43.0922 47.3263 42.1392 46.8256L38.5373 44.9321L34.9354 46.8256C33.9824 47.3263 32.8687 46.5175 33.0511 45.456L33.7385 41.4456L30.8246 38.6051C30.0541 37.854 30.4793 36.5443 31.5445 36.3895L35.5716 35.8045L37.3728 32.1557C37.8488 31.1903 39.2259 31.1903 39.7023 32.1557L41.503 35.8045L45.5302 36.3895Z" fill="url(#paint1_linear_1264_7615)"/>
<path d="M44.4495 45.383L43.6176 41.4887C43.5774 41.2537 43.3544 41.0958 43.1192 41.1361C42.8842 41.1765 42.7264 41.3996 42.7667 41.6346L43.5986 45.5289C43.7196 46.2344 42.9811 46.7798 42.3403 46.4431L38.7385 44.5495C38.6128 44.4834 38.4625 44.4834 38.3368 44.5495L34.735 46.4431C34.0996 46.777 33.3547 46.2407 33.4768 45.5289L34.1647 41.5182C34.1887 41.3782 34.1423 41.2353 34.0405 41.1361L31.1265 38.2958C30.6113 37.7936 30.8938 36.9203 31.6072 36.8166L35.6341 36.2314C35.7747 36.211 35.8962 36.1227 35.9591 35.9953L37.76 32.3463C38.0785 31.701 38.9963 31.6998 39.3153 32.3463L41.1162 35.9953C41.179 36.1227 41.3006 36.211 41.4412 36.2314L45.4681 36.8166C46.1802 36.92 46.4649 37.7926 45.9487 38.2958L43.0348 41.1361C42.8641 41.3026 42.8606 41.5759 43.027 41.7466C43.1934 41.9174 43.4667 41.9209 43.6375 41.7544L46.5514 38.9141C47.5783 37.9131 47.0107 36.1684 45.5923 35.9622L41.7899 35.4097L40.0895 31.9642C39.4548 30.6783 37.6201 30.6789 36.9857 31.9642L35.2853 35.4097L31.483 35.9622C30.0639 36.1684 29.4974 37.9136 30.5238 38.9141L33.2753 41.596L32.6257 45.383C32.3833 46.7964 33.868 47.8743 35.1367 47.2073L38.5376 45.4194L41.9385 47.2073C43.2078 47.8746 44.6919 46.7959 44.4495 45.383Z" fill="#4F565E"/>
<path d="M16.5304 36.3895C17.5956 36.5443 18.0208 37.854 17.2502 38.6051L14.3363 41.4456L15.0238 45.456C15.2062 46.5175 14.0924 47.3263 13.1395 46.8256L9.53756 44.9321L5.93565 46.8256C4.98269 47.3263 3.86893 46.5175 4.05132 45.456L4.73878 41.4456L1.82487 38.6051C1.05431 37.854 1.47952 36.5443 2.54472 36.3895L6.57185 35.8045L8.37308 32.1557C8.84901 31.1903 10.2261 31.1903 10.7026 32.1557L12.5033 35.8045L16.5304 36.3895Z" fill="url(#paint2_linear_1264_7615)"/>
<path d="M15.4497 45.383L14.6179 41.4887C14.5776 41.2537 14.3546 41.0958 14.1194 41.1361C13.8845 41.1765 13.7266 41.3996 13.7669 41.6346L14.5988 45.5289C14.7198 46.2344 13.9813 46.7798 13.3406 46.4431L9.73878 44.5495C9.61305 44.4834 9.46277 44.4834 9.33704 44.5495L5.73523 46.4431C5.09989 46.777 4.3549 46.2407 4.47701 45.5289L5.16491 41.5182C5.18893 41.3782 5.14252 41.2353 5.04075 41.1361L2.12678 38.2958C1.61151 37.7936 1.89405 36.9203 2.60742 36.8166L6.63433 36.2314C6.7749 36.211 6.89648 36.1227 6.95934 35.9953L8.76025 32.3463C9.07872 31.701 9.9965 31.6998 10.3155 32.3463L12.1164 35.9953C12.1793 36.1227 12.3009 36.211 12.4414 36.2314L16.4683 36.8166C17.1804 36.92 17.4651 37.7926 16.949 38.2958L14.0351 41.1361C13.8643 41.3026 13.8608 41.5759 14.0272 41.7466C14.1936 41.9174 14.467 41.9209 14.6377 41.7544L17.5516 38.9141C18.5785 37.9131 18.011 36.1684 16.5925 35.9622L12.7902 35.4097L11.0897 31.9642C10.4551 30.6783 8.62032 30.6789 7.98595 31.9642L6.28553 35.4097L2.4832 35.9622C1.06412 36.1684 0.497693 37.9136 1.52409 38.9141L4.27552 41.596L3.62599 45.383C3.38354 46.7964 4.86829 47.8743 6.13692 47.2073L9.53783 45.4194L12.9387 47.2073C14.208 47.8746 15.6921 46.7959 15.4497 45.383Z" fill="#4F565E"/>
<path d="M47.9809 23.639C47.8696 22.9307 47.4432 22.3261 46.811 21.9803L45.9616 21.5157L45.497 20.6663C44.6246 19.0708 42.3277 19.071 41.4552 20.6663L40.9906 21.5157L40.1412 21.9803C38.5455 22.8531 38.5458 25.1497 40.1412 26.0222L40.9906 26.4868L41.4552 27.3362C42.3277 28.9316 44.6245 28.9318 45.497 27.3362L47.9034 24.2679C48.1154 23.8803 47.9731 23.3941 47.5854 23.1821C47.198 22.9702 46.712 23.1124 46.4998 23.5L44.0934 26.5684C43.8266 27.0564 43.1264 27.0572 42.859 26.5684L42.282 25.5136C42.2087 25.3794 42.0982 25.269 41.964 25.1956L40.909 24.6185C40.4207 24.3515 40.4203 23.6514 40.909 23.384L41.964 22.807C42.0983 22.7336 42.2086 22.6232 42.282 22.4889L42.859 21.434C43.126 20.9459 43.8261 20.9453 44.0935 21.434L44.6705 22.489C44.7439 22.6232 44.8543 22.7336 44.9885 22.807L46.0435 23.384C46.3081 23.5287 46.3808 23.7614 46.4005 23.8873C46.4692 24.3238 46.8785 24.6219 47.315 24.5535C47.7512 24.4849 48.0494 24.0755 47.9809 23.639Z" fill="#4F565E"/>
<path d="M1.20799 22.4352L2.05738 22.8997L2.52197 23.7491C3.39466 25.3446 5.69142 25.3445 6.5639 23.7491L9.06096 21.0315C9.27296 20.6439 9.13056 20.1578 8.74297 19.9458C8.35517 19.7338 7.86918 19.8761 7.65729 20.2639L5.16023 22.9814C4.89323 23.4695 4.19314 23.4702 3.92575 22.9814L3.34866 21.9264C3.27526 21.7922 3.16486 21.6818 3.03066 21.6084L1.97568 21.0315C1.48759 20.7645 1.48699 20.0643 1.97568 19.797L3.03066 19.22C3.16486 19.1466 3.27516 19.0362 3.34866 18.902L3.92575 17.8471C4.19274 17.3591 4.89283 17.3584 5.16023 17.8471L5.73722 18.902C5.81052 19.0363 5.92101 19.1466 6.05521 19.2201L7.11019 19.7971C7.41649 19.9646 7.49759 20.269 7.47139 20.498C7.42119 20.937 7.73628 21.3335 8.17528 21.3837C8.61437 21.4338 9.01076 21.1188 9.06096 20.6798C9.16816 19.7425 8.70377 18.8451 7.87788 18.3934L7.0285 17.9288L6.5639 17.0794C5.69132 15.4839 3.39446 15.484 2.52207 17.0794L2.05748 17.9288L1.20809 18.3934C-0.387381 19.2658 -0.387381 21.5626 1.20799 22.4352Z" fill="#4F565E"/>
<defs>
<linearGradient id="paint0_linear_1264_7615" x1="8.9873" y1="15.7043" x2="39.0312" y2="15.7043" gradientUnits="userSpaceOnUse">
<stop stop-color="#00C96D"/>
<stop offset="1" stop-color="#048AD7"/>
</linearGradient>
<linearGradient id="paint1_linear_1264_7615" x1="30.4312" y1="39.2046" x2="46.6435" y2="39.2046" gradientUnits="userSpaceOnUse">
<stop stop-color="#00C96D"/>
<stop offset="1" stop-color="#048AD7"/>
</linearGradient>
<linearGradient id="paint2_linear_1264_7615" x1="1.4314" y1="39.2046" x2="17.6437" y2="39.2046" gradientUnits="userSpaceOnUse">
<stop stop-color="#00C96D"/>
<stop offset="1" stop-color="#048AD7"/>
</linearGradient>
</defs>
</svg>
