<svg width="24" height="24" viewBox="0 0 24 24" fill="none" xmlns="http://www.w3.org/2000/svg">
<g clip-path="url(#clip0_1056_4030)">
<path d="M0.521729 6.78281V10.9567L2.60867 9.81931L11.9999 4.69586L21.3912 9.81931L23.4781 10.9567V6.78281L11.9999 0.521973L0.521729 6.78281Z" fill="url(#paint0_linear_1056_4030)"/>
<path d="M11.9998 20.3478C14.8813 20.3478 17.2172 18.0119 17.2172 15.1304C17.2172 12.249 14.8813 9.91309 11.9998 9.91309C9.11836 9.91309 6.78247 12.249 6.78247 15.1304C6.78247 18.0119 9.11836 20.3478 11.9998 20.3478Z" fill="url(#paint1_linear_1056_4030)"/>
<path d="M23.728 6.32462L12.2498 0.0637823C12.0938 -0.0212608 11.906 -0.0212608 11.75 0.0637823L0.271825 6.32462C0.104347 6.41592 0 6.59175 0 6.7827V10.9566C0 11.1408 0.097043 11.3114 0.255129 11.4053C0.413215 11.4992 0.609388 11.5028 0.771126 11.4147L2.08695 10.6978V23.4783C2.08695 23.7663 2.32068 24 2.60868 24H21.3912C21.6792 24 21.9129 23.7663 21.9129 23.4783V10.6973L23.2282 11.4147C23.3065 11.4569 23.392 11.4783 23.4781 11.4783C23.5705 11.4783 23.6628 11.4538 23.7447 11.4053C23.9028 11.3114 23.9999 11.1408 23.9999 10.9566V6.7827C23.9999 6.59175 23.8955 6.41592 23.728 6.32462ZM20.8694 22.9565H3.13042V10.1291L11.9999 5.29054L20.8694 10.1286V22.9565ZM22.9564 10.078L12.2498 4.23767C12.0938 4.15263 11.906 4.15263 11.75 4.23767L1.04347 10.078V7.09261L11.9999 1.11612L22.9564 7.09261V10.078Z" fill="#4F565E"/>
<path d="M6.26074 15.1307C6.26074 18.295 8.83551 20.8698 11.9998 20.8698C15.1642 20.8698 17.7389 18.295 17.7389 15.1307C17.7389 11.9664 15.1642 9.3916 11.9998 9.3916C8.83551 9.3916 6.26074 11.9664 6.26074 15.1307ZM12.5216 15.1307V10.4659C14.8657 10.7267 16.6955 12.7182 16.6955 15.1307C16.6955 17.7196 14.5887 19.8263 11.9998 19.8263C9.41099 19.8263 7.30421 17.7196 7.30421 15.1307C7.30421 12.7182 9.13394 10.7267 11.4781 10.4659V15.1307C11.4781 15.4187 11.7118 15.6524 11.9998 15.6524C12.2878 15.6524 12.5216 15.4187 12.5216 15.1307Z" fill="#4F565E"/>
</g>
<defs>
<linearGradient id="paint0_linear_1056_4030" x1="0.521729" y1="5.73933" x2="23.4781" y2="5.73934" gradientUnits="userSpaceOnUse">
<stop stop-color="#00C96D"/>
<stop offset="1" stop-color="#048AD7"/>
</linearGradient>
<linearGradient id="paint1_linear_1056_4030" x1="6.78247" y1="15.1304" x2="17.2172" y2="15.1304" gradientUnits="userSpaceOnUse">
<stop stop-color="#00C96D"/>
<stop offset="1" stop-color="#048AD7"/>
</linearGradient>
<clipPath id="clip0_1056_4030">
<rect width="24" height="24" fill="white"/>
</clipPath>
</defs>
</svg>
