<svg width="48" height="48" viewBox="0 0 48 48" fill="none" xmlns="http://www.w3.org/2000/svg">
<rect width="48" height="48" rx="8" fill="url(#paint0_linear_3731_24919)"/>
<g clip-path="url(#clip0_3731_24919)">
<path d="M24.1968 33.9999C24.1306 33.9999 24.0644 33.9999 23.9977 33.9996C22.43 34.0035 20.9815 33.9636 19.5728 33.8779C18.2813 33.7993 17.1024 33.353 16.1634 32.5873C15.2573 31.8485 14.6386 30.8495 14.3244 29.6184C14.051 28.5466 14.0365 27.4945 14.0226 26.4769C14.0125 25.7468 14.0021 24.8816 14 24.0018C14.0021 23.1183 14.0125 22.2531 14.0226 21.523C14.0365 20.5055 14.051 19.4534 14.3244 18.3815C14.6386 17.1504 15.2573 16.1514 16.1634 15.4126C17.1024 14.6469 18.2813 14.2006 19.573 14.122C20.9817 14.0364 22.4305 13.9964 24.0015 14.0002C25.5697 13.9969 27.0177 14.0364 28.4264 14.122C29.7179 14.2006 30.8968 14.6469 31.8358 15.4126C32.7421 16.1514 33.3607 17.1504 33.6748 18.3815C33.9483 19.4533 33.9628 20.5055 33.9767 21.523C33.9867 22.2531 33.9973 23.1183 33.9992 23.9981V24.0018C33.9973 24.8816 33.9867 25.7468 33.9767 26.4769C33.9628 27.4944 33.9484 28.5465 33.6748 29.6184C33.3607 30.8495 32.7421 31.8485 31.8358 32.5873C30.8968 33.353 29.7179 33.7993 28.4264 33.8779C27.0774 33.96 25.6916 33.9999 24.1968 33.9999V33.9999ZM23.9977 32.4371C25.5399 32.4408 26.9559 32.4019 28.3315 32.3183C29.3081 32.2589 30.1548 31.942 30.8484 31.3763C31.4896 30.8534 31.9312 30.132 32.1609 29.232C32.3885 28.3399 32.4016 27.3819 32.4143 26.4555C32.4242 25.7303 32.4346 24.8712 32.4367 23.9999C32.4346 23.1285 32.4242 22.2696 32.4143 21.5443C32.4016 20.618 32.3885 19.66 32.1609 18.7677C31.9312 17.8677 31.4896 17.1463 30.8484 16.6234C30.1548 16.0579 29.3081 15.741 28.3315 15.6816C26.9559 15.5978 25.5399 15.5592 24.0014 15.5626C22.4595 15.5589 21.0433 15.5978 19.6677 15.6816C18.6912 15.741 17.8445 16.0579 17.1508 16.6234C16.5096 17.1463 16.068 17.8677 15.8384 18.7677C15.6107 19.66 15.5976 20.6178 15.5849 21.5443C15.575 22.2702 15.5646 23.1297 15.5625 24.0018C15.5646 24.87 15.575 25.7297 15.5849 26.4555C15.5976 27.3819 15.6107 28.3399 15.8384 29.232C16.068 30.132 16.5096 30.8534 17.1508 31.3763C17.8445 31.9418 18.6912 32.2588 19.6677 32.3181C21.0433 32.4019 22.4598 32.441 23.9977 32.4371V32.4371ZM23.9605 28.8828C21.2682 28.8828 19.0777 26.6924 19.0777 23.9999C19.0777 21.3075 21.2682 19.1171 23.9605 19.1171C26.6529 19.1171 28.8433 21.3075 28.8433 23.9999C28.8433 26.6924 26.6529 28.8828 23.9605 28.8828V28.8828ZM23.9605 20.6796C22.1297 20.6796 20.6402 22.1692 20.6402 23.9999C20.6402 25.8307 22.1297 27.3203 23.9605 27.3203C25.7914 27.3203 27.2808 25.8307 27.2808 23.9999C27.2808 22.1692 25.7914 20.6796 23.9605 20.6796V20.6796ZM29.3902 17.5546C28.743 17.5546 28.2183 18.0792 28.2183 18.7265C28.2183 19.3738 28.743 19.8984 29.3902 19.8984C30.0374 19.8984 30.562 19.3738 30.562 18.7265C30.562 18.0792 30.0374 17.5546 29.3902 17.5546Z" fill="white"/>
</g>
<defs>
<linearGradient id="paint0_linear_3731_24919" x1="0" y1="24" x2="48" y2="24" gradientUnits="userSpaceOnUse">
<stop stop-color="#00C96D"/>
<stop offset="1" stop-color="#048AD7"/>
</linearGradient>
<clipPath id="clip0_3731_24919">
<rect width="20" height="20" fill="white" transform="translate(14 14)"/>
</clipPath>
</defs>
</svg>
