<svg width="20" height="20" viewBox="0 0 20 20" fill="none" xmlns="http://www.w3.org/2000/svg">
<rect width="20" height="20" rx="2" fill="url(#paint0_linear_1080_5429)"/>
<path fill-rule="evenodd" clip-rule="evenodd" d="M13.2041 4H13.5C14.0515 4 14.5 4.44848 14.5 5.00001V15C14.5 15.5515 14.0515 16 13.5 16H13.2041C13.0984 16 13.0039 15.9333 12.9685 15.8337C12.8977 15.634 12.7093 15.5 12.5 15.5C12.2908 15.5 12.1023 15.634 12.0315 15.8337C11.9961 15.9333 11.9016 16 11.7959 16H10.7041C10.5984 16 10.5039 15.9333 10.4685 15.8337C10.3977 15.634 10.2093 15.5 10 15.5C9.7908 15.5 9.60231 15.634 9.53151 15.8337C9.49612 15.9333 9.40162 16 9.29591 16H8.20413C8.09842 16 8.00392 15.9333 7.96853 15.8337C7.89773 15.634 7.70924 15.5 7.50002 15.5C7.29079 15.5 7.1023 15.634 7.0315 15.8337C6.99611 15.9333 6.90161 16 6.79591 16H6.50001C5.94848 16 5.5 15.5515 5.5 15V5.00001C5.5 4.44848 5.94848 4 6.50001 4H6.79591C6.90161 4 6.99609 4.06666 7.03148 4.16627C7.10228 4.36598 7.29077 4.50002 7.49999 4.50002C7.70922 4.50002 7.8977 4.36598 7.96851 4.16627C8.0039 4.06666 8.0984 4 8.2041 4H9.29589C9.40162 4 9.49609 4.06666 9.53148 4.16627C9.60229 4.36598 9.79077 4.50002 10 4.50002C10.2092 4.50002 10.3977 4.36598 10.4685 4.16627C10.5039 4.06666 10.5984 4 10.7041 4H11.7959C11.9016 4 11.9961 4.06666 12.0315 4.16627C12.1023 4.36598 12.2908 4.50002 12.5 4.50002C12.7092 4.50002 12.8977 4.36598 12.9685 4.16627C13.0039 4.06666 13.0984 4 13.2041 4ZM12.1998 11.1579H9.25738C9.48805 10.872 9.63974 10.5465 9.69566 10.207H11.3098V9.43687H9.6643C9.645 9.34756 9.62268 9.26142 9.60101 9.17774L9.60036 9.17524C9.53357 8.91731 9.4698 8.66939 9.4698 8.31371C9.4698 7.9181 9.82292 7.56992 10.2898 7.56992C10.7567 7.56992 11.1098 7.9181 11.1098 8.31371V8.51371H11.9098V8.31371C11.9098 7.46443 11.1683 6.7998 10.2898 6.7998C9.41126 6.7998 8.6698 7.46443 8.6698 8.31371C8.6698 8.76578 8.75364 9.08949 8.82348 9.35916L8.82416 9.36178L8.8435 9.43687H8.29981V10.207H8.87899C8.80101 10.4843 8.62765 10.6968 8.50537 10.8184C8.38136 10.9418 8.25756 11.0275 8.15786 11.0815C8.10793 11.1085 8.06574 11.1267 8.03425 11.1376C8.01281 11.145 8.0008 11.1475 7.99689 11.1483L7.99548 11.1487H7.7998V11.928H12.1998V11.1579Z" fill="white"/>
<defs>
<linearGradient id="paint0_linear_1080_5429" x1="0" y1="10" x2="20" y2="10" gradientUnits="userSpaceOnUse">
<stop stop-color="#00C96D"/>
<stop offset="1" stop-color="#048AD7"/>
</linearGradient>
</defs>
</svg>
