<svg width="22" height="22" viewBox="0 0 22 22" fill="none" xmlns="http://www.w3.org/2000/svg">
<path d="M0.15 11C0.15 5.01731 5.01731 0.15 11 0.15C16.9827 0.15 21.85 5.01731 21.85 11C21.85 16.9827 16.9827 21.85 11 21.85C5.01731 21.85 0.15 16.9827 0.15 11ZM1.14412 11C1.14412 16.4347 5.56533 20.8559 11 20.8559C16.4347 20.8559 20.8559 16.4347 20.8559 11C20.8559 5.56533 16.4347 1.14412 11 1.14412C5.56533 1.14412 1.14412 5.56533 1.14412 11Z" fill="#4F565E" stroke="white" stroke-width="0.3"/>
<circle cx="11" cy="11" r="10" fill="url(#paint0_linear_1202_17597)"/>
<path d="M11.0002 3.78232C7.02058 3.78232 3.78257 7.02033 3.78257 11C3.78257 14.9796 7.02058 18.2176 11.0002 18.2176C14.9799 18.2176 18.2179 14.9796 18.2179 11C18.2179 7.02033 14.9799 3.78232 11.0002 3.78232ZM11.0002 16.7235C7.8441 16.7235 5.27669 14.1555 5.27669 11C5.27669 7.84449 7.8441 5.27644 11.0002 5.27644C14.1563 5.27644 16.7237 7.84449 16.7237 11C16.7237 14.1555 14.1563 16.7235 11.0002 16.7235Z" fill="#4F565E" stroke="url(#paint1_linear_1202_17597)" stroke-width="0.2"/>
<circle cx="11.0001" cy="11.0003" r="6.20098" fill="white"/>
<path d="M10.3533 4.7583H11.6468V11.0185H10.3533V4.7583Z" fill="#4F565E"/>
<defs>
<linearGradient id="paint0_linear_1202_17597" x1="1" y1="11" x2="21" y2="11" gradientUnits="userSpaceOnUse">
<stop stop-color="#00C96D"/>
<stop offset="1" stop-color="#048AD7"/>
</linearGradient>
<linearGradient id="paint1_linear_1202_17597" x1="3.88257" y1="11" x2="18.1179" y2="11" gradientUnits="userSpaceOnUse">
<stop stop-color="#00C96D"/>
<stop offset="1" stop-color="#048AD7"/>
</linearGradient>
</defs>
</svg>
