<svg width="16" height="24" viewBox="0 0 16 24" fill="none" xmlns="http://www.w3.org/2000/svg">
<path d="M6.81839 11.6084L6.50297 14.4448C6.48736 14.5859 6.53227 14.7275 6.627 14.8335C6.72272 14.9395 6.85749 15 7.00003 15H9.00005C9.14264 15 9.27741 14.9395 9.37308 14.8335C9.46781 14.7276 9.51272 14.586 9.49711 14.4448L9.18169 11.6084C9.69342 11.2359 10 10.6465 10 10C10 8.897 9.10256 8 8.00002 8C6.89747 8 6 8.89695 6 10C6 10.6465 6.30666 11.2359 6.81839 11.6084Z" fill="#4F565E"/>
<path d="M7.50002 4.00003H8.5C8.77637 4.00003 9.00002 3.77639 9.00002 3.50002C9.00002 3.22364 8.77637 3 8.5 3H7.50002C7.22364 3 7 3.22364 7 3.50002C7.00005 3.77644 7.22369 4.00003 7.50002 4.00003Z" fill="#4F565E"/>
<path d="M14 0H2.00002C0.897 0 0 0.896953 0 2.00002V22C0 23.103 0.897 24 2.00002 24H14C15.103 24 16 23.103 16 22V2.00002C16 0.896953 15.103 0 14 0ZM9.50002 22H6.50002C6.22364 22 6 21.7763 6 21.5C6 21.2236 6.22364 21 6.50002 21H9.50002C9.77639 21 10 21.2236 10 21.5C10 21.7764 9.77639 22 9.50002 22ZM14 19H2.00002V2.00002H14V19Z" fill="#4F565E"/>
<path d="M12.5 4.00003C12.7762 4.00003 13 3.77617 13 3.50002C13 3.22386 12.7762 3 12.5 3C12.2239 3 12 3.22386 12 3.50002C12 3.77617 12.2239 4.00003 12.5 4.00003Z" fill="#4F565E"/>
</svg>
