<svg width="21" height="16" viewBox="0 0 21 16" fill="none" xmlns="http://www.w3.org/2000/svg">
<path d="M18.0117 0.5H3.01174C1.63294 0.5 0.511719 1.62122 0.511719 2.99997V13C0.511719 14.3788 1.63294 15.5 3.01174 15.5H18.0117C19.3905 15.5 20.5118 14.3788 20.5118 13V2.99997C20.5117 1.62122 19.3905 0.5 18.0117 0.5ZM3.01174 13V10.5C4.39054 10.5 5.51175 11.6212 5.51175 13H3.01174ZM3.01174 5.49999V2.99997H5.51175C5.51171 4.37877 4.39049 5.49999 3.01174 5.49999ZM10.5117 11.75C9.0634 11.75 8.01172 10.1729 8.01172 8.00001C8.01172 5.82716 9.06335 4.25003 10.5117 4.25003C11.9601 4.25003 13.0118 5.82716 13.0118 8.00001C13.0118 10.1729 11.9601 11.75 10.5117 11.75ZM18.0117 13H15.5117C15.5117 11.6212 16.6329 10.5 18.0117 10.5V13ZM18.0117 5.49999C16.6329 5.49999 15.5117 4.37877 15.5117 2.99997H18.0117V5.49999Z" fill="#4F565E"/>
</svg>
