<svg width="24" height="24" viewBox="0 0 24 24" fill="none" xmlns="http://www.w3.org/2000/svg">
<path d="M9.91299 10.5185C11.7547 9.71502 13.0434 7.87849 13.0434 5.73936C13.0434 2.85936 10.706 0.521973 7.82603 0.521973C4.94603 0.521973 2.60864 2.85936 2.60864 5.73936C2.60864 7.87849 3.89734 9.71502 5.73908 10.5185V5.73936C5.73908 4.58632 6.67299 3.65241 7.82603 3.65241C8.97908 3.65241 9.91299 4.58632 9.91299 5.73936V10.5185Z" fill="url(#paint0_linear_1119_5567)"/>
<path d="M3.65215 14.6087C2.21372 14.6087 1.04346 15.779 1.04346 17.2174V23.4783C1.04346 23.7663 1.2772 24 1.5652 24C1.8532 24 2.08694 23.7663 2.08694 23.4783V17.2174C2.08694 16.3544 2.7892 15.6522 3.65215 15.6522C4.51511 15.6522 5.21737 16.3544 5.21737 17.2174V21.3913C5.21737 21.6793 5.45111 21.913 5.73911 21.913C6.02711 21.913 6.26085 21.6793 6.26085 21.3913V10.5245V10.524V5.73913C6.26085 4.87617 6.96311 4.17391 7.82607 4.17391C8.68902 4.17391 9.39128 4.87617 9.39128 5.73913V10.524V10.5245V13.0435V17.2174C9.39128 17.5054 9.62502 17.7391 9.91302 17.7391C10.201 17.7391 10.4348 17.5054 10.4348 17.2174V13.0435C10.4348 12.1805 11.137 11.4783 12 11.4783C12.8629 11.4783 13.5652 12.1805 13.5652 13.0435V17.2174C13.5652 17.5054 13.7984 17.7391 14.0869 17.7391C14.3755 17.7391 14.6087 17.5054 14.6087 17.2174V13.0435C14.6087 12.1805 15.3109 11.4783 16.1739 11.4783C17.0368 11.4783 17.7391 12.1805 17.7391 13.0435V17.2174C17.7391 17.5054 17.9723 17.7391 18.2608 17.7391C18.5494 17.7391 18.7826 17.5054 18.7826 17.2174V15.1304C18.7826 14.2675 19.4848 13.5652 20.3478 13.5652C21.2108 13.5652 21.913 14.2675 21.913 15.1304V23.4783C21.913 23.7663 22.1462 24 22.4348 24C22.7233 24 22.9565 23.7663 22.9565 23.4783V15.1304C22.9565 13.692 21.7862 12.5217 20.3478 12.5217C19.7582 12.5217 19.2198 12.7257 18.7826 13.057V13.0435C18.7826 11.605 17.6123 10.4348 16.1739 10.4348C15.3214 10.4348 14.5633 10.8459 14.0869 11.4798C13.6106 10.8459 12.8525 10.4348 12 10.4348C11.413 10.4348 10.8709 10.6299 10.4348 10.9576V10.8459C12.3464 9.87078 13.5652 7.90383 13.5652 5.73913C13.5652 2.57478 10.9904 0 7.82607 0C4.66172 0 2.08694 2.57478 2.08694 5.73913C2.08694 7.90383 3.30572 9.87078 5.21737 10.8459V15.1435C4.78015 14.8127 4.24172 14.6087 3.65215 14.6087ZM3.13041 5.73913C3.13041 3.15026 5.2372 1.04348 7.82607 1.04348C10.4149 1.04348 12.5217 3.15026 12.5217 5.73913C12.5217 7.32209 11.7208 8.77043 10.4348 9.6313V5.73913C10.4348 4.3007 9.2645 3.13043 7.82607 3.13043C6.38763 3.13043 5.21737 4.3007 5.21737 5.73913V9.6313C3.93128 8.77043 3.13041 7.32209 3.13041 5.73913Z" fill="#4F565E"/>
<defs>
<linearGradient id="paint0_linear_1119_5567" x1="2.60864" y1="5.52023" x2="13.0434" y2="5.52023" gradientUnits="userSpaceOnUse">
<stop stop-color="#00C96D"/>
<stop offset="1" stop-color="#048AD7"/>
</linearGradient>
</defs>
</svg>
