<svg width="335" height="335" viewBox="0 0 335 335" fill="none" xmlns="http://www.w3.org/2000/svg">
<path d="M311.215 76.0247C310.152 74.2381 309.035 72.4737 307.865 70.7317C292.341 47.7172 265.615 31.9789 239.324 24.8635C227.789 21.7951 215.939 20.0663 204.008 19.7112C125.873 17.0312 94.7514 78.6712 68.9296 94.5301C43.1078 110.389 3.35001 137.571 6.03001 194.514C8.71001 251.458 49.7274 305.064 129.183 308.414C208.638 311.764 213.938 275.973 258.298 262.727C287.658 253.963 308.548 224.363 318.732 197.007C332.655 159.714 331.998 111.294 311.215 76.0247Z" fill="#F3F7FA"/>
<path d="M311.215 76.0247C310.152 74.2381 309.035 72.4737 307.865 70.7317C292.341 47.7172 265.615 31.9789 239.324 24.8635C227.789 21.7951 215.939 20.0663 204.008 19.7112C125.873 17.0312 94.7514 78.6712 68.9296 94.5301C43.1078 110.389 3.35001 137.571 6.03001 194.514C8.71001 251.458 49.7274 305.064 129.183 308.414C208.638 311.764 213.938 275.973 258.298 262.727C287.658 253.963 308.548 224.363 318.732 197.007C332.655 159.714 331.998 111.294 311.215 76.0247Z" fill="#F3F7FA"/>
<path d="M43.416 311H328.287" stroke="#4F565E" stroke-miterlimit="10"/>
<path d="M207.158 179.37C207.158 179.37 201.252 212.525 199.957 218.131C198.663 223.737 195.494 252.316 195.494 259.418C195.494 266.52 196.044 287.975 196.044 287.975C196.044 287.975 193.641 289.094 193.641 290.026C193.641 290.958 195.494 296.94 195.494 296.94L206.4 301.05C206.4 301.05 208.631 295.79 208.803 293.949C208.974 292.108 207.508 291.334 207.508 288.155C207.508 284.976 213.058 247.995 214.724 241.833C216.39 235.671 221.196 217.177 222.119 215.494C223.041 213.81 227.668 201.486 227.668 201.486L230.257 202.794C230.257 202.794 231.916 241.645 232.846 244.073C233.776 246.5 246.177 286.058 246.177 286.058C246.177 286.058 244.146 286.99 245.433 289.237C246.72 291.484 248.944 296.519 248.944 296.519C248.944 296.519 250.983 293.716 253.408 293.16C255.833 292.604 259.88 295.023 259.88 295.023C259.88 295.023 262.283 289.417 261.725 286.81C261.167 284.202 258.749 279.708 258.585 278.401C258.422 277.093 253.378 239.429 253.378 239.429C253.378 239.429 254.672 186.749 254.672 183.202C254.603 180.782 254.167 178.387 253.378 176.101C245.62 178.79 237.526 180.363 229.335 180.775C216.204 181.331 208.996 175.92 208.996 175.92L207.158 179.37Z" fill="#292F3B" stroke="#292F3B" stroke-miterlimit="10"/>
<path d="M195.524 296.962C195.524 296.962 189.416 302.561 188.308 303.312C187.199 304.064 179.433 307.07 179.619 308.573C179.805 310.076 181.85 311 181.85 311H207.002C207.002 311 207.181 310.249 207.553 306.702C207.731 304.402 207.35 302.093 206.444 299.976L195.524 296.962Z" fill="white" stroke="#292F3B" stroke-miterlimit="10"/>
<path d="M207.367 308.272L179.752 309.024C180.228 309.873 180.957 310.549 181.835 310.955H206.987C206.987 310.955 207.114 310.452 207.367 308.272Z" fill="white" stroke="#292F3B" stroke-miterlimit="10"/>
<path d="M248.959 296.518C248.959 296.518 248.773 301.185 248.773 303.62C248.773 306.054 248.409 308.88 248.587 309.406C248.766 309.932 249.145 310.909 249.145 310.909H263.756C263.756 310.909 264.306 309.406 263.57 306.61C262.833 303.815 261.531 302.319 261.167 299.847C260.884 298.192 260.451 296.567 259.873 294.992C259.873 294.992 252.657 289.236 248.959 296.518Z" fill="white" stroke="#292F3B" stroke-miterlimit="10"/>
<path d="M263.949 309.136C258.392 309.136 251.473 308.956 248.535 308.88C248.534 309.057 248.551 309.233 248.587 309.406C248.773 309.97 249.145 310.909 249.145 310.909H263.755C263.916 310.333 263.982 309.734 263.949 309.136Z" fill="white" stroke="#292F3B" stroke-miterlimit="10"/>
<path d="M201.914 109.038C201.914 109.038 186.202 123.94 186.887 125.33C187.571 126.72 191.871 138 191.871 138C191.871 138 193.106 145.515 192.421 150.257C192.003 153.256 191.864 156.287 192.005 159.312C193.449 161.151 195.214 162.707 197.212 163.904C200.247 165.58 202.591 168.503 204.525 163.769C206.459 159.034 205.626 150.535 205.626 150.535C205.626 150.535 208.237 160.845 208.676 162.664C209.115 164.483 207.188 179.377 207.188 179.377C207.188 179.377 216.666 187.463 232.786 185.629C248.907 183.796 254.018 178.115 254.018 178.115C254.018 178.115 252.359 159.868 252.359 157.779C252.343 156.335 252.251 154.893 252.084 153.458C252.084 153.458 257.737 159.312 260.497 159.034C263.257 158.756 268.078 147.334 266.836 145.508C265.593 143.681 261.323 136.302 258.704 131.011C257.126 127.823 255.812 124.507 254.777 121.099C254.777 121.099 250.224 105.498 248.825 104.386C247.427 103.274 231.938 103.447 229.178 102.755C225.534 102.031 221.85 101.529 218.146 101.252C217.224 101.237 204.949 104.161 201.914 109.038Z" fill="#048AD7" stroke="#292F3B" stroke-miterlimit="10"/>
<path d="M252.328 153.075C251.081 150.131 249.992 147.102 249.068 144.003C248.416 141.748 248.072 133.697 247.887 126.156" stroke="#292F3B" stroke-miterlimit="10"/>
<path d="M205.695 150.831C205.695 150.831 200.866 143.575 196.812 137.372" stroke="#292F3B" stroke-miterlimit="10"/>
<path d="M223.562 103.184C224.13 108.087 224.177 113.037 223.703 117.95" stroke="#292F3B" stroke-miterlimit="10"/>
<path d="M191.99 86.4703C191.99 86.4703 193.641 94.2707 193.783 95.9466C193.924 97.6224 194.333 99.8468 196.401 103.183C198.47 106.52 203.841 113.907 204.949 114.328C206.057 114.749 210.328 113.629 210.328 113.629C210.328 113.629 214.873 122.684 216.115 122.406C217.358 122.128 220.527 111.818 220.943 107.64C221.206 105.561 221.251 103.46 221.077 101.372L219.15 94.4135C219.15 94.4135 217.499 84.6442 217.499 83.9679C217.499 83.2915 218.459 78.2566 213.087 76.1674C207.716 74.0783 201.088 73.913 196.677 79.0907C192.265 84.2685 191.99 86.4703 191.99 86.4703Z" fill="white" stroke="#292F3B" stroke-miterlimit="10"/>
<path d="M206.749 77.7006C204.816 80.6655 202.28 83.181 199.31 85.0802C194.214 88.4244 196.692 84.8022 196.692 84.8022C196.692 84.8022 193.106 87.0566 190.212 88.5596C187.318 90.0626 188.419 90.5135 187.318 90.0626C186.217 89.6117 182.111 77.7532 191.328 72.0269C200.545 66.3006 207.27 67.8111 207.27 67.8111C207.27 67.8111 203.268 66 206.854 66C210.439 66 211.957 67.9764 211.957 67.9764C211.957 67.9764 213.884 67.4203 214.709 68.5325C215.071 68.9297 215.523 69.2316 216.026 69.4118C220.49 71.3205 222.044 75.589 222.885 80.0453C223.435 82.9686 221.092 89.9348 221.092 89.9348L217.224 92.024C216.286 91.1612 215.528 90.1191 214.992 88.9579C214.64 87.8319 214.454 86.6594 214.441 85.4785C214.441 85.4785 212.098 88.5371 211.682 86.3127C211.265 84.0883 210.194 78.377 210.194 78.377C210.194 78.377 210.61 80.6314 209.234 80.6314C207.858 80.6314 206.749 77.7006 206.749 77.7006Z" fill="#292F3B" stroke="#292F3B" stroke-miterlimit="10"/>
<path d="M216.941 93.0161C216.941 93.0161 216.807 88.2817 219.567 86.7486C222.327 85.2156 224.254 86.8914 223.421 91.3478C222.587 95.8041 217.633 97.4724 217.633 97.4724" fill="white"/>
<path d="M216.941 93.0161C216.941 93.0161 216.807 88.2817 219.567 86.7486C222.327 85.2156 224.254 86.8914 223.421 91.3478C222.587 95.8041 217.633 97.4724 217.633 97.4724" stroke="#292F3B" stroke-miterlimit="10"/>
<path d="M210.328 113.629L217.633 106.25L212.805 117.529L210.328 113.629Z" fill="#292F3B" stroke="#292F3B" stroke-miterlimit="10"/>
<path d="M206.487 106.355L206.499 106.385L206.515 106.414C206.608 106.578 206.637 106.772 206.594 106.957C206.557 107.12 206.467 107.265 206.341 107.369C206.279 107.378 206.184 107.366 206.057 107.283C205.898 107.18 205.731 106.985 205.622 106.712C205.514 106.438 205.501 106.177 205.544 105.985C205.589 105.791 205.675 105.719 205.728 105.697C205.775 105.678 205.88 105.666 206.043 105.774C206.204 105.881 206.375 106.079 206.487 106.355Z" fill="#292F3B" stroke="#292F3B"/>
<path d="M208.376 93.4169C208.489 93.7921 208.497 94.1352 208.442 94.3778C208.383 94.6376 208.286 94.6794 208.28 94.6813C208.279 94.6814 208.178 94.7063 207.982 94.5237C207.801 94.3543 207.615 94.0666 207.503 93.6972C207.39 93.3264 207.382 92.9853 207.437 92.7436C207.496 92.4848 207.593 92.4428 207.6 92.4408C207.602 92.4399 207.704 92.4163 207.898 92.596C208.079 92.7632 208.264 93.0482 208.376 93.4169Z" fill="#292F3B" stroke="#292F3B"/>
<path d="M199.323 94.9666C199.436 95.3411 199.443 95.683 199.388 95.9244C199.329 96.1818 199.231 96.2252 199.221 96.2285C199.213 96.231 199.112 96.2527 198.923 96.0756C198.746 95.9086 198.563 95.6218 198.45 95.2462C198.336 94.8689 198.327 94.5274 198.381 94.2877C198.438 94.0338 198.534 93.9925 198.544 93.9893C198.552 93.9867 198.653 93.9652 198.844 94.1426C199.022 94.3093 199.206 94.5947 199.323 94.9666Z" fill="#292F3B" stroke="#292F3B"/>
<path d="M200.128 91.3481C200.74 91.8534 201.231 92.4914 201.564 93.2149C201.898 93.9383 202.066 94.7284 202.055 95.5264C202.055 98.3144 201.639 102.493 201.639 102.493L206.608 101.794" stroke="#292F3B" stroke-miterlimit="10"/>
<path d="M203.432 89.5367C203.432 89.5367 205.916 85.0804 209.777 85.9146" stroke="#292F3B" stroke-miterlimit="10"/>
<path d="M199.02 90.3711C199.02 90.3711 195.992 89.4017 193.924 90.6492" stroke="#292F3B" stroke-miterlimit="10"/>
<path d="M283.373 126.165C283.373 126.165 286.408 125.052 287.509 124.662C288.61 124.271 289.741 124.94 291.645 123.97C293.55 123.001 295.781 121.039 295.923 122.467C296.064 123.895 295.365 124.414 294.264 125.112C293.163 125.811 291.37 127.202 291.37 127.202L290.819 128.592L282.547 127.9C282.547 127.9 282.703 126.593 283.373 126.165Z" fill="white" stroke="#292F3B" stroke-miterlimit="10"/>
<path d="M299.999 129.763C299.999 129.763 303.801 126.72 304.351 125.33C304.902 123.939 303.935 123.827 302.975 124.353C302.015 124.879 298.995 127.419 298.995 127.419L299.999 129.763Z" fill="white" stroke="#292F3B" stroke-miterlimit="10"/>
<path d="M296.89 130.425C296.89 130.425 299.717 130.726 299.999 129.764C300.282 128.802 302.514 122.745 302.149 121.986C301.785 121.227 301.078 121.294 300.297 122.549C299.461 124.27 298.741 126.045 298.14 127.862C298.14 127.862 296.25 128.291 295.774 129.598C295.298 130.906 296.89 130.425 296.89 130.425Z" fill="white" stroke="#292F3B" stroke-miterlimit="10"/>
<path d="M293.319 131.177C293.319 131.177 295.945 132.296 296.495 131.455C297.046 130.613 300.907 125.443 300.766 124.631C300.624 123.819 299.94 123.662 298.839 124.631C297.544 126.032 296.346 127.521 295.253 129.087C295.253 129.087 293.319 128.952 292.493 130.064C291.667 131.177 293.319 131.177 293.319 131.177Z" fill="white" stroke="#292F3B" stroke-miterlimit="10"/>
<path d="M254.858 154.022C255.948 149.566 258.719 145.717 262.58 143.298C269.194 138.977 278.165 131.177 278.165 131.177C278.165 131.177 281.201 126.863 283.373 126.165C285.545 125.466 292.746 127.555 292.746 127.555C292.746 127.555 298.541 121.708 298.698 122.963C298.854 124.218 295.945 128.674 294.561 130.343C293.178 132.011 288.908 132.432 287.948 132.432C286.241 132.484 284.537 132.624 282.845 132.853C282.294 132.988 273.174 145.523 269.06 151.64C264.946 157.757 263.108 158.877 260.512 159.019C257.916 159.162 255.134 157.066 254.442 156.096C253.75 155.127 254.858 154.022 254.858 154.022Z" fill="white" stroke="#292F3B" stroke-miterlimit="10"/>
<path d="M168.638 130.966L177.327 150.009C177.461 150.28 177.679 150.5 177.947 150.635C178.215 150.771 178.52 150.815 178.815 150.76L186.024 149.415C186.224 149.376 186.413 149.292 186.577 149.171C186.742 149.049 186.877 148.891 186.974 148.71C187.071 148.529 187.126 148.328 187.137 148.123C187.148 147.917 187.113 147.712 187.035 147.521L179.224 128.937C179.112 128.662 178.913 128.433 178.66 128.282C178.406 128.132 178.111 128.069 177.818 128.103L169.717 129.012C169.503 129.038 169.297 129.115 169.118 129.237C168.939 129.358 168.79 129.521 168.685 129.711C168.58 129.902 168.521 130.115 168.513 130.333C168.505 130.551 168.548 130.768 168.638 130.966Z" fill="#292F3B" stroke="#292F3B" stroke-miterlimit="10"/>
<path d="M174.344 147.266C174.344 147.266 171.227 142.441 171.227 141.359C171.227 140.277 173.042 137.714 174.106 135.4C175.17 133.085 175.334 131.537 176.249 131.853C177.164 132.168 176.993 133.085 176.702 134.626C176.143 136.613 175.483 138.569 174.724 140.487L175.029 142.344C175.766 140.842 176.688 139.44 177.774 138.173C179.15 136.79 180.675 134.475 181.746 134.934C182.817 135.392 183.271 135.685 182.356 136.79C181.207 138.18 180.177 139.666 179.276 141.231C178.468 142.567 177.774 143.97 177.201 145.425C178.223 144.436 179.309 143.517 180.452 142.674C181.94 141.592 184.037 140.029 184.915 140.645C185.793 141.261 185.986 141.878 185.071 142.652C184.156 143.426 183.323 143.952 182.096 145.034C180.815 146.325 179.613 147.693 178.495 149.129C179.586 148.279 180.8 147.604 182.096 147.131C184.692 146.056 187.065 146.176 187.162 147.003C187.259 147.829 184.432 148.581 184.432 148.581C182.408 149.047 182.312 149.746 182.312 149.746C182.312 149.746 183.993 153.142 183.688 154.255C183.688 154.255 190.472 153.18 193.069 152.413C195.665 151.647 199.719 153.165 200.947 154.405C203.543 157.028 204.763 161.041 203.394 164.437C202.025 167.834 202.018 166.752 191.172 163.686C180.325 160.62 180.534 159.523 177.885 155.044C176.926 153.3 174.344 147.266 174.344 147.266Z" fill="white" stroke="#292F3B" stroke-miterlimit="10"/>
<path d="M183.733 154.225L183.502 157.05" stroke="#292F3B" stroke-miterlimit="10"/>
<path d="M126.222 311L39.8203 310.945C29.4349 310.945 21 302.825 21 292.814V84.1232C21 74.1123 29.4349 65.9922 39.8203 66L126.18 66.0471C136.574 66.0471 145 74.1672 145 84.1781L144.957 292.869C145.043 302.888 136.616 311 126.222 311Z" fill="#4F565E"/>
<path d="M126.647 74H109.68C108.535 74.051 107.459 74.5123 106.688 75.2828C105.917 76.0532 105.513 77.0701 105.564 78.1108V81.0482C105.616 82.0902 105.211 83.1082 104.438 83.8789C103.664 84.6496 102.586 85.11 101.44 85.159H68.3817C67.2353 85.108 66.158 84.6457 65.3863 83.8735C64.6146 83.1013 64.2116 82.0823 64.2657 81.0403V78.1108C64.3176 77.0701 63.9135 76.0532 63.142 75.2828C62.3706 74.5123 61.2946 74.051 60.1497 74H39.3532C31.979 74 26 79.7094 26 86.7498V291.203C26 298.235 31.9704 303.945 39.3358 303.953L126.647 304C134.021 304 140 298.298 140 291.258L139.983 86.7734C139.983 79.6858 134.021 74 126.647 74Z" fill="white"/>
<path d="M122.467 188.533C127.732 166.736 114.33 144.798 92.5334 139.533C70.7366 134.268 48.7985 147.67 43.5334 169.466C38.2682 191.263 51.6698 213.201 73.4666 218.467C95.2634 223.732 117.201 210.33 122.467 188.533Z" fill="#F3F7FA"/>
<path d="M84.8119 196.875C84.8102 197.539 84.6117 198.188 84.2413 198.739C83.871 199.29 83.3455 199.718 82.7314 199.971C82.1172 200.223 81.4421 200.287 80.7914 200.155C80.1407 200.024 79.5437 199.702 79.076 199.231C78.6083 198.76 78.2909 198.16 78.164 197.509C78.037 196.857 78.1063 196.182 78.3629 195.57C78.6196 194.958 79.0521 194.435 79.6058 194.069C80.1595 193.703 80.8094 193.509 81.4733 193.512C82.361 193.519 83.2101 193.876 83.8355 194.506C84.4609 195.136 84.8119 195.988 84.8119 196.875Z" fill="#4F565E"/>
<path d="M74.7551 192.565C75.6111 191.644 76.6451 190.906 77.7946 190.395C78.9441 189.885 80.1852 189.613 81.4428 189.596C82.7004 189.58 83.9483 189.818 85.111 190.298C86.2737 190.777 87.3271 191.487 88.2073 192.386C89.9215 194.116 92.5989 191.463 90.8847 189.733C89.6525 188.491 88.1843 187.508 86.5666 186.842C84.9489 186.176 83.2143 185.84 81.4649 185.855C79.7155 185.869 77.9867 186.234 76.3801 186.926C74.7736 187.619 73.3219 188.626 72.1103 189.888C70.437 191.643 73.0899 194.328 74.7714 192.565H74.7551Z" fill="#4F565E"/>
<path d="M63.3599 176.974C68.4617 172.566 74.5511 169.791 81.3671 169.775C88.1712 169.678 94.7555 172.183 99.7741 176.778C101.537 178.411 104.223 175.791 102.452 174.125C96.7307 168.827 89.2054 165.908 81.4079 165.963C73.5634 165.963 66.5924 169.228 60.7234 174.264C58.8867 175.856 61.5396 178.525 63.3844 176.942L63.3599 176.974Z" fill="#4F565E"/>
<path d="M67.8578 185.603C69.5587 183.704 71.6346 182.179 73.9544 181.123C76.2742 180.067 78.7876 179.504 81.3362 179.467C83.8848 179.431 86.4132 179.924 88.7619 180.914C91.1107 181.904 93.2288 183.37 94.9828 185.219C96.6806 186.958 99.358 184.305 97.6602 182.558C95.5558 180.359 93.0223 178.615 90.2164 177.435C87.4106 176.255 84.3924 175.664 81.3488 175.699C78.3051 175.733 75.301 176.392 72.5226 177.635C69.7442 178.879 67.2507 180.679 65.1967 182.925C63.5642 184.705 66.2008 187.39 67.8578 185.603Z" fill="#4F565E"/>
<path d="M113.155 169.863C114.145 164.265 110.41 158.924 104.812 157.934C99.2139 156.944 93.8733 160.68 92.8832 166.278C91.8931 171.876 95.6285 177.216 101.226 178.206C106.824 179.196 112.165 175.461 113.155 169.863Z" fill="url(#paint0_linear_4352_28808)"/>
<path d="M107.262 165.191L105.801 163.731L99.2618 170.271L100.722 171.731L107.262 165.191Z" fill="white"/>
<path d="M100.725 163.724L99.2651 165.184L105.805 171.724L107.265 170.263L100.725 163.724Z" fill="white"/>
<path d="M47.8944 283.297V288.279C47.8938 288.377 47.8672 288.473 47.8173 288.557C47.7674 288.641 47.696 288.71 47.6104 288.757C47.5249 288.804 47.4283 288.828 47.3307 288.825C47.233 288.822 47.1379 288.794 47.0549 288.742L43.1322 286.247C43.0544 286.198 42.9904 286.129 42.9461 286.048C42.9018 285.967 42.8785 285.877 42.8785 285.784C42.8785 285.692 42.9018 285.601 42.9461 285.52C42.9904 285.44 43.0544 285.371 43.1322 285.322L47.0549 282.827C47.1384 282.775 47.2343 282.746 47.3326 282.744C47.431 282.742 47.5281 282.766 47.6139 282.814C47.6996 282.862 47.7709 282.932 47.8203 283.017C47.8696 283.102 47.8952 283.199 47.8944 283.297Z" fill="#E0E0E0"/>
<path d="M80.1081 285.738C80.1066 286.417 79.9037 287.081 79.5252 287.645C79.1467 288.209 78.6094 288.648 77.9814 288.907C77.3534 289.166 76.6627 289.233 75.9966 289.099C75.3305 288.966 74.719 288.638 74.2392 288.157C73.7594 287.676 73.4329 287.064 73.3009 286.397C73.169 285.731 73.2375 285.04 73.4978 284.413C73.7581 283.786 74.1986 283.249 74.7635 282.872C75.3284 282.495 75.9925 282.293 76.6718 282.293C77.5839 282.296 78.4579 282.659 79.1021 283.305C79.7463 283.951 80.1081 284.826 80.1081 285.738Z" fill="#E0E0E0"/>
<path d="M109.662 282.74H106.257C105.447 282.74 104.79 283.397 104.79 284.207V287.628C104.79 288.438 105.447 289.095 106.257 289.095H109.662C110.473 289.095 111.129 288.438 111.129 287.628V284.207C111.129 283.397 110.473 282.74 109.662 282.74Z" fill="#E0E0E0"/>
<defs>
<linearGradient id="paint0_linear_4352_28808" x1="101.226" y1="178.206" x2="104.812" y2="157.934" gradientUnits="userSpaceOnUse">
<stop stop-color="#00C96D"/>
<stop offset="1" stop-color="#048AD7"/>
</linearGradient>
</defs>
</svg>
