<svg width="24" height="24" viewBox="0 0 24 24" fill="none" xmlns="http://www.w3.org/2000/svg">
<g clip-path="url(#clip0_4185_26755)">
<path d="M11.9848 24C13.7959 24 15.3109 22.7089 15.6588 21H8.31079C8.65887 22.7089 10.1739 24 11.9848 24Z" fill="white"/>
<path d="M18.9968 11.999C18.9928 11.999 18.9888 11.9999 18.9848 11.9999C15.1258 11.9999 11.9848 8.85986 11.9848 5C11.9848 3.9389 12.2289 2.93585 12.6539 2.03387C12.4338 2.013 12.2108 2 11.9848 2C8.11891 2 4.98488 5.13385 4.98488 8.99994V11.7879C4.98488 13.7669 4.11787 15.6349 2.59681 16.9209C2.0898 17.3539 1.86476 18.0439 2.04677 18.717C2.2588 19.4999 3.03279 20 3.84486 20H20.1198C20.9718 20 21.7749 19.4479 21.9478 18.613C22.0818 17.967 21.8518 17.3219 21.3508 16.9009C19.8968 15.682 19.0558 13.8909 18.9968 11.999Z" fill="white"/>
</g>
<g clip-path="url(#clip1_4185_26755)">
<path d="M12.0152 24C10.2041 24 8.68909 22.7089 8.34119 21H15.6892C15.3411 22.7089 13.8261 24 12.0152 24Z" fill="white"/>
<path d="M5.00316 11.999C5.00719 11.999 5.01122 11.9999 5.01525 11.9999C8.87419 11.9999 12.0152 8.85986 12.0152 5C12.0152 3.9389 11.7711 2.93585 11.3461 2.03387C11.5662 2.013 11.7892 2 12.0152 2C15.8811 2 19.0151 5.13385 19.0151 8.99994V11.7879C19.0151 13.7669 19.8821 15.6349 21.4032 16.9209C21.9102 17.3539 22.1352 18.0439 21.9532 18.717C21.7412 19.4999 20.9672 20 20.1551 20H3.88018C3.02819 20 2.22509 19.4479 2.05223 18.613C1.9182 17.967 2.14818 17.3219 2.64916 16.9009C4.1032 15.682 4.9442 13.8909 5.00316 11.999Z" fill="white"/>
</g>
<defs>
<clipPath id="clip0_4185_26755">
<rect width="22.1538" height="24" fill="white" transform="translate(1.84619)"/>
</clipPath>
<clipPath id="clip1_4185_26755">
<rect width="22.1538" height="24" fill="white" transform="matrix(-1 0 0 1 22.1538 0)"/>
</clipPath>
</defs>
</svg>
