<svg width="335" height="335" viewBox="0 0 335 335" fill="none" xmlns="http://www.w3.org/2000/svg">
<g clip-path="url(#clip0_4387_31672)">
<path d="M0.103795 187.608C0.103795 187.608 2.03979 247.874 52.2274 287.997C102.415 328.119 171.946 331.025 228.238 334.839C284.53 338.653 327.732 306.72 334.322 258.483C340.913 210.245 297.827 196.045 274.488 141.087C251.149 86.1291 253.225 68.074 203.845 34.2753C154.464 0.476667 77.1729 21.1901 36.6735 79.0953C-3.82587 137.001 0.103795 187.608 0.103795 187.608Z" fill="#F3F8FA"/>
<path d="M228.798 292.831C255.514 292.831 277.172 286.405 277.172 278.479C277.172 270.553 255.514 264.128 228.798 264.128C202.082 264.128 180.424 270.553 180.424 278.479C180.424 286.405 202.082 292.831 228.798 292.831Z" fill="#292F3B" stroke="#292F3B" stroke-width="1.193" stroke-linecap="round" stroke-linejoin="round"/>
<path d="M228.798 270.727C251.679 270.727 270.841 275.417 275.872 281.776C276.667 280.856 277.125 279.694 277.172 278.479C277.172 270.546 255.511 264.121 228.798 264.121C202.085 264.121 180.417 270.546 180.417 278.479C180.465 279.694 180.923 280.856 181.717 281.776C186.749 275.444 205.911 270.727 228.798 270.727Z" fill="white" stroke="#292F3B" stroke-width="1.193" stroke-linecap="round" stroke-linejoin="round"/>
<path d="M222.192 291.028C206.032 290.298 193.838 287.008 193.838 282.988C193.846 282.55 193.983 282.123 194.233 281.762" stroke="white" stroke-width="1.193" stroke-linecap="round" stroke-linejoin="round"/>
<path d="M259.692 279.076C262.459 280.248 264.04 281.588 264.04 283.015C264.04 287.524 248.322 291.176 228.939 291.176H228.101" stroke="white" stroke-width="1.193" stroke-linecap="round" stroke-linejoin="round"/>
<path d="M198.561 278.922C204.638 276.489 215.981 274.848 228.939 274.848C236.312 274.791 243.676 275.394 250.942 276.65" stroke="white" stroke-width="1.193" stroke-linecap="round" stroke-linejoin="round"/>
<path d="M221.73 285.816C217.636 285.246 214.896 284.208 214.896 283.015C214.896 281.213 221.187 279.752 228.966 279.752C236.744 279.752 243.002 281.213 243.002 283.015C243.002 284.563 238.379 285.856 232.175 286.191" stroke="white" stroke-width="1.193" stroke-linecap="round" stroke-linejoin="round"/>
<path d="M95.014 209.532C94.7519 209.536 94.4939 209.466 94.2692 209.331C93.9434 209.13 93.7075 208.811 93.6105 208.441C93.5134 208.071 93.5626 207.677 93.7478 207.342C94.1128 206.702 186.201 106.279 228.334 69.4562C228.481 69.3381 228.668 69.2802 228.856 69.294C229.044 69.3078 229.219 69.3924 229.347 69.5307C229.47 69.6786 229.531 69.868 229.517 70.0596C229.503 70.2511 229.415 70.4298 229.273 70.5585C187.348 107.225 96.6228 208.169 96.2578 208.802C96.1338 209.023 95.9532 209.207 95.7347 209.335C95.5161 209.464 95.2674 209.532 95.014 209.532Z" fill="#292F3B"/>
<path d="M100.101 189.549C100.101 189.549 104.667 184.678 107.408 184.678C110.148 184.678 115.325 189.243 115.019 191.679C114.714 194.114 110.148 191.984 110.148 191.984C110.148 191.984 105.881 197.771 101.62 196.855C97.3601 195.939 100.101 189.549 100.101 189.549Z" fill="#048AD7" stroke="#292F3B" stroke-width="1.193" stroke-linecap="round" stroke-linejoin="round"/>
<path d="M110.171 191.97C110.171 191.97 112.964 193.907 113.21 195.27C113.456 196.633 110.111 200.483 106.395 201.347C102.678 202.211 100.69 200.104 101.807 198.122C102.924 196.141 107.356 192.149 110.171 191.97Z" fill="#048AD7" stroke="#292F3B" stroke-width="1.193" stroke-linecap="round" stroke-linejoin="round"/>
<path d="M224.871 174.325V73.5605C224.871 73.5605 222.838 80.8522 222.838 81.381" stroke="#292F3B" stroke-width="1.193" stroke-linecap="round" stroke-linejoin="round"/>
<path d="M266.893 179.636H189.626V241.544H266.893V179.636Z" fill="#048AD7" stroke="#4F565E" stroke-width="1.193" stroke-linecap="round" stroke-linejoin="round"/>
<path d="M225.973 179.375V175.83C225.973 175.595 225.88 175.369 225.714 175.203C225.548 175.037 225.322 174.943 225.087 174.943C224.852 174.943 224.626 175.037 224.46 175.203C224.294 175.369 224.201 175.595 224.201 175.83V179.375H225.973Z" fill="#292F3B"/>
<path d="M233.064 170.75V170.929C232.992 170.793 232.885 170.68 232.754 170.6C232.623 170.52 232.472 170.477 232.319 170.475C232.082 170.475 231.855 170.569 231.687 170.736C231.519 170.904 231.425 171.131 231.425 171.368V180.835C231.425 181.559 231.138 182.253 230.627 182.765C230.116 183.277 229.423 183.566 228.699 183.568C228.325 183.569 227.954 183.49 227.612 183.337C227.414 183.632 227.328 183.987 227.369 184.339C227.41 184.692 227.575 185.018 227.835 185.259C228.12 185.313 228.409 185.34 228.699 185.341C229.291 185.341 229.877 185.224 230.424 184.998C230.97 184.771 231.467 184.44 231.885 184.021C232.304 183.603 232.636 183.106 232.862 182.559C233.089 182.013 233.205 181.427 233.205 180.835V176.448H235.246L233.064 170.75Z" fill="#292F3B"/>
<path d="M224.945 72.6144C224.945 72.6144 226.524 67.006 225.124 67.5274C223.724 68.0488 224.945 72.6144 224.945 72.6144Z" stroke="#292F3B" stroke-width="1.193" stroke-linecap="round" stroke-linejoin="round"/>
<path d="M224.946 72.6142C224.946 72.6142 218.987 70.5064 219.516 72.4354C220.045 74.3645 224.946 72.6142 224.946 72.6142Z" stroke="#292F3B" stroke-width="1.193" stroke-linecap="round" stroke-linejoin="round"/>
<path d="M96.4588 121.496C96.4588 121.496 89.1076 117.378 74.6881 119.441C60.2686 121.504 57.5203 133.391 59.8739 145.747C62.2275 158.104 75.8649 168.568 77.928 167.689C79.9911 166.81 77.3396 139.148 82.0468 133.853C86.754 128.557 102.052 129.444 102.901 125.325C103.75 121.206 96.4588 121.496 96.4588 121.496Z" fill="#292F3B" stroke="#292F3B" stroke-width="1.193" stroke-linecap="round" stroke-linejoin="round"/>
<path d="M70.8301 128.833L72.3197 138.568C72.3197 138.568 63.0841 163.779 64.5811 167.28C66.0782 170.781 80.0508 172.017 80.0508 172.017C80.0508 172.017 102.767 174.765 109.508 172.017C116.248 169.269 112.755 161.284 112.003 159.042C111.251 156.8 107.013 138.821 107.013 138.821C107.013 138.821 108.502 134.575 108.502 132.334C108.502 130.092 108.249 123.843 107.251 122.346C106.253 120.849 88.7799 119.098 81.0414 120.35C73.3028 121.601 69.832 123.597 70.8301 128.833Z" fill="#292F3B" stroke="#292F3B" stroke-width="1.193" stroke-linecap="round" stroke-linejoin="round"/>
<path d="M74.8296 140.071C74.8296 140.071 74.5764 161.782 75.8277 166.028C77.0789 170.273 82.0691 175.263 92.5486 174.012C103.028 172.761 104.033 162.78 104.033 162.78L103.289 139.572L74.8296 140.071Z" fill="white" stroke="#292F3B" stroke-width="1.193" stroke-linecap="round" stroke-linejoin="round"/>
<path d="M92.8019 155.667C92.8034 156.039 92.6946 156.402 92.4892 156.712C92.2839 157.022 91.9913 157.263 91.6484 157.407C91.3056 157.55 90.928 157.588 90.5634 157.517C90.1988 157.445 89.8637 157.267 89.6005 157.005C89.3372 156.742 89.1577 156.408 89.0847 156.044C89.0117 155.679 89.0484 155.302 89.1903 154.958C89.3321 154.615 89.5726 154.321 89.8815 154.115C90.1903 153.908 90.5535 153.798 90.925 153.798C91.1711 153.797 91.415 153.845 91.6427 153.938C91.8704 154.032 92.0773 154.169 92.2517 154.343C92.4261 154.516 92.5645 154.723 92.6589 154.95C92.7533 155.177 92.8019 155.421 92.8019 155.667Z" stroke="#292F3B" stroke-width="1.193" stroke-miterlimit="10"/>
<path d="M92.5487 163.533C92.5487 163.781 92.4751 164.023 92.3373 164.229C92.1995 164.435 92.0036 164.595 91.7745 164.69C91.5455 164.784 91.2935 164.809 91.0506 164.76C90.8076 164.711 90.5847 164.591 90.41 164.415C90.2353 164.239 90.1167 164.016 90.0693 163.773C90.0219 163.529 90.0477 163.278 90.1435 163.049C90.2394 162.821 90.4009 162.626 90.6077 162.489C90.8144 162.352 91.0571 162.28 91.3049 162.282C91.4688 162.282 91.6312 162.314 91.7826 162.377C91.934 162.44 92.0714 162.532 92.187 162.649C92.3026 162.765 92.3941 162.903 92.4562 163.055C92.5182 163.207 92.5497 163.369 92.5487 163.533Z" fill="#292F3B"/>
<path d="M85.0112 147.661C85.8081 148.525 86.0837 149.56 85.6368 149.985C85.1899 150.41 84.1472 150.052 83.3651 149.196C82.5831 148.339 82.2852 147.304 82.7395 146.879C83.1938 146.455 84.2142 146.805 85.0112 147.661Z" fill="#292F3B"/>
<path d="M95.1481 147.661C94.3511 148.525 94.0681 149.56 94.5224 149.985C94.9767 150.41 96.012 150.052 96.7568 149.196C97.5016 148.339 97.8368 147.304 97.3825 146.879C96.9281 146.455 95.945 146.805 95.1481 147.661Z" fill="#292F3B"/>
<path d="M79.6782 144.72C80.2373 143.894 81.0409 143.265 81.9761 142.921C82.9113 142.576 83.931 142.533 84.8919 142.798" stroke="#292F3B" stroke-width="1.193" stroke-linecap="round" stroke-linejoin="round"/>
<path d="M94.7532 143.073C94.7532 143.073 98.3133 141.978 99.4157 144.995" stroke="#292F3B" stroke-width="1.193" stroke-linecap="round" stroke-linejoin="round"/>
<path d="M106.774 282.367C106.774 282.367 110.699 280.013 112.874 279.09C113.078 278.996 113.287 278.914 113.5 278.844C115.422 278.203 120.866 278.524 125.983 275.321C131.1 272.118 128.545 268.275 124.702 267.314C120.859 266.354 116.703 265.08 116.703 265.08L115.742 250.027C115.742 250.027 104.212 253.23 100.369 254.831C96.5258 256.433 98.7677 279.164 99.0879 281.086C99.4082 283.007 99.4082 284.288 106.774 282.367Z" fill="white" stroke="#292F3B" stroke-width="1.193" stroke-linecap="round" stroke-linejoin="round"/>
<path d="M119.585 275.321C112.882 276.602 112.882 277.883 105.493 279.164C103.329 279.596 101.122 279.776 98.9167 279.701C98.9912 280.386 99.0508 280.87 99.0881 281.086C99.4083 283.007 99.4083 284.289 106.774 282.367C106.774 282.367 110.7 280.013 112.874 279.09C113.078 278.996 113.287 278.914 113.5 278.844C115.422 278.203 120.866 278.524 125.983 275.321C127.629 274.301 128.471 273.206 128.746 272.163C125.838 273.598 122.76 274.659 119.585 275.321Z" fill="white" stroke="#292F3B" stroke-width="1.193" stroke-linecap="round" stroke-linejoin="round"/>
<path d="M122.252 267.121C122.252 267.121 122.006 284.594 121.507 288.333C121.008 292.072 121.753 296.824 127.465 296.824C133.178 296.824 144.44 293.1 148.432 292.355C152.424 291.61 158.919 289.853 161.659 283.618C164.4 277.384 147.687 278.122 147.687 278.122L148.685 265.393C148.685 265.393 131.487 268.864 122.252 267.121Z" fill="white" stroke="#292F3B" stroke-width="1.193" stroke-linecap="round" stroke-linejoin="round"/>
<path d="M161.689 283.596C161.995 282.99 162.069 282.293 161.898 281.637C160.187 283.96 157.867 285.764 155.195 286.85C149.236 289.345 137.967 292.064 129.484 293.345C125.603 293.911 123.146 293.278 121.604 292.429C122.155 294.85 123.771 296.838 127.488 296.838C133.23 296.838 144.462 293.114 148.454 292.369C152.446 291.625 158.948 289.83 161.689 283.596Z" fill="white" stroke="#292F3B" stroke-width="1.193" stroke-linecap="round" stroke-linejoin="round"/>
<path d="M147.717 278.099C147.717 278.099 148.96 282.345 145.482 285.093" stroke="white" stroke-width="1.193" stroke-linecap="round" stroke-linejoin="round"/>
<path d="M120.509 257.886C120.509 257.886 120.121 265.475 120.546 266.995C122.14 272.759 122.646 271.411 134.63 271.158C146.614 270.905 151.455 266.123 152.707 263.129C153.958 260.135 152.707 253.64 152.208 251.391C151.709 249.142 147.739 248.412 146.212 248.65C144.685 248.888 121.253 255.39 120.509 257.886Z" fill="#292F3B" stroke="#292F3B" stroke-width="1.193" stroke-linecap="round" stroke-linejoin="round"/>
<path d="M38.1328 276.855V293.628C38.1384 294.285 38.3231 294.927 38.6669 295.486C39.0108 296.045 39.5009 296.5 40.0842 296.801L67.0462 310.722C67.5259 310.971 68.0559 311.109 68.5964 311.124C69.1368 311.14 69.6738 311.033 70.167 310.811L109.888 295.669C110.521 295.385 111.059 294.924 111.437 294.341C111.815 293.758 112.017 293.079 112.018 292.384V272.111L66.5844 285.838L38.1328 276.855Z" fill="#048AD7"/>
<mask id="mask0_4387_31672" style="mask-type:luminance" maskUnits="userSpaceOnUse" x="38" y="272" width="75" height="40">
<path d="M38.1328 276.855V293.628C38.1384 294.285 38.3231 294.927 38.6669 295.486C39.0108 296.045 39.5009 296.5 40.0842 296.801L67.0462 310.722C67.5259 310.971 68.0559 311.109 68.5964 311.124C69.1368 311.14 69.6738 311.033 70.167 310.811L109.888 295.669C110.521 295.385 111.059 294.924 111.437 294.341C111.815 293.758 112.017 293.079 112.018 292.384V272.111L66.5844 285.838L38.1328 276.855Z" fill="white"/>
</mask>
<g mask="url(#mask0_4387_31672)">
<path opacity="0.18" d="M68.588 285.235L66.5919 285.838L38.1328 276.855V293.629C38.1384 294.285 38.3231 294.927 38.6669 295.487C39.0108 296.046 39.5009 296.5 40.0842 296.801L67.0462 310.722C67.523 310.971 68.0502 311.109 68.588 311.124V285.235Z" fill="#292F3B"/>
</g>
<path d="M38.1328 276.855V293.628C38.1384 294.285 38.3231 294.927 38.6669 295.486C39.0108 296.045 39.5009 296.5 40.0842 296.801L67.0462 310.722C67.5259 310.971 68.0559 311.109 68.5964 311.124C69.1368 311.14 69.6738 311.033 70.167 310.811L109.888 295.669C110.521 295.385 111.059 294.924 111.437 294.341C111.815 293.758 112.017 293.079 112.018 292.384V272.111L66.5844 285.838L38.1328 276.855Z" stroke="#292F3B" stroke-width="1.193" stroke-linecap="round" stroke-linejoin="round"/>
<path d="M79.6336 248.538L36.0624 262.54C35.7219 262.649 35.425 262.864 35.2147 263.153C35.0045 263.443 34.8918 263.791 34.8931 264.149V276.572C34.8997 276.885 34.993 277.19 35.1626 277.453C35.3322 277.716 35.5716 277.927 35.8539 278.062L66.2271 292.519C66.4316 292.616 66.6537 292.672 66.8802 292.682C67.1067 292.692 67.3329 292.657 67.5454 292.578L113.15 275.515C113.473 275.395 113.751 275.179 113.948 274.897C114.145 274.615 114.251 274.28 114.252 273.936L114.334 262.279C114.332 261.894 114.199 261.52 113.956 261.22C113.714 260.919 113.377 260.71 113.001 260.626L80.4976 248.493C80.2104 248.436 79.9134 248.451 79.6336 248.538Z" fill="white"/>
<mask id="mask1_4387_31672" style="mask-type:luminance" maskUnits="userSpaceOnUse" x="34" y="248" width="81" height="45">
<path d="M79.6336 248.538L36.0624 262.54C35.7219 262.649 35.425 262.864 35.2147 263.153C35.0045 263.443 34.8918 263.791 34.8931 264.149V276.572C34.8997 276.885 34.993 277.19 35.1626 277.453C35.3322 277.716 35.5716 277.927 35.8539 278.062L66.2271 292.519C66.4316 292.616 66.6537 292.672 66.8802 292.682C67.1067 292.692 67.3329 292.657 67.5454 292.578L113.15 275.515C113.473 275.395 113.751 275.179 113.948 274.897C114.145 274.615 114.251 274.28 114.252 273.936L114.334 262.279C114.332 261.894 114.199 261.52 113.956 261.22C113.714 260.919 113.377 260.71 113.001 260.626L80.4976 248.493C80.2104 248.436 79.9134 248.451 79.6336 248.538Z" fill="white"/>
</mask>
<g mask="url(#mask1_4387_31672)">
<path d="M66.1748 292.511C66.3793 292.609 66.6014 292.665 66.8279 292.675C67.0544 292.685 67.2806 292.65 67.4931 292.571L113.15 275.515C113.472 275.395 113.751 275.18 113.948 274.898C114.145 274.616 114.251 274.28 114.252 273.936L114.334 262.28C114.335 261.883 114.192 261.499 113.932 261.2L66.8228 278.598L66.1748 292.511Z" fill="#048AD7"/>
<path opacity="0.5" d="M66.1748 292.511C66.3793 292.609 66.6014 292.665 66.8279 292.675C67.0544 292.685 67.2806 292.65 67.4931 292.571L113.15 275.515C113.472 275.395 113.751 275.18 113.948 274.898C114.145 274.616 114.251 274.28 114.252 273.936L114.334 262.28C114.335 261.883 114.192 261.499 113.932 261.2L66.8228 278.598L66.1748 292.511Z" fill="white"/>
<path d="M34.8931 264.112V276.536C34.8997 276.849 34.993 277.153 35.1626 277.416C35.3322 277.679 35.5715 277.89 35.8539 278.025L66.2271 292.519C66.4298 292.617 66.6503 292.673 66.8751 292.683V278.599L34.9452 263.822C34.9164 263.916 34.8989 264.014 34.8931 264.112Z" fill="#048AD7"/>
</g>
<path d="M79.6336 248.538L36.0624 262.54C35.7219 262.649 35.425 262.864 35.2147 263.153C35.0045 263.443 34.8918 263.791 34.8931 264.149V276.572C34.8997 276.885 34.993 277.19 35.1626 277.453C35.3322 277.716 35.5716 277.927 35.8539 278.062L66.2271 292.519C66.4316 292.616 66.6537 292.672 66.8802 292.682C67.1067 292.692 67.3329 292.657 67.5454 292.578L113.15 275.515C113.473 275.395 113.751 275.179 113.948 274.897C114.145 274.615 114.251 274.28 114.252 273.936L114.334 262.279C114.332 261.894 114.199 261.52 113.956 261.22C113.714 260.919 113.377 260.71 113.001 260.626L80.4976 248.493C80.2104 248.436 79.9134 248.451 79.6336 248.538Z" stroke="#292F3B" stroke-width="1.193" stroke-linecap="round" stroke-linejoin="round"/>
<path d="M139.479 225.687C139.479 225.687 145.214 228.428 148.215 233.924C151.217 239.421 148.96 249.893 147.21 253.14C145.46 256.388 133.736 257.885 129.744 257.885C125.752 257.885 125 257.386 125 257.386C125 257.386 112.271 259.881 104.279 261.378C96.2875 262.875 98.3209 244.158 100.786 235.667C103.251 227.176 117.261 222.938 123.004 222.938C128.746 222.938 139.479 225.687 139.479 225.687Z" fill="#292F3B" stroke="#292F3B" stroke-width="1.193" stroke-linecap="round" stroke-linejoin="round"/>
<path d="M110.022 233.925C110.022 233.925 113.001 249.648 111.511 256.135C110.022 262.623 101.278 263.628 99.2817 262.876C97.2857 262.124 98.2837 246.654 98.2837 238.915C98.2837 231.177 106.03 231.676 110.022 233.925Z" fill="#292F3B" stroke="#292F3B" stroke-width="1.193" stroke-linecap="round" stroke-linejoin="round"/>
<path d="M46.3706 191.985C46.3706 191.985 44.6278 202.211 45.8716 207.216C46.5053 210.003 47.6932 212.635 49.3648 214.954C49.3648 214.954 43.1233 224.19 44.3745 231.921C45.6258 239.652 48.8434 240.658 48.8434 240.658C48.8434 240.658 46.1025 254.891 51.0778 259.881C56.0531 264.871 67.0539 270.361 79.2837 268.119C91.5134 265.877 99.751 265.37 102.246 261.125C104.741 256.88 103.244 238.163 103.244 238.163C103.244 238.163 102.745 217.449 102.246 204.713C101.747 191.977 100.012 181.751 94.0085 176.761C88.0054 171.77 61.5572 179.509 53.5729 184.745C45.5886 189.981 46.3706 191.985 46.3706 191.985Z" fill="#048AD7"/>
<path d="M46.3706 191.985C46.3706 191.985 44.6278 202.211 45.8716 207.216C46.5053 210.003 47.6932 212.635 49.3648 214.954C49.3648 214.954 43.1233 224.19 44.3745 231.921C45.6258 239.652 48.8434 240.658 48.8434 240.658C48.8434 240.658 46.1025 254.891 51.0778 259.881C56.0531 264.871 67.0539 270.361 79.2837 268.119C91.5134 265.877 99.751 265.37 102.246 261.125C104.741 256.88 103.244 238.163 103.244 238.163C103.244 238.163 102.745 217.449 102.246 204.713C101.747 191.977 100.012 181.751 94.0085 176.761C88.0054 171.77 61.5572 179.509 53.5729 184.745C45.5886 189.981 46.3706 191.985 46.3706 191.985Z" stroke="#292F3B" stroke-width="1.193" stroke-linecap="round" stroke-linejoin="round"/>
<path d="M98.5368 179.755C98.5368 179.755 93.7999 172.516 87.3051 168.523C80.8104 164.531 64.0969 161.537 57.3564 160.286C50.6159 159.035 43.3764 159.541 41.3803 166.989C39.3842 174.437 39.63 186.957 41.6261 192.447C43.6222 197.936 51.8598 201.183 58.3545 197.444C64.8492 193.705 82.8139 179.219 89.0554 178.474C95.2969 177.729 98.0378 182.503 98.5368 179.755Z" fill="#292F3B"/>
<mask id="mask2_4387_31672" style="mask-type:luminance" maskUnits="userSpaceOnUse" x="40" y="159" width="59" height="41">
<path d="M98.5368 179.755C98.5368 179.755 93.7999 172.516 87.3051 168.523C80.8104 164.531 64.0969 161.537 57.3564 160.286C50.6159 159.035 43.3764 159.541 41.3803 166.989C39.3842 174.437 39.63 186.957 41.6261 192.447C43.6222 197.936 51.8598 201.183 58.3545 197.444C64.8492 193.705 82.8139 179.219 89.0554 178.474C95.2969 177.729 98.0378 182.503 98.5368 179.755Z" fill="white"/>
</mask>
<g mask="url(#mask2_4387_31672)">
<path opacity="0.3" d="M84.6909 178.377C88.4968 176.791 78.9782 179.643 78.3451 178.69C77.712 177.736 85.0037 172.985 86.5901 172.351C88.1766 171.718 77.3917 173.938 77.712 172.351C78.0323 170.765 88.1766 170.445 81.1977 168.858C74.2189 167.272 51.4054 163.146 46.9366 161.559C46.5947 161.448 46.271 161.287 45.9758 161.083C44.8202 161.679 43.8097 162.521 43.0156 163.551C42.2215 164.58 41.6632 165.772 41.3803 167.041C39.3842 174.526 39.63 187.009 41.6261 192.498C43.369 197.28 49.819 200.356 55.7774 198.606C58.5258 196.371 61.0656 193.437 65.3631 190.733C73.906 185.326 80.8849 179.934 84.6909 178.377Z" fill="#292F3B"/>
</g>
<path d="M98.5368 179.755C98.5368 179.755 93.7999 172.516 87.3051 168.523C80.8104 164.531 64.0969 161.537 57.3564 160.286C50.6159 159.035 43.3764 159.541 41.3803 166.989C39.3842 174.437 39.63 186.957 41.6261 192.447C43.6222 197.936 51.8598 201.183 58.3545 197.444C64.8492 193.705 82.8139 179.219 89.0554 178.474C95.2969 177.729 98.0378 182.503 98.5368 179.755Z" stroke="#292F3B" stroke-width="1.193" stroke-linecap="round" stroke-linejoin="round"/>
<path d="M125.499 213.703C125.499 213.703 131.241 214.448 134.98 215.938C138.719 217.427 141.222 226.67 139.725 227.914C138.228 229.158 135.256 227.668 135.256 227.668C132.908 228.494 130.483 229.078 128.016 229.411C125 229.679 121.753 215.453 125.499 213.703Z" fill="#048AD7" stroke="#292F3B" stroke-width="1.193" stroke-linecap="round" stroke-linejoin="round"/>
<path d="M106.528 212.951C106.528 212.951 107.526 212.951 113.016 210.456C118.505 207.961 123.003 207.961 126.497 213.435C129.99 218.91 131.487 225.672 129.476 229.665C127.465 233.657 119.994 236.405 115.995 236.405C111.995 236.405 111.526 231.191 111.526 231.191C111.526 231.191 111.027 222.954 108.547 219.96C106.067 216.966 105.53 213.703 106.528 212.951Z" fill="#292F3B" stroke="#292F3B" stroke-width="1.193" stroke-linecap="round" stroke-linejoin="round"/>
<path d="M88.0573 179.755C93.5466 177.759 100.54 179.01 103.035 185.996C105.531 192.983 107.772 213.45 107.772 213.45C107.772 213.45 114.014 214.195 116.509 216.951C119.004 219.706 120.233 226.685 119.756 230.178C119.28 233.671 110.521 240.159 100.54 240.412C90.5599 240.665 83.3129 235.943 79.8198 223.185C76.3266 210.426 77.712 191.039 77.712 191.039C77.712 191.039 78.9781 185.326 80.8848 184.052" fill="#048AD7"/>
<path d="M88.0573 179.755C93.5466 177.759 100.54 179.01 103.035 185.996C105.531 192.983 107.772 213.45 107.772 213.45C107.772 213.45 114.014 214.195 116.509 216.951C119.004 219.706 120.233 226.685 119.756 230.178C119.28 233.671 110.521 240.159 100.54 240.412C90.5599 240.665 83.3129 235.943 79.8198 223.185C76.3266 210.426 77.712 191.039 77.712 191.039C77.712 191.039 78.9781 185.326 80.8848 184.052" stroke="#292F3B" stroke-width="1.193" stroke-linecap="round" stroke-linejoin="round"/>
<path d="M107.772 213.45C107.772 213.45 109.724 222.544 99.6987 227.535" stroke="#292F3B" stroke-width="1.193" stroke-linecap="round" stroke-linejoin="round"/>
<path d="M75.7771 71.1878C75.7771 69.3252 76.6347 67.9517 78.571 67.9517C80.5073 67.9517 81.4051 69.2917 81.4051 71.1878V77.7203C81.4051 79.5829 80.5408 80.9564 78.571 80.9564C76.6012 80.9564 75.7771 79.6164 75.7771 77.7203V71.1878ZM76.6146 77.7806C76.6146 79.1742 77.164 80.1926 78.571 80.1926C79.978 80.1926 80.581 79.1742 80.581 77.7806V71.1342C80.581 69.7473 80.0182 68.7222 78.571 68.7222C77.1238 68.7222 76.6146 69.7473 76.6146 71.1342V77.7806Z" fill="#292F3B"/>
<path d="M82.7383 71.1878C82.7383 69.3252 83.5959 67.9517 85.5322 67.9517C87.4685 67.9517 88.3663 69.2917 88.3663 71.1878V77.7203C88.3663 79.5829 87.5087 80.9564 85.5322 80.9564C83.5557 80.9564 82.7383 79.6164 82.7383 77.7203V71.1878ZM83.5758 77.7806C83.5758 79.1742 84.1252 80.1926 85.5322 80.1926C86.9392 80.1926 87.5422 79.1742 87.5422 77.7806V71.1342C87.5422 69.7473 86.9794 68.7222 85.5322 68.7222C84.085 68.7222 83.5758 69.7473 83.5758 71.1342V77.7806Z" fill="#292F3B"/>
<path d="M92.4064 68.0654C94.3762 68.0654 95.1467 69.3049 95.1467 71.1675V72.5611C95.1467 74.5711 94.2087 75.5895 92.1853 75.5895H90.5974V80.8557H89.78V68.0654H92.4064ZM92.1853 74.8257C93.666 74.8257 94.3025 74.1557 94.3025 72.6147V71.1139C94.3025 69.727 93.8268 68.8292 92.4064 68.8292H90.5974V74.8592L92.1853 74.8257Z" fill="#292F3B"/>
<path d="M101.793 71.1542V71.4222H100.989V71.0939C100.989 69.7539 100.48 68.7221 99.0932 68.7221C97.7063 68.7221 97.1904 69.7271 97.1904 71.0805C97.1904 74.1826 101.813 74.2362 101.813 77.7805C101.813 79.623 101.009 80.9764 99.053 80.9764C97.0966 80.9764 96.2993 79.6364 96.2993 77.7805V77.1105H97.1033V77.8207C97.1033 79.1607 97.6326 80.1791 99.0396 80.1791C100.447 80.1791 100.976 79.1875 100.976 77.8207C100.976 74.7521 96.3529 74.6985 96.3529 71.1207C96.3529 69.2045 97.1904 67.9583 99.0731 67.9382C100.956 67.9181 101.793 69.305 101.793 71.1542Z" fill="#292F3B"/>
<path d="M103.897 79.2476V80.8556H103.08V79.2476H103.897Z" fill="#292F3B"/>
<path d="M106.182 79.2476V80.8556H105.364V79.2476H106.182Z" fill="#292F3B"/>
<path d="M108.466 79.2476V80.8556H107.642V79.2476H108.466Z" fill="#292F3B"/>
<path d="M78.4773 86.6714C80.4873 86.6714 81.2176 87.9109 81.2176 89.7802V91.1671C81.2176 93.1771 80.2863 94.2022 78.2629 94.2022H76.6683V99.4617H75.8308V86.6714H78.4773ZM78.2629 93.4317C79.7369 93.4317 80.3801 92.7617 80.3801 91.2207V89.7199C80.3801 88.333 79.9044 87.4419 78.4773 87.4419H76.6683V93.4317H78.2629Z" fill="#292F3B"/>
<path d="M83.4688 96.6277L82.7988 99.4618H82.0283L84.8222 86.6514H86.0483L88.8958 99.4618H88.0583L87.3883 96.6277H83.4688ZM83.5961 95.8974H87.3213L85.4386 87.6229L83.5961 95.8974Z" fill="#292F3B"/>
<path d="M95.6559 89.7802V90.7316H94.8519V89.7266C94.8519 88.3866 94.3226 87.3146 92.9156 87.3146C91.5086 87.3146 90.9793 88.3598 90.9793 89.7266V96.3797C90.9793 97.7197 91.5086 98.7716 92.9156 98.7716C94.3226 98.7716 94.8519 97.7465 94.8519 96.3797V93.6193H93.13V92.8555H95.6291V96.3261C95.6291 98.1686 94.8251 99.5555 92.8687 99.5555C90.9123 99.5555 90.115 98.1686 90.115 96.3261V89.7802C90.115 87.9377 90.919 86.5508 92.8687 86.5508C94.8184 86.5508 95.6559 87.9511 95.6559 89.7802Z" fill="#292F3B"/>
<path d="M101.398 92.5942V93.358H97.9072V98.718H102.108V99.4885H97.063V86.6714H102.108V87.4419H97.9072V92.5942H101.398Z" fill="#292F3B"/>
<path d="M107.08 99.4617H106.309V86.6714H107.408L111.22 97.4718V86.6714H111.984V99.4617H111.053L107.033 88.0717L107.08 99.4617Z" fill="#292F3B"/>
<path d="M113.404 89.7802C113.404 87.9176 114.262 86.5508 116.198 86.5508C118.134 86.5508 119.032 87.8908 119.032 89.7802V96.3261C119.032 98.1887 118.168 99.5555 116.198 99.5555C114.228 99.5555 113.404 98.2155 113.404 96.3261V89.7802ZM114.242 96.3797C114.242 97.7666 114.791 98.7917 116.198 98.7917C117.605 98.7917 118.208 97.7666 118.208 96.3797V89.7266C118.208 88.3397 117.645 87.3146 116.198 87.3146C114.751 87.3146 114.242 88.3397 114.242 89.7266V96.3797Z" fill="#292F3B"/>
<path d="M122.61 99.4617V87.4419H120.017V86.6714H126.047V87.4419H123.434V99.4617H122.61Z" fill="#292F3B"/>
<path d="M134.054 92.9024V93.6662H130.744V99.4617H129.906V86.6714H134.764V87.4419H130.744V92.9024H134.054Z" fill="#292F3B"/>
<path d="M136.01 89.7802C136.01 87.9176 136.868 86.5508 138.804 86.5508C140.74 86.5508 141.638 87.8908 141.638 89.7802V96.3261C141.638 98.1887 140.78 99.5555 138.804 99.5555C136.827 99.5555 136.01 98.2155 136.01 96.3261V89.7802ZM136.848 96.3797C136.848 97.7666 137.397 98.7917 138.804 98.7917C140.211 98.7917 140.814 97.7666 140.814 96.3797V89.7266C140.814 88.3397 140.251 87.3146 138.804 87.3146C137.357 87.3146 136.848 88.3397 136.848 89.7266V96.3797Z" fill="#292F3B"/>
<path d="M143.809 96.373C143.809 97.713 144.325 98.8051 145.732 98.8051C147.139 98.8051 147.648 97.7465 147.648 96.373V86.6714H148.432V96.3395C148.432 98.1619 147.668 99.5689 145.712 99.5689C143.755 99.5689 142.971 98.1619 142.971 96.3395V86.6714H143.809V96.373Z" fill="#292F3B"/>
<path d="M150.643 99.4617H149.879V86.6714H150.971L154.81 97.4718V86.6714H155.581V99.4617H154.643L150.623 88.0717L150.643 99.4617Z" fill="#292F3B"/>
<path d="M159.835 86.6714C161.812 86.6714 162.669 87.9712 162.669 89.8539V96.2792C162.669 98.1619 161.812 99.4617 159.835 99.4617H157.021V86.6714H159.835ZM159.835 98.6912C161.262 98.6912 161.845 97.7264 161.845 96.3194V89.8137C161.845 88.4067 161.242 87.4419 159.835 87.4419H157.886V98.6912H159.835Z" fill="#292F3B"/>
<path d="M202.34 217.837L211.459 196.31H216.919V217.837H219.284V222.386H216.919V228.169H212.001V222.386H202.34V217.837ZM211.988 217.837V205.871L206.936 217.837H211.988Z" fill="white"/>
<path d="M221.154 203.955C221.154 198.863 223.834 195.915 228.752 195.915C233.669 195.915 236.349 198.83 236.349 203.955V220.517C236.349 225.616 233.669 228.557 228.752 228.557C223.834 228.557 221.154 225.643 221.154 220.517V203.955ZM226.159 220.839C226.159 223.117 227.157 223.981 228.752 223.981C230.346 223.981 231.345 223.117 231.345 220.839V203.64C231.345 201.362 230.34 200.498 228.752 200.498C227.164 200.498 226.159 201.362 226.159 203.64V220.839Z" fill="white"/>
<path d="M238.399 217.837L247.498 196.31H252.959V217.837H255.324V222.386H252.959V228.169H248.041V222.386H238.399V217.837ZM248.041 217.837V205.871L242.996 217.837H248.041Z" fill="white"/>
</g>
<defs>
<clipPath id="clip0_4387_31672">
<rect width="335" height="335" fill="white"/>
</clipPath>
</defs>
</svg>
