<svg width="24" height="14" viewBox="0 0 24 14" fill="none" xmlns="http://www.w3.org/2000/svg">
<path d="M19.5 1.99997C20.103 1.99997 20.7056 2.13131 21.291 2.39011C21.4482 2.45995 21.6323 2.4443 21.7754 2.34567C21.918 2.24803 22.0005 2.08345 21.9926 1.91063C21.9448 0.839344 21.0693 0 20 0H1.99997C0.896953 0 0 0.896953 0 1.99997V6.99998C0 8.103 0.896953 9 2.00002 9H13.5C13.7764 9 14 8.77636 14 8.49998V7.99997C14 7.36031 14.316 6.75291 14.8442 6.37495C14.9604 6.29194 15.0356 6.16355 15.0508 6.02194C15.2974 3.729 17.2104 1.99997 19.5 1.99997ZM4.6162 4.56689C4.85545 4.70508 4.93748 5.01075 4.7993 5.25C4.70653 5.41017 4.53853 5.49998 4.3657 5.49998C4.28072 5.49998 4.1948 5.47852 4.11619 5.43309L3.99998 5.36602V5.49998C3.99998 5.77636 3.77634 6 3.49997 6C3.22364 6 3 5.77636 3 5.49998V5.36602L2.8838 5.43309C2.80519 5.47852 2.71927 5.49998 2.63428 5.49998C2.46141 5.49998 2.29345 5.41013 2.20069 5.25C2.0625 5.01075 2.14453 4.70508 2.38378 4.56689L2.4997 4.5L2.38378 4.43311C2.14453 4.29492 2.0625 3.98925 2.20069 3.75C2.33888 3.51075 2.64502 3.42872 2.8838 3.56691L3 3.63394V3.49997C3 3.22359 3.22364 2.99995 3.50002 2.99995C3.77639 2.99995 4.00003 3.22359 4.00003 3.49997V3.63394L4.11623 3.56686C4.35356 3.42867 4.66069 3.5107 4.79934 3.74995C4.93753 3.9892 4.8555 4.29488 4.61625 4.43306L4.50033 4.49995L4.6162 4.56689ZM8.61623 4.56689C8.85548 4.70508 8.93752 5.01075 8.79933 5.25C8.70656 5.41017 8.53856 5.49998 8.36573 5.49998C8.28075 5.49998 8.19483 5.47852 8.11622 5.43309L8.00002 5.36602V5.49998C8.00002 5.77636 7.77637 6 7.5 6C7.22363 6 6.99998 5.77636 6.99998 5.49998V5.36602L6.88378 5.43309C6.80517 5.47852 6.71925 5.49998 6.63427 5.49998C6.46139 5.49998 6.29344 5.41013 6.20067 5.25C6.06248 5.01075 6.14452 4.70508 6.38377 4.56689L6.49969 4.5L6.38377 4.43311C6.14452 4.29492 6.06248 3.98925 6.20067 3.75C6.33839 3.51075 6.64402 3.42872 6.88378 3.56691L6.99998 3.63398V3.50002C6.99998 3.22364 7.22363 3 7.5 3C7.77637 3 8.00002 3.22364 8.00002 3.50002V3.63398L8.11622 3.56691C8.35402 3.42872 8.66016 3.51075 8.79933 3.75C8.93752 3.98925 8.85548 4.29492 8.61623 4.43311L8.50031 4.5L8.61623 4.56689ZM12.6162 4.56689C12.8555 4.70508 12.9375 5.01075 12.7993 5.25C12.7065 5.41017 12.5385 5.49998 12.3657 5.49998C12.2807 5.49998 12.1948 5.47852 12.1162 5.43309L12 5.36602V5.49998C12 5.77636 11.7764 6 11.5 6C11.2236 6 11 5.77636 11 5.49998V5.36602L10.8838 5.43309C10.8052 5.47852 10.7192 5.49998 10.6342 5.49998C10.4614 5.49998 10.2934 5.41013 10.2007 5.25C10.0625 5.01075 10.1445 4.70508 10.3837 4.56689L10.4997 4.5L10.3837 4.43311C10.1445 4.29492 10.0625 3.98925 10.2007 3.75C10.3384 3.51075 10.6445 3.42872 10.8838 3.56691L11 3.63398V3.50002C11 3.22364 11.2236 3 11.5 3C11.7764 3 12 3.22364 12 3.50002V3.63398L12.1162 3.56691C12.3545 3.42872 12.6607 3.51075 12.7993 3.75C12.9375 3.98925 12.8555 4.29492 12.6162 4.43311L12.5003 4.5L12.6162 4.56689Z" fill="#4F565E"/>
<path d="M23 7.00003V6.50002C23 4.57031 21.4297 3 19.5 3C17.5703 3 16 4.57031 16 6.50002V7.00003C15.4487 7.00003 15 7.44877 15 8.00002V13C15 13.5513 15.4487 14 16 14H23C23.5512 14 24 13.5513 24 13V8.00002C24 7.44877 23.5513 7.00003 23 7.00003ZM20 10.8463V11.5C20 11.7764 19.7764 12 19.5 12C19.2236 12 19 11.7764 19 11.5V10.8463C18.7066 10.6717 18.5 10.3652 18.5 10C18.5 9.44878 18.9487 9.00005 19.5 9.00005C20.0512 9.00005 20.4999 9.44878 20.4999 10C20.5 10.3653 20.2933 10.6717 20 10.8463ZM21 7.00003H18V6.50002C18 5.67286 18.6728 5.00002 19.5 5.00002C20.3272 5.00002 21 5.67286 21 6.50002V7.00003Z" fill="#4F565E"/>
</svg>
