<svg width="24" height="24" viewBox="0 0 24 24" fill="none" xmlns="http://www.w3.org/2000/svg">
<g clip-path="url(#clip0_1119_5606)">
<path d="M19.3043 3.65236V5.73932H16.1739V2.60889H7.82608V5.73932H4.69564V2.60889H0.521729V8.86976H23.4783V2.60889H19.3043V3.65236Z" fill="url(#paint0_linear_1119_5606)"/>
<path d="M4.69564 23.4786V19.3047H0.521729V20.3482L3.65216 23.4786H4.69564Z" fill="url(#paint1_linear_1119_5606)"/>
<path d="M23.4783 2.08696H19.8261V0.521739C19.8261 0.233739 19.5929 0 19.3043 0H16.1739C15.8854 0 15.6522 0.233739 15.6522 0.521739V2.08696H8.34783V0.521739C8.34783 0.233739 8.11461 0 7.82609 0H4.69565C4.40713 0 4.17391 0.233739 4.17391 0.521739V2.08696H0.521739C0.233217 2.08696 0 2.3207 0 2.6087V20.3478C0 20.4861 0.0547826 20.6191 0.15287 20.7167L3.2833 23.8471C3.38087 23.9452 3.51339 24 3.65217 24H23.4783C23.7668 24 24 23.7663 24 23.4783V2.6087C24 2.3207 23.7668 2.08696 23.4783 2.08696ZM16.6957 1.04348H18.7826V5.21739H16.6957V1.04348ZM5.21739 1.04348H7.30435V5.21739H5.21739V1.04348ZM4.17391 22.9565H3.86817L1.04348 20.1318V19.8261H4.17391V22.9565ZM22.9565 22.9565H5.21739V19.3043C5.21739 19.0163 4.98417 18.7826 4.69565 18.7826H1.04348V9.3913H22.9565V22.9565ZM22.9565 8.34783H1.04348V3.13043H4.17391V5.73913C4.17391 6.02713 4.40713 6.26087 4.69565 6.26087H7.82609C8.11461 6.26087 8.34783 6.02713 8.34783 5.73913V3.13043H15.6522V5.73913C15.6522 6.02713 15.8854 6.26087 16.1739 6.26087H19.3043C19.5929 6.26087 19.8261 6.02713 19.8261 5.73913V3.13043H22.9565V8.34783Z" fill="#4F565E"/>
<path d="M8.86948 17.7389H12.5217V20.3476C12.5217 20.6356 12.7549 20.8693 13.0434 20.8693C13.3319 20.8693 13.5651 20.6356 13.5651 20.3476V17.7389H15.1304C15.4189 17.7389 15.6521 17.5052 15.6521 17.2172C15.6521 16.9292 15.4189 16.6954 15.1304 16.6954H13.5651V11.9998C13.5651 11.7118 13.3319 11.478 13.0434 11.478H11.9999C11.8163 11.478 11.6467 11.574 11.5528 11.7311L8.42235 16.9485C8.32531 17.1097 8.32322 17.3105 8.41557 17.4739C8.50792 17.6372 8.68166 17.7389 8.86948 17.7389ZM12.2952 12.5215H12.5217V16.6954H9.7914L12.2952 12.5215Z" fill="#4F565E"/>
</g>
<defs>
<linearGradient id="paint0_linear_1119_5606" x1="0.521729" y1="5.73932" x2="23.4783" y2="5.73932" gradientUnits="userSpaceOnUse">
<stop stop-color="#00C96D"/>
<stop offset="1" stop-color="#048AD7"/>
</linearGradient>
<linearGradient id="paint1_linear_1119_5606" x1="0.521729" y1="21.3916" x2="4.69564" y2="21.3916" gradientUnits="userSpaceOnUse">
<stop stop-color="#00C96D"/>
<stop offset="1" stop-color="#048AD7"/>
</linearGradient>
<clipPath id="clip0_1119_5606">
<rect width="24" height="24" fill="white"/>
</clipPath>
</defs>
</svg>
