<svg width="24" height="24" viewBox="0 0 24 24" fill="none" xmlns="http://www.w3.org/2000/svg">
<path d="M20.1702 8.68095C20.1702 10.172 19.7719 11.5661 19.0774 12.7661L12 23.4895L4.92254 12.7661C4.22807 11.5661 3.82977 10.172 3.82977 8.68095C3.82977 4.16691 7.48594 0.510742 12 0.510742C16.514 0.510742 20.1702 4.16691 20.1702 8.68095ZM16.0851 8.68095C16.0851 6.42393 14.257 4.59585 12 4.59585C9.74296 4.59585 7.91488 6.42393 7.91488 8.68095C7.91488 10.938 9.74296 12.7661 12 12.7661C14.257 12.7661 16.0851 10.938 16.0851 8.68095Z" fill="url(#paint0_linear_965_4185)"/>
<path d="M4.49617 13.0473L11.5736 23.7707C11.6686 23.9137 11.8284 24 12 24C12.1716 24 12.3314 23.9137 12.4264 23.7707L19.5197 13.0218C20.2795 11.7084 20.6809 10.2071 20.6809 8.68085C20.6809 3.89413 16.7867 0 12 0C7.21328 0 3.31915 3.89413 3.31915 8.68085C3.31915 10.2071 3.72051 11.7084 4.48034 13.0213C4.48545 13.0305 4.49056 13.0391 4.49617 13.0473ZM12 1.02128C16.2235 1.02128 19.6596 4.45736 19.6596 8.68085C19.6596 10.0279 19.3057 11.352 18.6511 12.4846L12 22.5626L5.35711 12.4979C4.69175 11.3428 4.34043 10.0233 4.34043 8.68085C4.34043 4.45736 7.77651 1.02128 12 1.02128Z" fill="#4F565E"/>
<path d="M12 13.2765C14.5343 13.2765 16.5957 11.2145 16.5957 8.68071C16.5957 6.14692 14.5343 4.08496 12 4.08496C9.46568 4.08496 7.40424 6.14692 7.40424 8.68071C7.40424 11.2145 9.46568 13.2765 12 13.2765ZM12 5.10624C13.9705 5.10624 15.5744 6.70964 15.5744 8.68071C15.5744 10.6518 13.9705 12.2552 12 12.2552C10.0294 12.2552 8.42551 10.6518 8.42551 8.68071C8.42551 6.70964 10.0294 5.10624 12 5.10624Z" fill="#4F565E"/>
<defs>
<linearGradient id="paint0_linear_965_4185" x1="3.82977" y1="12.0001" x2="20.1702" y2="12.0001" gradientUnits="userSpaceOnUse">
<stop stop-color="#00C96D"/>
<stop offset="1" stop-color="#048AD7"/>
</linearGradient>
</defs>
</svg>
