<svg width="32" height="32" viewBox="0 0 32 32" fill="none" xmlns="http://www.w3.org/2000/svg">
<rect x="0.5" y="0.5" width="31" height="31" rx="7.5" fill="url(#paint0_linear_1026_3995)" stroke="#E3E9ED"/>
<g clip-path="url(#clip0_1026_3995)">
<path d="M17.4141 15.0858C18.1951 15.8669 18.1951 17.1332 17.4141 17.9143C16.633 18.6954 15.3666 18.6954 14.5856 17.9143C13.8045 17.1332 13.8045 15.8669 14.5856 15.0858C15.3666 14.3047 16.633 14.3047 17.4141 15.0858Z" fill="white"/>
<path d="M22 11.0001H20.6181L19.6176 9H12.3815L11.3819 11.0011L10.002 11.0035C8.90188 11.0055 8.00632 11.902 8.00537 13.0026L8 20.9999C8 22.103 8.897 23.0005 10.0001 23.0005H22C23.103 23.0005 24 22.1035 24 21.0004V13.0001C24 11.8971 23.103 11.0001 22 11.0001ZM15.9998 20.5004C13.7941 20.5004 11.9996 18.7059 11.9996 16.5002C11.9996 14.2946 13.7941 12.5001 15.9998 12.5001C18.2054 12.5001 19.9999 14.2946 19.9999 16.5002C19.9999 18.7059 18.2054 20.5004 15.9998 20.5004Z" fill="white"/>
</g>
<defs>
<linearGradient id="paint0_linear_1026_3995" x1="0" y1="16" x2="32" y2="16" gradientUnits="userSpaceOnUse">
<stop stop-color="#00C96D"/>
<stop offset="1" stop-color="#048AD7"/>
</linearGradient>
<clipPath id="clip0_1026_3995">
<rect width="16" height="16" fill="white" transform="translate(8 8)"/>
</clipPath>
</defs>
</svg>
