<svg width="133" height="20" viewBox="0 0 133 20" fill="none" xmlns="http://www.w3.org/2000/svg">
<path d="M4.575 20L6.2 12.6053L0.75 7.63158L7.95 6.97368L10.75 0L13.55 6.97368L20.75 7.63158L15.3 12.6053L16.925 20L10.75 16.0789L4.575 20Z" fill="#00C96D"/>
<path d="M32.575 20L34.2 12.6053L28.75 7.63158L35.95 6.97368L38.75 0L41.55 6.97368L48.75 7.63158L43.3 12.6053L44.925 20L38.75 16.0789L32.575 20Z" fill="#00C96D"/>
<path d="M60.575 20L62.2 12.6053L56.75 7.63158L63.95 6.97368L66.75 0L69.55 6.97368L76.75 7.63158L71.3 12.6053L72.925 20L66.75 16.0789L60.575 20Z" fill="#00C96D"/>
<path d="M88.575 20L90.2 12.6053L84.75 7.63158L91.95 6.97368L94.75 0L97.55 6.97368L104.75 7.63158L99.3 12.6053L100.925 20L94.75 16.0789L88.575 20Z" fill="#00C96D"/>
<path d="M122.75 5.39474V13.6053L125.9 15.6316L125.075 11.8421L127.85 9.31579L124.2 8.97368L122.75 5.39474ZM116.575 20L118.2 12.6053L112.75 7.63158L119.95 6.97368L122.75 0L125.55 6.97368L132.75 7.63158L127.3 12.6053L128.925 20L122.75 16.0789L116.575 20Z" fill="#00C96D"/>
</svg>
