<svg width="20" height="20" viewBox="0 0 20 20" fill="none" xmlns="http://www.w3.org/2000/svg">
<rect width="20" height="20" rx="2" fill="url(#paint0_linear_1073_6931)"/>
<g clip-path="url(#clip0_1073_6931)">
<path d="M13.25 10C14.4907 10 15.5 8.99071 15.5 7.75C15.5 6.50929 14.4907 5.5 13.25 5.5C12.0093 5.5 11 6.50929 11 7.75C11 8.99071 12.0093 10 13.25 10ZM12.6382 6.77636L13.1382 6.52635C13.2156 6.48777 13.3079 6.4912 13.3813 6.53734C13.4551 6.583 13.5 6.66332 13.5 6.74999V8.74998C13.5 8.88817 13.3882 8.99999 13.25 8.99999C13.1118 8.99999 13 8.88817 13 8.74998V7.15452L12.8618 7.22362C12.7385 7.28465 12.5881 7.23534 12.5263 7.1118C12.4646 6.98828 12.5146 6.83814 12.6382 6.77636Z" fill="white"/>
<path d="M6.33496 9.41206L4.29883 9.00483C4.22608 8.99018 4.14941 9.00924 4.09131 9.05658C4.03368 9.10418 4 9.17499 4 9.24994V13.2499C4 13.3881 4.11182 13.5 4.25001 13.5H5.81641C6.18749 13.5 6.50683 13.2231 6.55909 12.8562L6.93067 10.2536C6.98683 9.85955 6.72559 9.48994 6.33496 9.41206Z" fill="white"/>
<path d="M14.4999 11.2501C14.1878 11.2501 13.6614 11.3614 13.1881 11.4801C13.0722 11.5092 12.9972 11.6156 12.9998 11.735C12.9999 11.74 12.9999 11.745 12.9999 11.7501C12.9999 12.1282 12.8334 12.4603 12.5317 12.6856C12.2392 12.9039 11.8637 13.0057 11.35 13.0057C10.6773 13.0057 9.76172 12.8314 8.55073 12.4733C8.42574 12.4364 8.3374 12.3121 8.36185 12.1841C8.39002 12.0364 8.53904 11.948 8.67865 11.9898C9.83393 12.3321 10.7324 12.5056 11.35 12.5056C11.8759 12.5056 12.1059 12.3797 12.2329 12.2847C12.4077 12.1543 12.4999 11.9695 12.4999 11.75C12.4999 11.7081 12.4923 11.6703 12.487 11.6312C12.3924 10.941 11.4836 10.6946 10.5498 10.5049C10.1162 10.417 9.79341 10.2615 9.48141 10.1108C9.09664 9.92529 8.73336 9.75 8.24996 9.75C8.05831 9.75 7.8559 9.76395 7.64813 9.79137C7.51693 9.80866 7.42224 9.92632 7.43213 10.0583C7.43939 10.1552 7.43743 10.2421 7.42524 10.3245L7.05366 12.9277C7.05024 12.9512 7.04339 12.9731 7.03754 12.9953C7.03704 12.9975 7.02483 13.0434 7.02434 13.0454C6.99554 13.1628 7.05462 13.2842 7.16497 13.3335C8.35444 13.8658 9.94233 14.5001 10.7499 14.5001C11.7197 14.5001 13.7163 13.5186 15.0371 12.8692C15.378 12.7017 15.6605 12.5626 15.8452 12.4814C15.9347 12.4421 15.9988 12.3569 15.9999 12.2592C16.0063 11.6655 15.3878 11.2501 14.4999 11.2501Z" fill="white"/>
</g>
<defs>
<linearGradient id="paint0_linear_1073_6931" x1="0" y1="10" x2="20" y2="10" gradientUnits="userSpaceOnUse">
<stop stop-color="#00C96D"/>
<stop offset="1" stop-color="#048AD7"/>
</linearGradient>
<clipPath id="clip0_1073_6931">
<rect width="12" height="12" fill="white" transform="translate(4 4)"/>
</clipPath>
</defs>
</svg>
