<svg width="6" height="10" viewBox="0 0 6 10" fill="none" xmlns="http://www.w3.org/2000/svg">
<path d="M0.248698 9.41699C0.0959198 9.26421 0.0195313 9.06977 0.0195313 8.83366C0.0195313 8.59755 0.0959198 8.4031 0.248698 8.25032L3.4987 5.00033L0.248698 1.75033C0.0959198 1.59755 0.0195313 1.4031 0.0195313 1.16699C0.0195313 0.930881 0.0959198 0.736436 0.248698 0.583659C0.401475 0.430881 0.59592 0.354492 0.832031 0.354492C1.06814 0.354492 1.26259 0.430881 1.41536 0.583659L5.2487 4.41699C5.33203 4.50033 5.3912 4.5906 5.4262 4.68783C5.46064 4.78505 5.47786 4.88921 5.47786 5.00033C5.47786 5.11144 5.46064 5.2156 5.4262 5.31283C5.3912 5.41005 5.33203 5.50033 5.2487 5.58366L1.41536 9.41699C1.26259 9.56977 1.06814 9.64616 0.832031 9.64616C0.59592 9.64616 0.401475 9.56977 0.248698 9.41699Z" fill="#4F565E"/>
</svg>
