<svg width="335" height="335" viewBox="0 0 335 335" fill="none" xmlns="http://www.w3.org/2000/svg">
<g clip-path="url(#clip0_4386_29160)">
<path d="M311.314 76.0247C310.251 74.2381 309.134 72.4737 307.964 70.7317C292.44 47.7172 265.714 31.9789 239.423 24.8635C227.888 21.7951 216.038 20.0663 204.107 19.7112C125.972 17.0312 94.8502 78.6712 69.0284 94.5301C43.2066 110.389 3.44877 137.571 6.12877 194.514C8.80877 251.458 49.8262 305.064 129.281 308.414C208.737 311.764 214.036 275.973 258.397 262.727C287.757 253.963 308.647 224.363 318.831 197.007C332.754 159.714 332.097 111.294 311.314 76.0247Z" fill="#F3F7FA"/>
<path d="M317.375 78.2527C316.27 76.3955 315.109 74.5615 313.893 72.7506C297.756 48.827 269.974 32.4669 242.644 25.0704C230.654 21.8808 218.335 20.0837 205.933 19.7146C124.711 16.9287 92.3602 81.0038 65.5183 97.4892C38.6764 113.975 -2.65202 142.23 0.133854 201.423C2.91973 260.616 45.5575 316.34 128.152 319.823C210.746 323.305 216.255 286.1 262.368 272.331C292.887 263.221 314.603 232.451 325.189 204.014C339.662 165.249 338.98 114.915 317.375 78.2527Z" fill="#F3F7FA"/>
<path d="M295.485 268.09V258.933H285.27V241.165H270.592V169H256.553V212.62H243.787V197.005H226.56V237.393H219.54V250.315H202.95V245.47H208.05V242.777H186.99V246.01H189.547V260.013H178.695V233.62H140.408V252.468H112.958V238.465H102.75V254.088H81.0525V225.543H72.12V215.853H56.16V260.013H40.2075V269.702H30V299.32H315.27V268.09H295.485Z" stroke="#292F3B" stroke-miterlimit="10"/>
<path d="M62.4375 225.415H58.9875V228.865H62.4375V225.415Z" fill="#292F3B"/>
<path d="M69.6226 225.415H66.1726V228.865H69.6226V225.415Z" fill="#292F3B"/>
<path d="M62.4375 232.607H58.9875V236.057H62.4375V232.607Z" fill="#292F3B"/>
<path d="M69.6226 232.607H66.1726V236.057H69.6226V232.607Z" fill="#292F3B"/>
<path d="M77.3851 232.607H73.9351V236.057H77.3851V232.607Z" fill="#292F3B"/>
<path d="M77.3851 239.792H73.9351V243.242H77.3851V239.792Z" fill="#292F3B"/>
<path d="M77.3851 246.985H73.9351V250.435H77.3851V246.985Z" fill="#292F3B"/>
<path d="M77.3851 254.17H73.9351V257.62H77.3851V254.17Z" fill="#292F3B"/>
<path d="M77.3851 261.362H73.9351V264.812H77.3851V261.362Z" fill="#292F3B"/>
<path d="M77.3851 268.555H73.9351V272.005H77.3851V268.555Z" fill="#292F3B"/>
<path d="M62.4375 239.792H58.9875V243.242H62.4375V239.792Z" fill="#292F3B"/>
<path d="M69.6226 239.792H66.1726V243.242H69.6226V239.792Z" fill="#292F3B"/>
<path d="M62.4375 246.985H58.9875V250.435H62.4375V246.985Z" fill="#292F3B"/>
<path d="M69.6226 246.985H66.1726V250.435H69.6226V246.985Z" fill="#292F3B"/>
<path d="M62.4375 254.17H58.9875V257.62H62.4375V254.17Z" fill="#292F3B"/>
<path d="M69.6226 254.17H66.1726V257.62H69.6226V254.17Z" fill="#292F3B"/>
<path d="M62.4375 261.362H58.9875V264.812H62.4375V261.362Z" fill="#292F3B"/>
<path d="M46.6199 265.39H43.1699V268.84H46.6199V265.39Z" fill="#292F3B"/>
<path d="M96.3675 257.62H92.9175V261.07H96.3675V257.62Z" fill="#292F3B"/>
<path d="M103.267 257.62H99.8174V261.07H103.267V257.62Z" fill="#292F3B"/>
<path d="M262.297 173.073H258.847V176.523H262.297V173.073Z" fill="#292F3B"/>
<path d="M266.61 173.073H263.16V176.523H266.61V173.073Z" fill="#292F3B"/>
<path d="M262.297 180.265H258.847V183.715H262.297V180.265Z" fill="#292F3B"/>
<path d="M266.61 180.265H263.16V183.715H266.61V180.265Z" fill="#292F3B"/>
<path d="M262.297 187.458H258.847V190.908H262.297V187.458Z" fill="#292F3B"/>
<path d="M266.61 187.458H263.16V190.908H266.61V187.458Z" fill="#292F3B"/>
<path d="M262.297 194.643H258.847V198.093H262.297V194.643Z" fill="#292F3B"/>
<path d="M266.61 194.643H263.16V198.093H266.61V194.643Z" fill="#292F3B"/>
<path d="M262.297 201.835H258.847V205.285H262.297V201.835Z" fill="#292F3B"/>
<path d="M266.61 201.835H263.16V205.285H266.61V201.835Z" fill="#292F3B"/>
<path d="M262.297 209.02H258.847V212.47H262.297V209.02Z" fill="#292F3B"/>
<path d="M266.61 209.02H263.16V212.47H266.61V209.02Z" fill="#292F3B"/>
<path d="M262.297 216.212H258.847V219.662H262.297V216.212Z" fill="#292F3B"/>
<path d="M266.61 216.212H263.16V219.662H266.61V216.212Z" fill="#292F3B"/>
<path d="M262.297 223.405H258.847V226.855H262.297V223.405Z" fill="#292F3B"/>
<path d="M266.61 223.405H263.16V226.855H266.61V223.405Z" fill="#292F3B"/>
<path d="M262.297 230.59H258.847V234.04H262.297V230.59Z" fill="#292F3B"/>
<path d="M266.61 230.59H263.16V234.04H266.61V230.59Z" fill="#292F3B"/>
<path d="M232.965 230.59H229.515V234.04H232.965V230.59Z" fill="#292F3B"/>
<path d="M240.442 230.59H236.992V234.04H240.442V230.59Z" fill="#292F3B"/>
<path d="M247.92 230.59H244.47V234.04H247.92V230.59Z" fill="#292F3B"/>
<path d="M232.965 246.123H229.515V249.573H232.965V246.123Z" fill="#292F3B"/>
<path d="M240.442 246.123H236.992V249.573H240.442V246.123Z" fill="#292F3B"/>
<path d="M247.92 246.123H244.47V249.573H247.92V246.123Z" fill="#292F3B"/>
<path d="M232.965 261.647H229.515V265.097H232.965V261.647Z" fill="#292F3B"/>
<path d="M240.442 261.647H236.992V265.097H240.442V261.647Z" fill="#292F3B"/>
<path d="M247.92 261.647H244.47V265.097H247.92V261.647Z" fill="#292F3B"/>
<path d="M262.297 237.783H258.847V241.233H262.297V237.783Z" fill="#292F3B"/>
<path d="M266.61 237.783H263.16V241.233H266.61V237.783Z" fill="#292F3B"/>
<path d="M262.297 244.967H258.847V248.417H262.297V244.967Z" fill="#292F3B"/>
<path d="M266.61 244.967H263.16V248.417H266.61V244.967Z" fill="#292F3B"/>
<path d="M262.297 252.16H258.847V255.61H262.297V252.16Z" fill="#292F3B"/>
<path d="M266.61 252.16H263.16V255.61H266.61V252.16Z" fill="#292F3B"/>
<path d="M273.803 244.967H270.353V248.417H273.803V244.967Z" fill="#292F3B"/>
<path d="M281.857 244.967H278.407V248.417H281.857V244.967Z" fill="#292F3B"/>
<path d="M273.803 251.875H270.353V255.325H273.803V251.875Z" fill="#292F3B"/>
<path d="M281.857 251.875H278.407V255.325H281.857V251.875Z" fill="#292F3B"/>
<path d="M273.803 258.775H270.353V262.225H273.803V258.775Z" fill="#292F3B"/>
<path d="M281.857 258.775H278.407V262.225H281.857V258.775Z" fill="#292F3B"/>
<path d="M273.803 265.675H270.353V269.125H273.803V265.675Z" fill="#292F3B"/>
<path d="M281.857 265.675H278.407V269.125H281.857V265.675Z" fill="#292F3B"/>
<path d="M262.297 259.353H258.847V262.803H262.297V259.353Z" fill="#292F3B"/>
<path d="M266.61 259.353H263.16V262.803H266.61V259.353Z" fill="#292F3B"/>
<path d="M262.297 266.538H258.847V269.988H262.297V266.538Z" fill="#292F3B"/>
<path d="M266.61 266.538H263.16V269.988H266.61V266.538Z" fill="#292F3B"/>
<path d="M69.6226 261.362H66.1726V264.812H69.6226V261.362Z" fill="#292F3B"/>
<path d="M62.4375 268.555H58.9875V272.005H62.4375V268.555Z" fill="#292F3B"/>
<path d="M69.6226 268.555H66.1726V272.005H69.6226V268.555Z" fill="#292F3B"/>
<path d="M62.4375 275.74H58.9875V279.19H62.4375V275.74Z" fill="#292F3B"/>
<path d="M69.6226 275.74H66.1726V279.19H69.6226V275.74Z" fill="#292F3B"/>
<path d="M62.4375 282.933H58.9875V286.383H62.4375V282.933Z" fill="#292F3B"/>
<path d="M69.6226 282.933H66.1726V286.383H69.6226V282.933Z" fill="#292F3B"/>
<path d="M251.37 285.092V299.32H222.615V271.03H251.37V282.557" stroke="#292F3B" stroke-miterlimit="10"/>
<path d="M304.29 295.023V299.32H275.528V284.365H281.468" stroke="#292F3B" stroke-miterlimit="10"/>
<path d="M284.97 284.365H304.29V292.69" stroke="#292F3B" stroke-miterlimit="10"/>
<path d="M92.3325 284.365H112.763V299.32H84V284.365H89.6025" stroke="#292F3B" stroke-miterlimit="10"/>
<path d="M47.34 284.365H50.07V299.32H39.4275V284.365H45.195" stroke="#292F3B" stroke-miterlimit="10"/>
<path d="M239.287 271.03H234.69V299.32H239.287V271.03Z" stroke="#292F3B" stroke-miterlimit="10"/>
<path d="M203.55 274.877H199.035V267.4H214.275V274.877H207.645" stroke="#292F3B" stroke-miterlimit="10"/>
<path d="M122.827 262.225H105.285V268.555H122.827V262.225Z" stroke="#292F3B" stroke-miterlimit="10"/>
<path d="M115.35 262.225H113.625V299.32H115.35V262.225Z" stroke="#292F3B" stroke-miterlimit="10"/>
<path d="M167.015 65C146.589 65 127 73.114 112.557 87.5571C98.114 102 90 121.589 90 142.015C90 184.546 167.015 270.97 167.015 270.97C167.015 270.97 244.03 184.546 244.03 142.015C244.03 121.589 235.916 102 221.473 87.5571C207.03 73.114 187.441 65 167.015 65ZM167.015 179.627C159.576 179.627 152.304 177.421 146.119 173.288C139.934 169.155 135.113 163.281 132.266 156.408C129.419 149.536 128.674 141.973 130.126 134.677C131.577 127.381 135.159 120.679 140.419 115.419C145.679 110.159 152.381 106.577 159.677 105.126C166.973 103.674 174.536 104.419 181.408 107.266C188.281 110.113 194.155 114.934 198.288 121.119C202.421 127.304 204.627 134.576 204.627 142.015C204.627 151.99 200.664 161.557 193.611 168.611C186.557 175.664 176.99 179.627 167.015 179.627Z" fill="url(#paint0_linear_4386_29160)"/>
<path d="M153.659 217.592C153.543 215.061 152.11 213.064 150.45 213.122C148.79 213.18 147.548 215.276 147.652 217.806C147.757 220.337 149.202 222.334 150.862 222.27C152.522 222.206 153.776 220.116 153.659 217.592Z" fill="white"/>
<path d="M188.699 216.796C188.583 214.271 187.15 212.275 185.49 212.333C183.83 212.391 182.587 214.486 182.692 217.017C182.796 219.547 184.247 221.544 185.902 221.48C187.556 221.416 188.815 219.327 188.699 216.796Z" fill="white"/>
<path d="M162.406 229.929C165.084 228.928 167.936 228.48 170.792 228.609C173.648 228.739 176.448 229.444 179.024 230.683C179.109 230.73 179.184 230.794 179.245 230.871C179.306 230.947 179.351 231.035 179.377 231.129C179.403 231.223 179.411 231.321 179.399 231.418C179.387 231.515 179.356 231.608 179.308 231.693C179.21 231.864 179.048 231.989 178.858 232.042C178.668 232.095 178.465 232.072 178.292 231.978C178.205 231.931 169.934 227.473 160.061 232.558C159.885 232.647 159.682 232.664 159.493 232.606C159.305 232.547 159.146 232.418 159.052 232.245C159.006 232.158 158.979 232.064 158.97 231.966C158.962 231.869 158.973 231.772 159.003 231.679C159.032 231.586 159.08 231.5 159.143 231.426C159.207 231.351 159.284 231.29 159.371 231.246C160.351 230.738 161.366 230.298 162.406 229.929Z" fill="white"/>
<path d="M148.645 193.881C148.902 193.888 149.154 193.96 149.376 194.09C149.715 194.291 149.962 194.617 150.062 194.999C150.162 195.38 150.107 195.786 149.91 196.127C148.755 198.186 147.12 199.935 145.145 201.228C143.17 202.52 140.912 203.317 138.563 203.551C138.168 203.566 137.783 203.426 137.49 203.16C137.198 202.894 137.022 202.523 137.001 202.129C136.993 201.934 137.023 201.74 137.089 201.557C137.156 201.374 137.258 201.206 137.389 201.063C137.521 200.92 137.679 200.804 137.856 200.721C138.032 200.639 138.223 200.593 138.418 200.585C138.644 200.585 144.001 200.248 147.333 194.624C147.463 194.393 147.655 194.201 147.886 194.07C148.117 193.939 148.379 193.874 148.645 193.881Z" fill="white"/>
<path d="M183.708 193.028C183.95 192.98 184.201 192.994 184.437 193.066C184.673 193.139 184.887 193.27 185.06 193.446C189.703 198.089 195.008 197.155 195.229 197.114C195.613 197.045 196.009 197.127 196.334 197.344C196.658 197.56 196.886 197.894 196.97 198.275C197.009 198.466 197.01 198.662 196.972 198.853C196.935 199.044 196.86 199.226 196.752 199.387C196.644 199.549 196.506 199.688 196.344 199.796C196.182 199.904 196 199.979 195.809 200.016C195.519 200.069 188.763 201.357 182.918 195.518C182.727 195.329 182.592 195.092 182.526 194.831C182.46 194.571 182.467 194.298 182.545 194.041C182.623 193.784 182.77 193.553 182.97 193.374C183.17 193.194 183.415 193.073 183.679 193.022L183.708 193.028Z" fill="white"/>
</g>
<defs>
<linearGradient id="paint0_linear_4386_29160" x1="90" y1="167.985" x2="244.03" y2="167.985" gradientUnits="userSpaceOnUse">
<stop stop-color="#00C96D"/>
<stop offset="1" stop-color="#048AD7"/>
</linearGradient>
<clipPath id="clip0_4386_29160">
<rect width="335" height="335" fill="white"/>
</clipPath>
</defs>
</svg>
