<svg width="44" height="45" viewBox="0 0 44 45" fill="none" xmlns="http://www.w3.org/2000/svg">
<rect y="0.5" width="44" height="44" rx="8" fill="url(#paint0_linear_1026_4631)"/>
<path d="M31.1615 33.5C31.9541 33.5 32.4317 32.622 32.001 31.9566L25.6772 22.1867L31.5398 13.0396C31.9664 12.374 31.4884 11.5 30.6979 11.5H26.6583C26.3045 11.5 25.9771 11.6869 25.7973 11.9914L22.0158 18.3936L18.1722 11.9856C17.9915 11.6843 17.666 11.5 17.3146 11.5H13.3036C12.5128 11.5 12.0349 12.3746 12.4621 13.0402L18.3544 22.2196L12.008 31.9539C11.5744 32.619 12.0517 33.5 12.8457 33.5H16.8822C17.2284 33.5 17.55 33.3209 17.7323 33.0266L22.0158 26.1117L26.2993 33.0266C26.4816 33.3209 26.8032 33.5 27.1494 33.5H31.1615Z" fill="white"/>
<defs>
<linearGradient id="paint0_linear_1026_4631" x1="0" y1="22.5" x2="44" y2="22.5" gradientUnits="userSpaceOnUse">
<stop stop-color="#00C96D"/>
<stop offset="1" stop-color="#048AD7"/>
</linearGradient>
</defs>
</svg>
