<svg width="8" height="8" viewBox="0 0 8 8" fill="none" xmlns="http://www.w3.org/2000/svg">
<path d="M7.28548 0.5L4 0.500328L0.714516 0.5C0.320641 0.5 0 0.822594 0 1.21941C0 1.32781 0.0247344 1.43295 0.07325 1.53191C0.605797 2.625 1.49903 4.17514 2.28713 5.54297C2.69891 6.25781 3.08791 6.93294 3.36916 7.44597C3.5023 7.68848 3.73797 7.83334 4.00034 7.83334C4.26239 7.83334 4.49806 7.68848 4.6312 7.44597C4.91213 6.93327 5.3008 6.25847 5.71227 5.54428C6.50067 4.17611 7.39391 2.62533 7.92678 1.53256C7.97527 1.43328 8 1.32781 8 1.21941C8 0.822594 7.67936 0.5 7.28548 0.5Z" fill="url(#paint0_linear_1026_5004)"/>
<defs>
<linearGradient id="paint0_linear_1026_5004" x1="0" y1="4.16667" x2="8" y2="4.16667" gradientUnits="userSpaceOnUse">
<stop stop-color="#00C96D"/>
<stop offset="1" stop-color="#048AD7"/>
</linearGradient>
</defs>
</svg>
