<svg width="20" height="20" viewBox="0 0 20 20" fill="none" xmlns="http://www.w3.org/2000/svg">
<path d="M6.33332 3.4C6.33332 3.17909 6.15423 3 5.93332 3H4.06664C3.84572 3 3.66664 3.17909 3.66664 3.4V14.1C3.66664 14.3209 3.48755 14.5 3.26664 14.5H1.89074C1.5456 14.5 1.36248 14.9078 1.59177 15.1657L4.70104 18.6637C4.86015 18.8427 5.13985 18.8427 5.29896 18.6637L8.40823 15.1657C8.63752 14.9078 8.4544 14.5 8.10926 14.5H6.73332C6.51241 14.5 6.33332 14.3209 6.33332 14.1V3.4Z" fill="white"/>
<path d="M16.3333 15.5C16.3333 15.7761 16.1095 16 15.8333 16H14.1666C13.8905 16 13.6666 15.7761 13.6666 15.5V5C13.6666 4.72386 13.4428 4.5 13.1666 4.5H12.1134C11.682 4.5 11.4531 3.99027 11.7397 3.66782L14.6263 0.420418C14.8252 0.19666 15.1748 0.19666 15.3737 0.420418L18.2603 3.66782C18.5469 3.99027 18.318 4.5 17.8866 4.5H16.8333C16.5572 4.5 16.3333 4.72386 16.3333 5V15.5Z" fill="white"/>
</svg>
