<svg width="16" height="16" viewBox="0 0 16 16" fill="none" xmlns="http://www.w3.org/2000/svg">
<path d="M7 3V2H9V3H10C10.3473 3 10.6785 3.05847 11 3.14203V1C11 0.447754 10.5522 0 10 0H6C5.44775 0 5 0.447754 5 1V3.14203C5.32153 3.05847 5.65271 3 6 3H7Z" fill="#4F565E"/>
<path d="M10.4 4H5.6C3.61484 4 2 5.3457 2 7V14C2 14.5522 2.5373 15 3.2 15V16H5.6V15H10.4V16H12.8V15C13.4627 15 14 14.5522 14 14V7C14 5.3457 12.3852 4 10.4 4ZM9.2 11C8.53723 11 8 10.5522 8 10C8 9.70898 8.24573 9.31256 8.52398 9H4.4V8H11.6V9H9.8788C10.1562 9.31256 10.4 9.70898 10.4 10C10.4 10.5522 9.86277 11 9.2 11Z" fill="#4F565E"/>
</svg>
