<svg width="24" height="24" viewBox="0 0 24 24" fill="none" xmlns="http://www.w3.org/2000/svg">
<g clip-path="url(#clip0_1148_11229)">
<path d="M0.521729 10.9568H2.60869V15.1307L6.7826 10.9568H15.1304V0.521973H0.521729V10.9568Z" fill="url(#paint0_linear_1148_11229)"/>
<path d="M23.4783 8.34783H15.6522V0.521739C15.6522 0.233101 15.4183 0 15.1304 0H0.521739C0.233866 0 0 0.233101 0 0.521739V10.9565C0 11.2452 0.233866 11.4783 0.521739 11.4783H2.08696V15.1304C2.08696 15.3411 2.21433 15.5322 2.40897 15.6124C2.47368 15.6397 2.54144 15.6522 2.6087 15.6522C2.74423 15.6522 2.87797 15.5989 2.97758 15.4993L6.99864 11.4783H8.34783V19.3043C8.34783 19.593 8.58169 19.8261 8.86957 19.8261H17.0014L21.0224 23.8471C21.122 23.9468 21.2558 24 21.3913 24C21.4586 24 21.5263 23.9875 21.591 23.9603C21.7857 23.88 21.913 23.6889 21.913 23.4783V19.8261H23.4783C23.7661 19.8261 24 19.593 24 19.3043V8.86957C24 8.58093 23.7661 8.34783 23.4783 8.34783ZM6.78261 10.4348C6.64428 10.4348 6.51129 10.4896 6.41372 10.5876L3.13043 13.8709V10.9565C3.13043 10.6679 2.89657 10.4348 2.6087 10.4348H1.04348V1.04348H14.6087V10.4348H6.78261ZM22.9565 18.7826H21.3913C21.1034 18.7826 20.8696 19.0157 20.8696 19.3043V22.2188L17.5863 18.9355C17.4887 18.8374 17.3557 18.7826 17.2174 18.7826H9.3913V11.4783H15.1304C15.4183 11.4783 15.6522 11.2452 15.6522 10.9565V9.3913H22.9565V18.7826Z" fill="#4F565E"/>
</g>
<defs>
<linearGradient id="paint0_linear_1148_11229" x1="0.521729" y1="7.82632" x2="15.1304" y2="7.82632" gradientUnits="userSpaceOnUse">
<stop stop-color="#00C96D"/>
<stop offset="1" stop-color="#048AD7"/>
</linearGradient>
<clipPath id="clip0_1148_11229">
<rect width="24" height="24" fill="white"/>
</clipPath>
</defs>
</svg>
