<svg width="18" height="18" viewBox="0 0 18 18" fill="none" xmlns="http://www.w3.org/2000/svg">
<g clip-path="url(#clip0_1819_19219)">
<path d="M15.9444 10.5699V3.44427C15.9444 2.67829 15.3211 2.05537 14.5555 2.05537H12.8194C12.6275 2.05537 12.4722 2.21068 12.4722 2.4026V4.1387C12.4722 4.52152 12.1609 4.83314 11.7777 4.83314C11.3946 4.83317 11.0833 4.52155 11.0833 4.13874C11.0833 3.84847 11.2698 3.58704 11.5472 3.48838C11.6855 3.43887 11.7777 3.30798 11.7777 3.16117V1.01374C11.7777 0.82181 11.6225 0.666504 11.4305 0.666504C11.2386 0.666504 11.0833 0.82181 11.0833 1.01374V2.0554H5.87496C5.68303 2.0554 5.52773 2.21071 5.52773 2.40264V4.13874C5.52773 4.52155 5.21643 4.83317 4.83329 4.83317C4.45015 4.83317 4.13886 4.52155 4.13886 4.13874C4.13886 3.84847 4.32535 3.58704 4.60273 3.48838C4.74107 3.43887 4.83329 3.30798 4.83329 3.16117V1.01374C4.83329 0.82181 4.67799 0.666504 4.48606 0.666504C4.29413 0.666504 4.13883 0.82181 4.13883 1.01374V2.0554H2.05549C1.28987 2.0554 0.666626 2.67829 0.666626 3.44427V14.5554C0.666626 15.3214 1.28987 15.9443 2.05553 15.9443H10.5699C11.2712 16.792 12.3306 17.3332 13.5139 17.3332C15.6196 17.3332 17.3333 15.6198 17.3333 13.5137C17.3333 12.3303 16.7921 11.271 15.9444 10.5699ZM9.69439 13.5137C9.69439 13.8752 9.74823 14.2237 9.84247 14.5554H2.05553V6.22207H14.5555V9.84238C14.2239 9.74808 13.8753 9.6943 13.5139 9.6943C11.4081 9.69427 9.69439 11.4077 9.69439 13.5137ZM14.801 14.8009C14.7332 14.8687 14.6443 14.9026 14.5555 14.9026C14.4667 14.9026 14.3778 14.8687 14.31 14.8009L13.2683 13.7592C13.2032 13.6941 13.1666 13.606 13.1666 13.5137V11.4304C13.1666 11.2384 13.3219 11.0831 13.5138 11.0831C13.7058 11.0831 13.8611 11.2384 13.8611 11.4304V13.3699L14.801 14.3099C14.9366 14.4455 14.9366 14.6653 14.801 14.8009Z" fill="#4F565E"/>
</g>
<defs>
<clipPath id="clip0_1819_19219">
<rect width="16.6667" height="16.6667" fill="white" transform="translate(0.666626 0.666504)"/>
</clipPath>
</defs>
</svg>
