<svg width="48" height="48" viewBox="0 0 48 48" fill="none" xmlns="http://www.w3.org/2000/svg">
<rect width="48" height="48" rx="8" fill="url(#paint0_linear_3731_24911)"/>
<g clip-path="url(#clip0_3731_24911)">
<path d="M33.9998 18.4731C33.256 18.8077 32.4635 19.0295 31.6373 19.1372C32.4873 18.6167 33.136 17.7987 33.441 16.8128C32.6485 17.2974 31.7735 17.6397 30.841 17.8308C30.0885 17.009 29.016 16.5 27.846 16.5C25.576 16.5 23.7485 18.3897 23.7485 20.7064C23.7485 21.0397 23.776 21.3603 23.8435 21.6654C20.4348 21.4949 17.4185 19.8192 15.3923 17.2667C15.0385 17.8962 14.831 18.6167 14.831 19.3923C14.831 20.8487 15.5623 22.1397 16.6523 22.8872C15.9935 22.8744 15.3473 22.6782 14.7998 22.3692C14.7998 22.3821 14.7998 22.3987 14.7998 22.4154C14.7998 24.459 16.221 26.1564 18.0848 26.5474C17.751 26.641 17.3873 26.6859 17.0098 26.6859C16.7473 26.6859 16.4823 26.6705 16.2335 26.6141C16.7648 28.2795 18.2723 29.5038 20.0648 29.5436C18.6698 30.6628 16.8985 31.3372 14.981 31.3372C14.6448 31.3372 14.3223 31.3218 13.9998 31.2795C15.816 32.4808 17.9685 33.1667 20.2898 33.1667C27.8348 33.1667 31.9598 26.7564 31.9598 21.2C31.9598 21.0141 31.9535 20.8346 31.9448 20.6564C32.7585 20.0641 33.4423 19.3244 33.9998 18.4731Z" fill="white"/>
</g>
<defs>
<linearGradient id="paint0_linear_3731_24911" x1="0" y1="24" x2="48" y2="24" gradientUnits="userSpaceOnUse">
<stop stop-color="#00C96D"/>
<stop offset="1" stop-color="#048AD7"/>
</linearGradient>
<clipPath id="clip0_3731_24911">
<rect width="20" height="20" fill="white" transform="translate(14 14)"/>
</clipPath>
</defs>
</svg>
