<svg width="20" height="20" viewBox="0 0 20 20" fill="none" xmlns="http://www.w3.org/2000/svg">
<g clip-path="url(#clip0_1073_5458)">
<path d="M4 17.1H16C16.6052 17.1 17.1 16.6052 17.1 16V4C17.1 3.39477 16.6052 2.9 16 2.9H4C3.39477 2.9 2.9 3.39477 2.9 4V16C2.9 16.6052 3.39477 17.1 4 17.1ZM3 1.1H17C18.0448 1.1 18.9 1.95523 18.9 3V17C18.9 18.0448 18.0448 18.9 17 18.9H3C1.95523 18.9 1.1 18.0448 1.1 17V3C1.1 1.95523 1.95523 1.1 3 1.1Z" fill="#4F565E" stroke="#F3F7FA" stroke-width="0.2"/>
</g>
<defs>
<clipPath id="clip0_1073_5458">
<rect width="20" height="20" fill="white"/>
</clipPath>
</defs>
</svg>
