<svg width="335" height="335" viewBox="0 0 335 335" fill="none" xmlns="http://www.w3.org/2000/svg">
<path d="M12.3346 168.625C12.3346 168.625 14.0699 221.375 58.0755 256.536C102.081 291.698 163.132 294.217 212.537 297.554C261.943 300.89 299.879 272.931 305.594 230.661C311.309 188.39 273.568 175.975 253.086 127.856C232.604 79.7366 234.426 63.9179 191.091 34.3173C147.755 4.71669 79.9711 22.9273 44.4276 73.5994C8.88412 124.271 12.3346 168.625 12.3346 168.625Z" fill="#F3F8FA"/>
<path opacity="0.7" d="M12.3346 168.625C12.3346 168.625 14.0699 221.375 58.0755 256.536C102.081 291.698 163.132 294.217 212.537 297.554C261.943 300.89 299.879 272.931 305.594 230.661C311.309 188.39 273.568 175.975 253.086 127.856C232.604 79.7366 234.426 63.9179 191.091 34.3173C147.755 4.71669 79.9711 22.9273 44.4276 73.5994C8.88412 124.271 12.3346 168.625 12.3346 168.625Z" fill="#F3F8FA"/>
<path d="M253.293 303.235H228.014V305.131H253.293V303.235Z" fill="#4F565E" stroke="#4F565E" stroke-linecap="round" stroke-linejoin="round"/>
<path d="M249.026 303.182H232.282L238.848 267.471H242.466L249.026 303.182Z" fill="#048AD7" stroke="#4F565E" stroke-linecap="round" stroke-linejoin="round"/>
<path d="M236.403 280.743H244.905L244.088 276.321H237.22L236.403 280.743Z" fill="white" stroke="#4F565E" stroke-linecap="round" stroke-linejoin="round"/>
<path d="M18.4243 306H323.001" stroke="#263238" stroke-miterlimit="10"/>
<path d="M143.222 306L56.8203 305.945C46.4349 305.945 38 297.825 38 287.814V79.1232C38 69.1123 46.4349 60.9922 56.8203 61L143.18 61.0471C153.574 61.0471 162 69.1672 162 79.1781L161.957 287.869C162.043 297.888 153.616 306 143.222 306Z" fill="#4F565E"/>
<path d="M143.647 69H126.68C125.535 69.051 124.459 69.5123 123.688 70.2828C122.916 71.0532 122.512 72.0701 122.564 73.1108V76.0482C122.616 77.0902 122.211 78.1082 121.437 78.8789C120.664 79.6496 119.586 80.11 118.439 80.159H85.3815C84.235 80.108 83.1577 79.6457 82.386 78.8735C81.6143 78.1013 81.2113 77.0823 81.2655 76.0403V73.1108C81.3173 72.0701 80.9132 71.0532 80.1418 70.2828C79.3703 69.5123 78.2944 69.051 77.1495 69H56.3529C48.9788 69 42.9998 74.7094 42.9998 81.7498V286.203C42.9998 293.235 48.9701 298.945 56.3356 298.953L143.647 299C151.021 299 157 293.298 157 286.258L156.982 81.7734C156.982 74.6858 151.021 69 143.647 69Z" fill="#F3F9FA"/>
<path d="M99.6151 118.634C100.657 118.006 101.778 117.52 102.948 117.189L103.636 113.887L109.209 113.792L110.009 117.066C111.191 117.354 112.328 117.801 113.39 118.394L116.211 116.549L120.217 120.42L118.473 123.3C119.104 124.341 119.591 125.462 119.923 126.633L123.219 127.316L123.315 132.889L120.051 133.694C119.76 134.876 119.312 136.013 118.718 137.075L120.569 139.891L116.697 143.902L113.817 142.152C112.776 142.782 111.655 143.27 110.484 143.603L109.796 146.904L104.223 147L103.423 143.726C102.242 143.435 101.105 142.989 100.042 142.398L97.2259 144.243L93.2155 140.371L94.9594 137.491C94.3307 136.449 93.8429 135.329 93.5088 134.158L90.1863 133.47L90.0903 127.903L93.3595 127.097C93.6502 125.916 94.0987 124.778 94.6927 123.716L92.8528 120.9L96.7246 116.89L99.6044 118.634H99.6151ZM102.586 126.057C101.763 126.908 101.211 127.984 100.999 129.149C100.788 130.313 100.927 131.514 101.398 132.6C101.869 133.686 102.652 134.607 103.647 135.248C104.642 135.889 105.805 136.22 106.989 136.2C108.172 136.18 109.323 135.809 110.296 135.135C111.268 134.461 112.019 133.513 112.453 132.412C112.888 131.311 112.985 130.106 112.734 128.949C112.483 127.792 111.895 126.736 111.044 125.913C109.903 124.811 108.371 124.208 106.785 124.235C105.199 124.262 103.688 124.917 102.586 126.057Z" fill="url(#paint0_linear_4387_31899)"/>
<path d="M126.013 103.312C126.541 103.219 127.08 103.2 127.613 103.253L128.434 102L130.759 102.875L130.557 104.357C131.014 104.668 131.426 105.039 131.783 105.461L133.25 105.157L134.274 107.418L133.085 108.32C133.172 108.848 133.19 109.386 133.138 109.92L134.391 110.741L133.495 113.087L132.007 112.879C131.695 113.323 131.324 113.721 130.903 114.063L131.207 115.53L128.952 116.559L128.045 115.365C127.516 115.453 126.978 115.47 126.445 115.418L125.618 116.671L123.299 115.802L123.501 114.319C123.061 114.004 122.663 113.633 122.317 113.215L120.851 113.519L119.821 111.258L121.016 110.352C120.928 109.823 120.91 109.285 120.963 108.752L119.709 107.93L120.579 105.605L122.067 105.808C122.379 105.368 122.748 104.971 123.165 104.629L122.867 103.157L125.122 102.133L126.029 103.328L126.013 103.312ZM126.013 106.869C125.532 107.087 125.127 107.442 124.848 107.89C124.569 108.338 124.43 108.859 124.447 109.386C124.465 109.914 124.638 110.424 124.946 110.853C125.253 111.282 125.681 111.61 126.176 111.795C126.67 111.98 127.208 112.015 127.722 111.894C128.235 111.774 128.702 111.504 129.062 111.118C129.422 110.732 129.659 110.248 129.744 109.727C129.829 109.206 129.757 108.672 129.538 108.192C129.245 107.554 128.712 107.057 128.055 106.809C127.398 106.562 126.67 106.583 126.029 106.869H126.013Z" fill="url(#paint1_linear_4387_31899)"/>
<path d="M84.7465 110.005C85.0815 109.674 85.4601 109.391 85.8718 109.163L85.8344 107.861L87.9197 107.328L88.5116 108.485C88.9826 108.49 89.4509 108.558 89.9035 108.688L90.7995 107.739L92.65 108.837L92.2501 110.075C92.5776 110.412 92.8608 110.791 93.0927 111.2L94.3939 111.163L94.9272 113.253L93.77 113.845C93.7654 114.314 93.6991 114.78 93.5727 115.232L94.5166 116.128L93.418 117.978L92.1807 117.578C91.8458 117.909 91.4672 118.193 91.0555 118.421L91.0928 119.722L89.0076 120.255L88.4156 119.098C87.9446 119.094 87.4764 119.026 87.0237 118.895L86.1278 119.845L84.2772 118.746L84.6772 117.509C84.3496 117.171 84.0665 116.793 83.8346 116.384L82.5333 116.421L82 114.33L83.1626 113.738C83.1671 113.27 83.2335 112.803 83.3599 112.352L82.416 111.456L83.5146 109.605L84.7518 110.005H84.7465ZM86.5224 112.528C86.2894 112.92 86.178 113.373 86.2023 113.829C86.2266 114.285 86.3855 114.724 86.6589 115.089C86.9323 115.455 87.308 115.731 87.7384 115.883C88.1688 116.036 88.6347 116.057 89.0772 115.944C89.5196 115.832 89.9188 115.591 90.2243 115.251C90.5298 114.912 90.7279 114.49 90.7935 114.038C90.8591 113.586 90.7893 113.125 90.5929 112.713C90.3966 112.301 90.0824 111.956 89.6902 111.723C89.4276 111.569 89.1374 111.469 88.836 111.427C88.5346 111.386 88.2281 111.405 87.9339 111.482C87.6397 111.559 87.3636 111.694 87.1214 111.878C86.8792 112.062 86.6756 112.292 86.5224 112.554V112.528Z" fill="url(#paint2_linear_4387_31899)"/>
<path opacity="0.3" d="M131.973 213.556C131.002 213.259 129.957 213.309 129.018 213.698C128.079 214.086 127.304 214.788 126.826 215.685C126.348 216.581 126.196 217.616 126.396 218.612C126.596 219.608 127.136 220.504 127.924 221.146C128.712 221.788 129.698 222.136 130.714 222.131C131.73 222.127 132.713 221.769 133.494 221.12C134.276 220.47 134.808 219.57 134.998 218.572C135.189 217.574 135.028 216.54 134.541 215.648C134.42 215.42 134.277 215.205 134.114 215.005M124.812 209.852L127.247 208.523L129.135 210.994C129.678 210.863 130.236 210.803 130.795 210.814L132.124 208L134.781 208.782L134.373 211.866C134.845 212.16 135.279 212.512 135.665 212.913L138.594 211.86L139.922 214.295L137.451 216.184C137.581 216.723 137.648 217.276 137.65 217.831L140.457 219.154L139.676 221.812L136.597 221.403C136.301 221.877 135.948 222.314 135.545 222.701L136.597 225.63L134.192 226.952L132.298 224.487C131.756 224.613 131.201 224.672 130.645 224.662L129.316 227.476L126.658 226.694L127.067 223.615C126.596 223.318 126.161 222.964 125.774 222.563L122.846 223.615L121.517 221.21L123.988 219.322C123.863 218.778 123.802 218.221 123.808 217.663L121 216.34L121.782 213.682L124.86 214.091C125.157 213.619 125.508 213.183 125.906 212.792L124.812 209.852Z" stroke="#4F565E" stroke-linecap="round" stroke-linejoin="round"/>
<path d="M63 69V296.472C62.9982 297.02 63.1736 297.553 63.4996 297.992C63.8256 298.43 64.2845 298.749 64.8068 298.901C65.329 299.053 65.8862 299.029 66.3938 298.833C66.9015 298.638 67.3319 298.28 67.62 297.816C67.8682 297.412 67.9998 296.947 68 296.472V69" stroke="#292F3B" stroke-miterlimit="10"/>
<path d="M80.9205 154.763C81.0126 155.138 81.1866 155.488 81.4299 155.788C81.8454 156.304 82.5626 155.996 82.5626 156.612C82.5626 157.229 81.5371 158.047 81.5371 158.047C81.5371 158.047 81.2288 161.331 80.6122 162.357C79.9955 163.382 76.919 162.464 76.919 162.464L76.0946 165.024L67.1668 164.307L67.6762 160.956L66.7512 155.781C66.7512 155.781 67.1601 153.73 68.8022 153.013C70.4443 152.296 77.0129 152.805 78.2461 153.013C79.4794 153.221 80.9205 154.763 80.9205 154.763Z" fill="white" stroke="#292F3B" stroke-miterlimit="10"/>
<path d="M66.7512 155.781C66.7512 155.781 67.1601 159.889 67.6695 160.915C68.1789 161.94 69.9282 162.349 72.4953 161.94C75.0624 161.532 76.1885 160.707 76.5169 159.682C76.8453 158.656 77.4418 156.806 77.8574 156.706C78.273 156.605 78.3735 156.605 78.5813 157.222C78.7891 157.838 78.0652 158.448 78.7824 157.838C79.4995 157.229 79.7073 154.554 79.7073 154.554C79.7073 154.554 73.4538 155.372 70.7728 155.372C69.4691 155.399 68.1653 155.329 66.8719 155.164L66.7512 155.781Z" fill="#292F3B" stroke="#292F3B" stroke-miterlimit="10"/>
<path d="M66.3416 155.681C66.3416 155.681 66.1405 160.299 68.8081 161.941C71.4758 163.583 74.76 161.84 75.9933 160.708C77.2266 159.575 77.8365 156.09 77.8365 156.09L76.6099 156.197C76.6099 156.197 77.0188 158.757 73.9289 159.682C70.839 160.607 69.9074 160.399 69.0092 159.682C68.1111 158.965 66.7504 155.781 66.7504 155.781L66.3416 155.681Z" fill="white" stroke="#292F3B" stroke-miterlimit="10"/>
<path d="M66.4495 151.163C66.4495 151.163 66.55 154.655 66.2417 155.185L65.9333 155.701C65.9333 155.701 67.676 157.551 73.7352 157.135C77.2824 156.927 80.7136 155.795 83.6885 153.851L81.738 152.008C81.738 152.008 81.8453 148.107 79.057 145.848C76.2687 143.59 69.8208 145.031 68.1787 147.082C66.5366 149.133 66.3422 150.446 66.4495 151.163Z" fill="white" stroke="#292F3B" stroke-miterlimit="10"/>
<path d="M57.1061 189.139L56.905 193.241L76.9189 193.65L76.5034 189.756C76.5034 189.756 74.8612 188.932 69.8008 188.214C66.1897 187.798 62.5469 187.728 58.9225 188.007C58.3363 188.02 57.7528 188.09 57.1798 188.214L57.1061 189.139Z" fill="#048AD7" stroke="#292F3B" stroke-miterlimit="10"/>
<path d="M110.278 147.034H107.215H106.92H103.85L106.357 148.703V159.695H107.664V148.723L107.771 148.703L110.278 147.034Z" fill="white" stroke="#292F3B" stroke-miterlimit="10"/>
<path d="M59.2375 165.708C59.2375 165.708 56.5163 167.142 56.5163 169.575C56.5163 172.008 51.3352 180.748 51.3352 185.474C51.3352 190.199 54.338 189.495 56.342 188.476C57.7748 187.714 59.1228 186.802 60.3636 185.755L61.5298 166.827C61.5298 166.827 61.2416 165.567 59.2375 165.708Z" fill="white" stroke="#292F3B" stroke-miterlimit="10"/>
<path d="M59.2371 165.708C59.2371 165.708 56.5159 167.142 56.5159 169.575C56.5159 170.607 55.5842 172.779 54.5051 175.299L60.7653 179.321L61.5294 166.827C61.5294 166.827 61.2412 165.567 59.2371 165.708Z" fill="#048AD7" stroke="#292F3B" stroke-miterlimit="10"/>
<path d="M77.1198 165.533C76.766 164.821 76.1894 164.245 75.4776 163.891C74.3516 163.375 69.318 162.457 67.5753 162.457C67.0185 162.498 66.4789 162.668 65.9986 162.953C65.5184 163.238 65.1106 163.63 64.8071 164.099L77.1198 165.533Z" fill="white" stroke="#292F3B" stroke-miterlimit="10"/>
<path d="M65.9332 163.791C63.9468 164.154 61.9907 164.667 60.0819 165.325C57.2132 166.351 57.3137 169.347 57.2132 172.028C57.1126 174.709 56.9048 184.957 56.7976 186.392C56.6904 187.826 56.6971 188.959 57.1059 189.166C57.5148 189.374 64.3916 188.449 68.5003 188.959C72.609 189.468 75.4777 190.701 76.5032 190.091C77.5287 189.482 77.7365 187.933 77.7365 186.807C77.7365 185.681 82.0462 176.847 82.0462 176.847C82.0462 176.847 97.8509 179.823 98.1324 179.723C98.4139 179.622 107.194 163.475 107.194 163.475C107.194 163.475 109.446 161.934 109.755 161.418C110.063 160.902 109.654 158.14 109.654 157.832C109.654 157.524 109.755 156.491 109.755 155.774C109.755 155.057 108.528 154.434 108.32 154.749C108.144 154.981 107.936 155.189 107.704 155.365L106.678 156.8C106.609 156.062 106.435 155.337 106.162 154.648C105.86 154.239 104.627 154.648 105.137 155.466C105.339 155.751 105.448 156.092 105.448 156.441C105.448 156.791 105.339 157.132 105.137 157.416C104.697 158.345 104.486 159.365 104.52 160.392C104.468 161.537 104.297 162.674 104.011 163.784C104.011 163.784 96.4166 170.56 95.572 171.385C95.1706 171.771 94.7944 172.183 94.446 172.618C94.446 172.618 86.852 168.409 85.0021 167.584C83.1521 166.76 77.0997 165.533 77.0997 165.533C77.0997 165.533 69.432 163.791 65.9332 163.791Z" fill="white" stroke="#292F3B" stroke-miterlimit="10"/>
<path d="M85.0222 167.585C83.179 166.767 77.1198 165.534 77.1198 165.534C77.1198 165.534 69.4253 163.791 65.9332 163.791C63.9468 164.154 61.9907 164.667 60.0819 165.326C57.2132 166.351 57.3137 169.347 57.2132 172.028C57.1126 174.71 56.9048 184.958 56.7976 186.392C56.6904 187.826 56.6971 188.959 57.1059 189.167C57.5148 189.375 64.3916 188.45 68.5003 188.959C72.609 189.469 75.4777 190.702 76.5032 190.092C77.5287 189.482 77.7365 187.934 77.7365 186.808C77.7365 185.682 82.0462 176.848 82.0462 176.848L87.2876 177.826L90.0357 170.219C88.0182 169.099 85.8868 167.973 85.0222 167.585Z" fill="#048AD7" stroke="#292F3B" stroke-miterlimit="10"/>
<path d="M73.4536 189.877C71.5284 186.29 69.8424 182.58 68.4066 178.771C66.6058 174.029 65.2374 169.134 64.318 164.146C63.6478 164.293 62.8635 164.494 62.0056 164.742L62.1397 164.843L62.2402 165.225C62.9105 167.839 67.1197 183.161 70.1157 189.206C71.3892 189.401 72.5019 189.669 73.4536 189.877Z" fill="white" stroke="#292F3B" stroke-miterlimit="10"/>
<path d="M58.4666 189.12L61.3084 188.925L77.9845 165.714L77.1198 165.533L75.2766 165.326L58.4666 189.12Z" fill="white" stroke="#292F3B" stroke-miterlimit="10"/>
<path d="M87.7968 206.996C87.7968 206.996 55.9796 207.512 55.1552 206.996C54.3308 206.48 52.6954 204.945 53.5131 200.963C54.1838 198.218 55.3317 195.611 56.9046 193.262L76.9185 193.671L78.259 197.163C78.259 197.163 86.8785 198.906 89.955 201.185C93.0315 203.464 88.9295 207.344 88.9295 207.344" fill="#292F3B"/>
<path d="M87.7968 206.996C87.7968 206.996 55.9796 207.512 55.1552 206.996C54.3308 206.48 52.6954 204.945 53.5131 200.963C54.1838 198.218 55.3317 195.611 56.9046 193.262L76.9185 193.671L78.259 197.163C78.259 197.163 86.8785 198.906 89.955 201.185C93.0315 203.464 88.9295 207.344 88.9295 207.344" stroke="#292F3B" stroke-miterlimit="10"/>
<path d="M78.2527 197.143C78.2527 197.143 78.8626 199.824 79.0704 200.735L78.2527 197.143Z" fill="white"/>
<path d="M78.2527 197.143C78.2527 197.143 78.8626 199.824 79.0704 200.735" stroke="#292F3B" stroke-miterlimit="10"/>
<path d="M55.2629 208.122L57.83 233.062L63.8624 233.471C63.8624 233.471 64.5795 214.08 64.5795 213.665C64.5795 213.249 65.1962 208.229 65.1962 208.229L55.2629 208.122Z" fill="#292F3B" stroke="#292F3B" stroke-miterlimit="10"/>
<path d="M57.8301 233.062C57.8301 233.062 57.2134 238.095 57.7228 238.605C58.2322 239.114 62.7498 239.221 63.3664 238.605C63.983 237.988 63.782 233.062 63.782 233.062H57.8301Z" fill="white" stroke="#292F3B" stroke-miterlimit="10"/>
<path d="M63.7548 236.842L57.5281 236.768C57.4398 237.387 57.5066 238.018 57.7225 238.605C58.2386 239.121 62.7494 239.221 63.366 238.605C63.6427 238.059 63.7765 237.453 63.7548 236.842Z" fill="white" stroke="#292F3B" stroke-miterlimit="10"/>
<path d="M79.1707 208.329L76.302 233.578H82.0461C82.4272 232.61 82.7364 231.615 82.9711 230.602C82.8625 229.904 82.6897 229.217 82.455 228.551L87.998 208.738L79.1707 208.329Z" fill="#292F3B" stroke="#292F3B" stroke-miterlimit="10"/>
<path d="M82.0462 233.578C82.0462 233.578 83.9966 235.421 85.2299 235.837C86.4632 236.253 88.1053 236.963 88.1053 237.58C88.1053 238.196 85.0221 238.505 82.7433 238.505C80.3994 238.353 78.0684 238.044 75.7659 237.58L76.282 233.558L82.0462 233.578Z" fill="white" stroke="#292F3B" stroke-miterlimit="10"/>
<path d="M88.1052 237.58C88.0894 237.424 88.0152 237.28 87.8974 237.178C86.6069 237.379 85.3027 237.479 83.9965 237.479C81.3155 237.479 77.3409 236.521 75.9534 236.139L75.7725 237.553C78.075 238.017 80.406 238.326 82.7498 238.478C85.022 238.505 88.1052 238.196 88.1052 237.58Z" fill="white" stroke="#292F3B" stroke-miterlimit="10"/>
<path d="M91.1817 206.788H47.769V209.147H91.1817V206.788Z" fill="white" stroke="#292F3B" stroke-miterlimit="10"/>
<path d="M91.1816 206.788H81.5366V209.147H91.1816V206.788Z" fill="white" stroke="#292F3B" stroke-miterlimit="10"/>
<path d="M135.764 305.132H130.565L137.499 256.818H142.698L135.764 305.132Z" fill="#4F565E"/>
<path d="M146.162 305.132H151.361L144.427 256.818H139.228L146.162 305.132Z" fill="white" stroke="#4F565E" stroke-miterlimit="10"/>
<path d="M209.524 305.132H204.325L211.259 256.818H216.459L209.524 305.132Z" fill="#4F565E"/>
<path d="M219.923 305.132H225.122L218.187 256.818H212.995L219.923 305.132Z" fill="white" stroke="#4F565E" stroke-miterlimit="10"/>
<path d="M223.554 249.24H124.414V258.855H223.554V249.24Z" fill="#048AD7" stroke="#4F565E" stroke-miterlimit="10"/>
<path d="M225.973 249.24H126.833V258.855H225.973V249.24Z" fill="#048AD7" stroke="#4F565E" stroke-miterlimit="10"/>
<path d="M128.454 258.855H136.869L141.218 249.24H132.802L128.454 258.855Z" fill="white"/>
<path d="M161.76 249.24H153.345L148.996 258.855H157.412L161.76 249.24Z" fill="white"/>
<path d="M223.393 249.24H214.978L210.63 258.855H219.045L223.393 249.24Z" fill="white"/>
<path d="M202.851 249.24H194.436L190.087 258.855H198.503L202.851 249.24Z" fill="white"/>
<path d="M182.302 249.24H173.887L169.539 258.855H177.954L182.302 249.24Z" fill="white"/>
<path d="M248.112 168.473V161.103L240.4 160.225C240.172 158.736 239.813 157.27 239.329 155.843L245.747 151.153L241.995 144.741L234.866 147.79C233.909 146.617 232.856 145.525 231.717 144.527L234.9 137.284L228.394 133.586L223.764 139.73C222.343 139.178 220.877 138.75 219.383 138.45L218.465 130.618H210.961L210.07 138.222C208.562 138.449 207.076 138.803 205.628 139.281L200.857 132.949L194.351 136.648L197.44 143.683C196.252 144.62 195.147 145.658 194.137 146.785L186.767 143.649L183.015 150.054L189.246 154.624C188.688 156.021 188.256 157.465 187.953 158.939L180 159.803V167.173L187.712 168.051C187.943 169.54 188.304 171.006 188.79 172.432L182.365 177.122L186.117 183.528L193.246 180.486C194.203 181.659 195.257 182.75 196.395 183.749L193.212 190.991L199.718 194.69L204.348 188.546C205.77 189.094 207.236 189.522 208.73 189.826L209.648 197.651H217.151L218.069 190.094C219.577 189.867 221.063 189.513 222.511 189.035L227.282 195.366L233.788 191.661L230.699 184.633C231.887 183.696 232.992 182.658 234.002 181.531L241.372 184.667L245.124 178.255L238.893 173.692C239.452 172.293 239.884 170.847 240.186 169.37L248.112 168.473ZM214.07 181.745C210.598 181.696 207.218 180.622 204.356 178.658C201.493 176.694 199.275 173.927 197.98 170.706C196.685 167.485 196.372 163.952 197.079 160.553C197.786 157.154 199.482 154.04 201.954 151.602C204.426 149.165 207.564 147.512 210.972 146.853C214.381 146.193 217.909 146.556 221.112 147.896C224.314 149.235 227.05 151.492 228.974 154.382C230.898 157.272 231.925 160.666 231.925 164.138C231.909 166.466 231.435 168.769 230.529 170.914C229.623 173.06 228.303 175.006 226.645 176.641C224.987 178.276 223.023 179.568 220.865 180.444C218.707 181.32 216.398 181.762 214.07 181.745Z" stroke="#4F565E" stroke-miterlimit="10"/>
<path d="M291.357 132.502V127.718L286.379 127.149C286.236 126.189 286.012 125.243 285.709 124.321L289.863 121.286L287.431 117.139L282.828 119.109C282.219 118.35 281.546 117.644 280.818 116.998L282.875 112.308L278.674 109.916L275.679 113.889C274.763 113.531 273.817 113.253 272.852 113.059L272.256 108H267.405L266.829 112.911C265.856 113.054 264.897 113.279 263.961 113.581L260.872 109.494L256.672 111.886L258.682 116.429C257.912 117.035 257.196 117.707 256.544 118.439L251.794 116.429L249.369 120.576L253.389 123.524C253.027 124.428 252.747 125.363 252.551 126.318L247.412 126.901V131.684L252.397 132.254C252.537 133.214 252.761 134.16 253.067 135.081L248.913 138.116L251.338 142.264L255.948 140.294C256.557 141.053 257.23 141.759 257.958 142.404L255.901 147.094L260.102 149.486L263.097 145.533C264.013 145.894 264.959 146.172 265.924 146.364L266.521 151.423H271.371L271.948 146.512C272.92 146.368 273.879 146.144 274.815 145.842L277.897 149.929L282.105 147.537L280.095 142.994C280.865 142.388 281.58 141.715 282.232 140.984L286.976 142.994L289.408 138.847L285.388 135.899C285.749 134.994 286.03 134.059 286.225 133.105L291.357 132.502ZM269.361 141.078C267.115 141.049 264.928 140.356 263.074 139.087C261.22 137.818 259.784 136.029 258.944 133.945C258.104 131.862 257.9 129.576 258.356 127.377C258.812 125.177 259.908 123.162 261.507 121.583C263.105 120.005 265.135 118.935 267.34 118.507C269.546 118.079 271.828 118.314 273.901 119.18C275.974 120.046 277.744 121.506 278.989 123.376C280.234 125.245 280.899 127.441 280.899 129.688C280.889 131.193 280.583 132.682 279.998 134.069C279.413 135.456 278.56 136.715 277.489 137.772C276.418 138.83 275.148 139.666 273.754 140.234C272.359 140.801 270.867 141.088 269.361 141.078Z" stroke="#4F565E" stroke-miterlimit="10"/>
<path d="M45 280.5V247.471L159 185V217.5L109 244.5L45 280.5Z" fill="#048AD7" fill-opacity="0.1"/>
<path d="M45 192.5V159.471L159 97V129.5L109 156.5L45 192.5Z" fill="#048AD7" fill-opacity="0.1"/>
<g opacity="0.3">
<path d="M103.031 283.761L121.374 265.015C122.338 265.408 123.384 265.523 124.405 265.348C125.425 265.172 126.382 264.713 127.175 264.018C127.968 263.322 128.568 262.417 128.913 261.395C129.258 260.374 129.334 259.275 129.135 258.212L125.516 262.002C125.414 262.109 125.294 262.194 125.16 262.252C125.027 262.31 124.885 262.339 124.741 262.339C124.597 262.339 124.454 262.31 124.321 262.252C124.188 262.194 124.067 262.109 123.965 262.002L120.955 258.849C120.854 258.743 120.773 258.617 120.718 258.477C120.662 258.338 120.634 258.189 120.634 258.038C120.634 257.888 120.662 257.738 120.718 257.599C120.773 257.46 120.854 257.333 120.955 257.227L124.574 253.434C123.559 253.227 122.51 253.309 121.536 253.671C120.562 254.034 119.699 254.664 119.037 255.495C118.374 256.327 117.937 257.329 117.771 258.398C117.605 259.467 117.716 260.563 118.092 261.571L99.749 280.318C98.7861 279.925 97.7403 279.81 96.7207 279.985C95.7011 280.161 94.745 280.619 93.9523 281.313C93.1595 282.008 92.5591 282.912 92.2137 283.932C91.8683 284.952 91.7906 286.051 91.9886 287.113L95.6071 283.322C95.7088 283.216 95.8297 283.131 95.9628 283.073C96.0959 283.015 96.2385 282.985 96.3826 282.985C96.5267 282.985 96.6693 283.015 96.8024 283.073C96.9355 283.131 97.0564 283.216 97.1582 283.322L100.168 286.475C100.27 286.582 100.351 286.708 100.406 286.847C100.461 286.987 100.489 287.136 100.489 287.286C100.489 287.437 100.461 287.586 100.406 287.726C100.351 287.865 100.27 287.991 100.168 288.098L96.5421 291.883C97.5562 292.09 98.6048 292.009 99.5785 291.647C100.552 291.285 101.416 290.656 102.078 289.826C102.741 288.995 103.179 287.994 103.347 286.926C103.514 285.858 103.405 284.762 103.031 283.754V283.761Z" fill="white" stroke="#4F565E" stroke-width="0.8" stroke-miterlimit="10"/>
<path d="M104.026 267.544L102.793 268.835L120.581 287.47L121.814 286.178L104.026 267.544Z" fill="white" stroke="#4F565E" stroke-width="0.8" stroke-miterlimit="10"/>
<path d="M124.953 287.554L121.894 290.758L119.345 288.089C118.939 287.664 118.711 287.087 118.711 286.486C118.711 285.885 118.939 285.308 119.345 284.883C119.545 284.673 119.784 284.506 120.046 284.392C120.309 284.278 120.59 284.219 120.874 284.219C121.158 284.219 121.439 284.278 121.701 284.392C121.964 284.506 122.202 284.673 122.403 284.883L124.953 287.554Z" fill="white" stroke="#4F565E" stroke-width="0.8" stroke-miterlimit="10"/>
<path d="M102.366 263.917L99.3303 267.097L101.796 269.68L104.832 266.5L102.366 263.917Z" fill="white" stroke="#4F565E" stroke-width="0.8" stroke-miterlimit="10"/>
<path d="M88.8492 254.03L89.8926 252.937C90.1355 252.683 90.4238 252.481 90.7411 252.343C91.0584 252.205 91.3984 252.135 91.7419 252.135C92.0853 252.135 92.4254 252.205 92.7427 252.343C93.0599 252.481 93.3482 252.683 93.5911 252.937L103.788 263.619C103.888 263.724 103.945 263.867 103.945 264.016C103.945 264.164 103.888 264.307 103.788 264.412L99.8034 268.586C99.7029 268.691 99.5667 268.751 99.4246 268.751C99.2825 268.751 99.1462 268.691 99.0458 268.586L88.8492 257.904C88.3588 257.391 88.0833 256.694 88.0833 255.967C88.0833 255.241 88.3588 254.544 88.8492 254.03Z" fill="white" stroke="#4F565E" stroke-width="0.8" stroke-miterlimit="10"/>
<path d="M105.115 265.608L100.942 269.98C100.785 270.145 100.785 270.411 100.942 270.575L102.082 271.77C102.239 271.934 102.493 271.934 102.65 271.77L106.824 267.397C106.98 267.233 106.98 266.966 106.824 266.802L105.684 265.608C105.527 265.444 105.272 265.444 105.115 265.608Z" fill="white" stroke="#4F565E" stroke-width="0.8" stroke-miterlimit="10"/>
</g>
<defs>
<linearGradient id="paint0_linear_4387_31899" x1="90.0903" y1="130.396" x2="123.315" y2="130.396" gradientUnits="userSpaceOnUse">
<stop stop-color="#00C96D"/>
<stop offset="1" stop-color="#048AD7"/>
</linearGradient>
<linearGradient id="paint1_linear_4387_31899" x1="119.709" y1="109.336" x2="134.391" y2="109.336" gradientUnits="userSpaceOnUse">
<stop stop-color="#00C96D"/>
<stop offset="1" stop-color="#048AD7"/>
</linearGradient>
<linearGradient id="paint2_linear_4387_31899" x1="82" y1="113.792" x2="94.9272" y2="113.792" gradientUnits="userSpaceOnUse">
<stop stop-color="#00C96D"/>
<stop offset="1" stop-color="#048AD7"/>
</linearGradient>
</defs>
</svg>
