<svg width="10" height="6" viewBox="0 0 10 6" fill="none" xmlns="http://www.w3.org/2000/svg">
<path d="M0.583253 5.7513C0.736031 5.90408 0.930474 5.98047 1.16658 5.98047C1.4027 5.98047 1.59714 5.90408 1.74992 5.7513L4.99992 2.5013L8.24992 5.7513C8.4027 5.90408 8.59714 5.98047 8.83325 5.98047C9.06936 5.98047 9.26381 5.90408 9.41659 5.7513C9.56936 5.59852 9.64575 5.40408 9.64575 5.16797C9.64575 4.93186 9.56936 4.73741 9.41659 4.58464L5.58325 0.751303C5.49992 0.667969 5.40964 0.608803 5.31242 0.573803C5.2152 0.539358 5.11103 0.522135 4.99992 0.522135C4.88881 0.522135 4.78464 0.539358 4.68742 0.573803C4.5902 0.608803 4.49992 0.667969 4.41659 0.751303L0.583253 4.58464C0.430475 4.73741 0.354085 4.93186 0.354085 5.16797C0.354085 5.40408 0.430475 5.59853 0.583253 5.7513Z" fill="#292F3B"/>
</svg>
