<svg width="16" height="16" viewBox="0 0 16 16" fill="none" xmlns="http://www.w3.org/2000/svg">
<path d="M14.2222 0H1.77778C0.791111 0 0 0.8 0 1.77778V14.2222C0 15.2 0.791111 16 1.77778 16H14.2222C15.2 16 16 15.2 16 14.2222V1.77778C16 0.8 15.2 0 14.2222 0ZM11.5556 8.88889H8.88889V11.5556C8.88889 12.0444 8.48889 12.4444 8 12.4444C7.51111 12.4444 7.11111 12.0444 7.11111 11.5556V8.88889H4.44444C3.95556 8.88889 3.55556 8.48889 3.55556 8C3.55556 7.51111 3.95556 7.11111 4.44444 7.11111H7.11111V4.44444C7.11111 3.95556 7.51111 3.55556 8 3.55556C8.48889 3.55556 8.88889 3.95556 8.88889 4.44444V7.11111H11.5556C12.0444 7.11111 12.4444 7.51111 12.4444 8C12.4444 8.48889 12.0444 8.88889 11.5556 8.88889Z" fill="url(#paint0_linear_3603_10117)"/>
<defs>
<linearGradient id="paint0_linear_3603_10117" x1="0" y1="8" x2="16" y2="8" gradientUnits="userSpaceOnUse">
<stop stop-color="#00C96D"/>
<stop offset="1" stop-color="#048AD7"/>
</linearGradient>
</defs>
</svg>
