<svg width="24" height="24" viewBox="0 0 24 24" fill="none" xmlns="http://www.w3.org/2000/svg">
<path d="M12 2C6.48609 2 2 6.48609 2 12C2 17.5139 6.48609 22 12 22C17.5139 22 22 17.5139 22 12C22 6.48609 17.5139 2 12 2ZM12 18.6667C11.5406 18.6667 11.1667 18.2927 11.1667 17.8334C11.1667 17.374 11.5406 17 12 17C12.4594 17 12.8333 17.374 12.8333 17.8334C12.8333 18.2927 12.4594 18.6667 12 18.6667ZM15.75 9.19441C15.75 10.147 15.3435 11.0763 14.6343 11.7449L13.4258 12.8842C13.0437 13.2443 12.8333 13.7195 12.8333 14.2225V15.75C12.8333 15.9801 12.6468 16.1667 12.4166 16.1667H11.5833C11.3532 16.1667 11.1666 15.9801 11.1666 15.75V14.2225C11.1666 13.27 11.5731 12.3402 12.2824 11.6716L13.4909 10.5323C13.873 10.1722 14.0834 9.69695 14.0834 9.19441V8.49984C14.0834 7.44312 13.1487 6.58332 12 6.58332C10.8514 6.58332 9.91672 7.44309 9.91672 8.49984V9.08336C9.91672 9.31348 9.73016 9.50004 9.50004 9.50004H8.66672C8.4366 9.50004 8.25004 9.31348 8.25004 9.08336V8.49984C8.25004 6.52395 9.93219 4.91668 12 4.91668C14.0679 4.91668 15.75 6.52395 15.75 8.49984V9.19441H15.75Z" fill="#4F565E"/>
</svg>
