<svg width="16" height="14" viewBox="0 0 16 14" fill="none" xmlns="http://www.w3.org/2000/svg">
<path d="M15.6666 6.36365H15.3333V4.77275C15.3333 4.59688 15.1842 4.45456 14.9999 4.45456H11.6666C11.4824 4.45456 11.3333 4.59688 11.3333 4.77275V6.36365H9.99998V0.318191C9.99998 0.142317 9.85089 0 9.66664 0H6.33333C6.14908 0 5.99999 0.142317 5.99999 0.318191V6.36365H4.66665V3.50002C4.66665 3.32414 4.51755 3.18182 4.3333 3.18182H0.999998C0.815748 3.18182 0.666655 3.32414 0.666655 3.50002V6.36365H0.333343C0.149093 6.36365 0 6.50596 0 6.68181V7.31816C0 7.49404 0.149093 7.63635 0.333343 7.63635H0.666686V13.6818C0.666686 13.8577 0.81578 14 1.00003 14H4.33337C4.51762 14 4.66671 13.8577 4.66671 13.6818V7.63635H5.99999V11.1363C5.99999 11.3122 6.14908 11.4545 6.33333 11.4545H9.66667C9.85092 11.4545 10 11.3122 10 11.1363V7.63635H11.3334V13.6818C11.3334 13.8577 11.4824 14 11.6667 14H15C15.1842 14 15.3333 13.8577 15.3333 13.6818V7.63635H15.6667C15.8509 7.63635 16 7.49404 16 7.31816V6.68181C16 6.50596 15.8509 6.36365 15.6666 6.36365Z" fill="white"/>
</svg>
