<svg width="20" height="20" viewBox="0 0 20 20" fill="none" xmlns="http://www.w3.org/2000/svg">
<g clip-path="url(#clip0_1816_18778)">
<path d="M16.6667 0C14.8287 0 13.3334 1.49535 13.3334 3.33332C13.3334 4.92762 15.6954 8.15438 16.2489 8.88879C16.2487 9.12602 16.2489 9.35894 16.2431 9.57273C16.237 9.80262 16.4185 9.9943 16.6488 10.0004C16.6525 10.0004 16.6561 10.0004 16.6602 10.0004C16.8848 10.0004 17.0704 9.82094 17.0765 9.59473C17.0822 9.37535 17.082 9.1359 17.0822 8.89191C17.632 8.16254 20 4.92949 20 3.33332C20 1.49535 18.5047 0 16.6667 0ZM16.6667 4.16668C16.2073 4.16668 15.8334 3.79273 15.8334 3.33336C15.8334 2.87398 16.2073 2.50004 16.6667 2.50004C17.1261 2.50004 17.5 2.87395 17.5 3.33332C17.5 3.79273 17.1261 4.16668 16.6667 4.16668Z" fill="white"/>
<path d="M12.7538 12.0089C12.0662 12.3992 11.6841 13.0766 11.4562 13.5519C11.3565 13.7594 11.444 14.0085 11.6515 14.1077C11.7097 14.1358 11.7712 14.1488 11.8314 14.1488C11.9868 14.1488 12.1358 14.0617 12.2074 13.9124C12.4967 13.309 12.7921 12.9456 13.1656 12.7332C13.3654 12.6197 13.4358 12.3653 13.3219 12.1651C13.2088 11.965 12.9553 11.8946 12.7538 12.0089Z" fill="white"/>
<path d="M8.96195 18.0581C8.54445 18.389 8.07003 18.638 7.51093 18.8198C7.29203 18.8911 7.17238 19.1263 7.24359 19.3452C7.30097 19.5209 7.46413 19.6329 7.63992 19.6329C7.68265 19.6329 7.72617 19.6263 7.7689 19.6125C8.41464 19.4025 8.98999 19.0994 9.47953 18.7116C9.6598 18.5684 9.69031 18.3063 9.54749 18.1261C9.40343 17.9463 9.14179 17.9141 8.96195 18.0581Z" fill="white"/>
<path d="M11.3115 15.0168C11.0958 14.933 10.8558 15.04 10.7724 15.2549C10.5856 15.7375 10.352 16.3002 10.0371 16.8158C9.91705 17.0123 9.97931 17.2686 10.1754 17.3887C10.2434 17.4302 10.3183 17.4497 10.3923 17.4497C10.5327 17.4497 10.6698 17.3789 10.7484 17.2504C11.0975 16.6783 11.3494 16.0728 11.5495 15.556C11.6326 15.3415 11.526 15.1002 11.3115 15.0168Z" fill="white"/>
<path d="M16.5121 10.9775C16.3228 10.8493 16.0628 10.8986 15.9334 11.089C15.7963 11.2916 15.5155 11.5704 14.6663 11.6465C14.4372 11.6672 14.268 11.8694 14.2887 12.0989C14.3082 12.3154 14.4901 12.4781 14.7034 12.4781C14.716 12.4781 14.7286 12.4777 14.7412 12.4765C15.6433 12.3955 16.2589 12.0944 16.6236 11.5561C16.7526 11.3657 16.7025 11.1065 16.5121 10.9775Z" fill="white"/>
<path d="M5.9873 19.1724C7.30203 17.7704 10 14.5449 10 11.667C10 8.86344 7.80356 6.66699 5 6.66699C2.19645 6.66699 0 8.86344 0 11.667C0 15.3629 4.45578 19.6414 4.7048 19.8775C4.7048 19.8775 4.70582 19.8786 4.70629 19.879C4.70766 19.8803 4.71289 19.8854 4.71398 19.8864C4.73121 19.9028 4.7527 19.9104 4.7718 19.9232C4.79543 19.9391 4.8168 19.9579 4.84355 19.9688C4.89375 19.9892 4.94664 20.0003 5 20.0003C5.30355 20.0003 5.59203 19.9897 5.86547 19.969C6.09496 19.9515 6.26707 19.7517 6.24957 19.5222C6.23707 19.358 6.13078 19.2299 5.9873 19.1724ZM5 14.167C3.62141 14.167 2.5 13.0456 2.5 11.667C2.5 10.2884 3.62141 9.16699 5 9.16699C6.37859 9.16699 7.5 10.2884 7.5 11.667C7.5 13.0455 6.37859 14.167 5 14.167Z" fill="white"/>
</g>
<defs>
<clipPath id="clip0_1816_18778">
<rect width="20" height="20" fill="white"/>
</clipPath>
</defs>
</svg>
