<svg width="66" height="66" viewBox="0 0 66 66" fill="none" xmlns="http://www.w3.org/2000/svg">
<path d="M64.1615 66C64.9541 66 65.4317 65.122 65.001 64.4566L44.0316 32.06L63.5929 1.53961C64.0194 0.874029 63.5415 0 62.7509 0H45.8333C45.4796 0 45.1522 0.186868 44.9723 0.491431L33.0473 20.6807L20.934 0.485621C20.7533 0.18435 20.4278 0 20.0765 0H3.25056C2.4597 0 1.9818 0.874642 2.40902 1.54019L22.0631 32.1589L1.00803 64.4539C0.574355 65.119 1.05166 66 1.84572 66H18.7602C19.1064 66 19.428 65.8209 19.6103 65.5266L33.0473 43.8351L46.4844 65.5266C46.6667 65.8209 46.9883 66 47.3345 66H64.1615Z" fill="white"/>
</svg>
