<svg width="48" height="48" viewBox="0 0 48 48" fill="none" xmlns="http://www.w3.org/2000/svg">
<rect width="48" height="48" rx="8" fill="url(#paint0_linear_3731_24926)"/>
<g clip-path="url(#clip0_3731_24926)">
<path d="M24.0637 16.499H24.175C25.2025 16.5028 30.4087 16.5403 31.8125 16.9178C32.2369 17.033 32.6236 17.2576 32.9339 17.569C33.2443 17.8805 33.4675 18.268 33.5812 18.6928C33.7075 19.1678 33.7963 19.7965 33.8563 20.4453L33.8688 20.5753L33.8962 20.9003L33.9063 21.0303C33.9875 22.1728 33.9975 23.2428 33.9987 23.4765V23.5703C33.9975 23.8128 33.9862 24.9553 33.8962 26.1453L33.8863 26.2765L33.875 26.4065C33.8125 27.1215 33.72 27.8315 33.5812 28.354C33.4679 28.779 33.2448 29.1666 32.9344 29.4782C32.6239 29.7897 32.237 30.0142 31.8125 30.129C30.3625 30.519 24.8512 30.5465 24.0875 30.5478H23.91C23.5237 30.5478 21.9262 30.5403 20.2512 30.4828L20.0387 30.4753L19.93 30.4703L19.7162 30.4615L19.5025 30.4528C18.115 30.3915 16.7938 30.2928 16.185 30.1278C15.7606 30.013 15.3738 29.7888 15.0634 29.4774C14.753 29.1661 14.5298 28.7787 14.4163 28.354C14.2775 27.8328 14.185 27.1215 14.1225 26.4065L14.1125 26.2753L14.1025 26.1453C14.0408 25.2983 14.0066 24.4495 14 23.6003L14 23.4465C14.0025 23.1778 14.0125 22.249 14.08 21.224L14.0888 21.0953L14.0925 21.0303L14.1025 20.9003L14.13 20.5753L14.1425 20.4453C14.2025 19.7965 14.2912 19.1665 14.4175 18.6928C14.5309 18.2678 14.754 17.8802 15.0644 17.5686C15.3748 17.2571 15.7617 17.0326 16.1862 16.9178C16.795 16.7553 18.1162 16.6553 19.5037 16.5928L19.7162 16.584L19.9312 16.5765L20.0387 16.5728L20.2525 16.564C21.4421 16.5257 22.6323 16.5045 23.8225 16.5003H24.0637V16.499ZM22 20.5115V26.534L27.1963 23.524L22 20.5115Z" fill="white"/>
</g>
<defs>
<linearGradient id="paint0_linear_3731_24926" x1="0" y1="24" x2="48" y2="24" gradientUnits="userSpaceOnUse">
<stop stop-color="#00C96D"/>
<stop offset="1" stop-color="#048AD7"/>
</linearGradient>
<clipPath id="clip0_3731_24926">
<rect width="20" height="20" fill="white" transform="translate(14 14)"/>
</clipPath>
</defs>
</svg>
